<?xml version="1.0" encoding="utf-8"?>
<!-- Generator: Adobe Illustrator 26.0.1, SVG Export Plug-In . SVG Version: 6.00 Build 0)  -->
<svg version="1.1" id="Livello_1" xmlns="http://www.w3.org/2000/svg" xmlns:xlink="http://www.w3.org/1999/xlink" x="0px" y="0px"
	 viewBox="0 0 318.6 192.2" style="enable-background:new 0 0 318.6 192.2;" xml:space="preserve">
<style type="text/css">
	.st_ss0{fill:#FFFFFF;stroke:currentColor;stroke-width:3;stroke-linecap:round;stroke-linejoin:round;stroke-miterlimit:3.5409;}
	.st_ss1{fill:none;stroke:currentColor;stroke-width:3;stroke-linecap:round;stroke-linejoin:round;stroke-miterlimit:3.5409;}
</style>
<g>
	<path class="st_ss0 background" d="M261.8,18.3C258.5,6.2,246.1-1,234,2.3L52.6,50.9c-12.1,3.2-19.3,15.7-16,27.8l25.5,95.2
		c3.2,12.1,15.7,19.3,27.8,16l181.4-48.6c12.1-3.2,19.3-15.7,16-27.8L261.8,18.3z"/>
	<path class="st_ss1" d="M315,43c-5.4-20.2-26.1-32.1-46.3-26.7l0,0c-2.3,0.6-4.6,1.4-6.9,2.4l24.9,92.9C310,98.1,322.3,70.2,315,43z"
		/>
	<path class="st_ss1" d="M29.5,80.4L29.5,80.4C9.4,85.8-2.6,106.5,2.8,126.7c7.3,27.2,31.9,45.2,58.8,45.3L36.7,79.1
		C34.2,79.4,31.8,79.8,29.5,80.4z"/>
</g>

	<g>
	<g>
		<g>
			<path d="M82.5,110.1c-7,0-13-5.1-15.1-12.7c-1.1-4.3-0.8-8.7,1-12.4c1.9-3.8,5.2-6.5,9.3-7.6c1.3-0.3,2.6-0.5,3.8-0.5
				c7,0,13,5.1,15.1,12.7c2.5,9.2-2,17.8-10.3,20C85.1,109.9,83.8,110.1,82.5,110.1z M81.3,79.8c-0.9,0-1.9,0.1-2.8,0.4
				c-3,0.8-5.5,2.8-7,5.7c-1.6,3.1-1.8,6.7-0.8,10.7c1.7,6.5,6.5,10.7,12.1,10.7l0,0c0.9,0,1.9-0.1,2.8-0.4
				c5.6-1.5,10.1-7.6,7.7-16.4C91.6,84,86.9,79.8,81.3,79.8z"/>
			<path d="M81.6,77.1c7,0,12.9,5.3,14.8,12.5c2.3,8.5-1.6,17.4-10.1,19.7c-1.3,0.3-2.5,0.5-3.8,0.5c-7,0-12.9-5.3-14.8-12.5
				c-2.3-8.5,1.6-17.4,10.1-19.7C79.1,77.3,80.3,77.2,81.6,77.1 M82.8,107.4c1,0,1.9-0.1,2.9-0.4c6.2-1.7,10.2-8.3,7.9-16.7
				c-1.9-7.1-7-10.8-12.3-10.8c-1,0-1.9,0.1-2.9,0.4c-6.2,1.7-10.2,8.3-7.9,16.7C72.4,103.6,77.5,107.4,82.8,107.4 M81.6,76.6
				L81.6,76.6c-1.3,0-2.6,0.2-3.9,0.5c-4.2,1.1-7.5,3.9-9.4,7.8c-1.8,3.7-2.2,8.2-1,12.5c2.1,7.7,8.2,12.9,15.3,12.9
				c1.3,0,2.6-0.2,3.9-0.5c8.5-2.3,13-11,10.5-20.3C94.8,81.8,88.7,76.6,81.6,76.6L81.6,76.6z M82.8,106.9
				c-5.5,0-10.1-4.1-11.8-10.5c-1-3.9-0.8-7.5,0.8-10.5c1.4-2.8,3.8-4.8,6.8-5.6c0.9-0.2,1.8-0.4,2.8-0.4c5.5,0,10.1,4.1,11.8,10.5
				c1,3.9,0.8,7.5-0.8,10.5c-1.4,2.8-3.8,4.8-6.8,5.6C84.6,106.8,83.7,106.9,82.8,106.9L82.8,106.9z"/>
		</g>
		<g>
			<path d="M98.9,72.2l9.7-2.6c2-0.5,3.8-0.8,5.5-0.8c5,0,8.4,2.4,9.5,6.8c0.8,3,0.3,5.7-1.5,7.9c-1.7,2.1-4.7,3.8-8.5,4.8l-6.6,1.8
				l3.4,12.5l-3.1,0.8L98.9,72.2z M106.3,87.4l6.9-1.8c2.8-0.8,4.9-1.9,6.1-3.3c1.4-1.6,1.7-3.5,1.1-5.8c-0.9-3.2-3.1-4.8-6.5-4.8
				c-1.3,0-2.7,0.2-4.2,0.6l-6.9,1.8L106.3,87.4z"/>
			<path d="M114.1,69.1c4.7,0,8.1,2.2,9.3,6.6c1.6,6-2.3,10.4-9.8,12.4l-6.9,1.8l3.4,12.5l-2.6,0.7l-8.2-30.8l9.5-2.5
				C110.6,69.3,112.5,69.1,114.1,69.1 M106.1,87.7l7.1-1.9c5.4-1.4,8.7-4.4,7.4-9.4c-1-3.5-3.4-5-6.8-5c-1.3,0-2.8,0.2-4.3,0.6
				l-7.1,1.9L106.1,87.7 M114.1,68.6c-1.7,0-3.6,0.3-5.5,0.8l-9.5,2.5L98.6,72l0.1,0.5l8.2,30.8l0.1,0.5l0.5-0.1l2.6-0.7l0.5-0.1
				l-0.1-0.5l-3.2-12.1l6.4-1.7c8.1-2.2,11.8-6.9,10.2-13C122.7,71,119.2,68.6,114.1,68.6L114.1,68.6z M103,74.3l6.6-1.8
				c1.5-0.4,2.9-0.6,4.2-0.6c3.4,0,5.5,1.6,6.3,4.6c0.6,2.2,0.2,4.1-1.1,5.6c-1.2,1.4-3.2,2.5-6,3.2l-6.6,1.8L103,74.3L103,74.3z"/>
		</g>
		<g>
			<rect x="130.8" y="63.8" transform="matrix(0.9659 -0.2589 0.2589 0.9659 -16.1953 37.0052)" width="3.2" height="32.4"/>
			<path d="M129.6,64.3l8.2,30.8l-2.6,0.7L126.9,65L129.6,64.3 M129.9,63.6l-0.5,0.1l-2.6,0.7l-0.5,0.1l0.1,0.5l8.2,30.8l0.1,0.5
				l0.5-0.1l2.6-0.7l0.5-0.1l-0.1-0.5L130,64.1L129.9,63.6L129.9,63.6z"/>
		</g>
		<g>
			<polygon points="138.3,61.7 144.1,60.1 167.3,85.9 159.3,56 162.4,55.2 170.8,86.5 164.9,88 141.8,62.2 149.8,92.1 146.6,92.9
							"/>
			<path d="M162.2,55.5l8.2,30.8l-5.4,1.5l-23.8-26.5l8.2,30.6l-2.6,0.7l-8.2-30.8l5.4-1.5l23.8,26.5l-8.2-30.6L162.2,55.5
				 M162.6,54.9l-0.5,0.1l-2.6,0.7l-0.5,0.1l0.1,0.5l7.7,28.6L144.4,60l-0.2-0.2l-0.3,0.1l-5.4,1.5l-0.5,0.1l0.1,0.5l8.2,30.8
				l0.1,0.5l0.5-0.1l2.6-0.7l0.5-0.1l-0.1-0.5l-7.7-28.6l22.4,24.9l0.2,0.2l0.3-0.1l5.4-1.5l0.5-0.1l-0.1-0.5l-8.2-30.8L162.6,54.9
				L162.6,54.9z"/>
		</g>
		<g>
			<rect x="175.1" y="52" transform="matrix(0.966 -0.2587 0.2587 0.966 -11.6266 48.0377)" width="3.2" height="32.4"/>
			<path d="M173.9,52.4l8.2,30.8l-2.6,0.7l-8.2-30.8L173.9,52.4 M174.2,51.8l-0.5,0.1l-2.6,0.7l-0.5,0.1l0.1,0.5L179,84l0.1,0.5
				l0.5-0.1l2.6-0.7l0.5-0.1l-0.1-0.5l-8.2-30.8L174.2,51.8L174.2,51.8z"/>
		</g>
		<g>
			<path d="M199.7,78.7c-7,0-13-5.1-15.1-12.7c-2.5-9.2,2-17.8,10.3-20c1.3-0.3,2.6-0.5,3.8-0.5c7,0,13,5.1,15.1,12.7
				c2.5,9.2-2,17.8-10.3,20C202.3,78.5,201,78.7,199.7,78.7z M198.5,48.4c-0.9,0-1.9,0.1-2.8,0.4c-3,0.8-5.5,2.8-7,5.7
				c-1.6,3.1-1.8,6.7-0.8,10.7c1.7,6.5,6.5,10.7,12.1,10.7l0,0c0.9,0,1.9-0.1,2.8-0.4c5.6-1.5,10.1-7.6,7.7-16.4
				C208.8,52.6,204.1,48.4,198.5,48.4z"/>
			<path d="M198.8,45.7c7,0,12.9,5.2,14.8,12.5c2.3,8.5-1.6,17.4-10.1,19.7c-1.3,0.3-2.5,0.5-3.8,0.5c-7,0-12.9-5.3-14.8-12.5
				c-2.3-8.5,1.6-17.4,10.1-19.7C196.3,45.9,197.6,45.7,198.8,45.7 M200,76c1,0,1.9-0.1,2.9-0.4c6.2-1.7,10.2-8.3,7.9-16.7
				c-1.9-7.1-7-10.8-12.3-10.8c-1,0-1.9,0.1-2.9,0.4c-6.2,1.7-10.2,8.3-7.9,16.7C189.6,72.2,194.7,76,200,76 M198.8,45.2L198.8,45.2
				c-1.3,0-2.6,0.2-3.9,0.5c-8.5,2.3-13,11-10.5,20.3c2.1,7.7,8.2,12.9,15.3,12.9c1.3,0,2.6-0.2,3.9-0.5c4.2-1.1,7.5-3.9,9.4-7.8
				c1.8-3.7,2.2-8.2,1-12.5C212,50.4,205.9,45.2,198.8,45.2L198.8,45.2z M200,75.5c-5.5,0-10.1-4.1-11.8-10.5
				c-1-3.9-0.8-7.5,0.8-10.5c1.4-2.8,3.8-4.8,6.8-5.6c0.9-0.2,1.8-0.4,2.8-0.4c5.5,0,10.1,4.1,11.8,10.5c1,3.9,0.8,7.5-0.8,10.5
				c-1.4,2.8-3.8,4.8-6.8,5.6C201.9,75.4,200.9,75.5,200,75.5L200,75.5z"/>
		</g>
		<g>
			<polygon points="216.1,40.8 221.9,39.3 245.1,65.1 237.1,35.2 240.2,34.3 248.6,65.6 242.8,67.2 219.6,41.4 227.6,71.2
				224.5,72.1 			"/>
			<path d="M240.1,34.7l8.2,30.8l-5.4,1.5l-23.8-26.5l8.2,30.6l-2.6,0.7L216.4,41l5.4-1.5L245.6,66l-8.2-30.6L240.1,34.7 M240.4,34
				l-0.5,0.1l-2.6,0.7l-0.5,0.1l0.1,0.5l7.7,28.6l-22.4-24.9L222,39l-0.3,0.1l-5.4,1.5l-0.5,0.1l0.1,0.5l8.2,30.8l0.1,0.5l0.5-0.1
				l2.6-0.7l0.5-0.1l-0.1-0.5L220,42.5l22.4,24.9l0.2,0.2l0.3-0.1l5.4-1.5l0.5-0.1l-0.1-0.5l-8.2-30.8L240.4,34L240.4,34z"/>
		</g>
	</g>
		<g>
		<g>
			<polygon points="77.9,128 81,127.2 88.6,155.7 103.4,151.7 104.2,154.5 86.2,159.3 			"/>
			<path d="M80.8,127.5l7.6,28.5l14.8-4l0.6,2.3L86.4,159l-8.2-30.8L80.8,127.5 M81.2,126.9l-0.5,0.1l-2.6,0.7l-0.5,0.1l0.1,0.5
				l8.2,30.8l0.1,0.5l0.5-0.1l17.4-4.7l0.5-0.1l-0.1-0.5l-0.6-2.3l-0.1-0.5l-0.5,0.1l-14.3,3.8l-7.5-28L81.2,126.9L81.2,126.9z"/>
		</g>
			<g>
			<rect x="105.2" y="120.8" transform="matrix(0.9659 -0.2589 0.2589 0.9659 -31.8299 32.3207)" width="3.2" height="32.4"/>
				<path d="M104,121.3l8.2,30.8l-2.6,0.7l-8.2-30.8L104,121.3 M104.4,120.7l-0.5,0.1l-2.6,0.7l-0.5,0.1l0.1,0.5l8.2,30.8l0.1,0.5
				l0.5-0.1l2.6-0.7l0.5-0.1l-0.1-0.5l-8.2-30.8L104.4,120.7L104.4,120.7z"/>
		</g>
			<g>
			<path d="M113.5,118.5l8.7-2.3c2.2-0.6,4.1-0.9,5.7-0.9c4.2,0,6.8,2,7.9,6c0.9,3.2-0.3,6.2-3.1,8.1c0.3,0,0.7,0,1,0
				c3.7,0,6.4,2.1,7.4,5.9c0.8,3.1,0.4,5.7-1.3,7.7c-1.5,1.8-4.1,3.2-7.8,4.2l-10.1,2.7L113.5,118.5z M124.2,146.1l6.9-1.8
				c2.9-0.8,4.7-1.7,5.8-3c1.2-1.3,1.4-3.1,0.8-5.3c-0.8-3-2.6-4.4-5.7-4.4c-1.3,0-2.9,0.2-4.8,0.8L121,134L124.2,146.1z
				 M120.2,131.3l5.4-1.5c2.9-0.8,4.8-1.7,5.9-2.8c1.2-1.2,1.5-2.8,0.9-4.9c-0.7-2.8-2.2-4-4.9-4c-1.2,0-2.7,0.2-4.6,0.8l-5.6,1.5
				L120.2,131.3z"/>
				<path d="M127.9,115.5c3.8,0,6.5,1.6,7.6,5.8c1,3.8-0.9,6.7-3.9,8.4l0,0c0.7-0.1,1.4-0.2,2-0.2c3.6,0,6.1,2,7.1,5.7
				c1.7,6.2-2,9.7-8.9,11.6l-9.9,2.7l-8.2-30.8l8.5-2.3C124.3,115.8,126.2,115.5,127.9,115.5 M120.1,131.6l5.7-1.5
				c5.5-1.5,8.2-3.6,7-8c-0.8-3-2.4-4.1-5.2-4.1c-1.3,0-2.9,0.3-4.7,0.8l-5.8,1.6L120.1,131.6 M124,146.5l7.1-1.9
				c5.4-1.5,8.1-3.8,6.8-8.6c-0.9-3.3-2.9-4.6-6-4.6c-1.4,0-3,0.3-4.9,0.8l-6.4,1.7L124,146.5 M127.9,115L127.9,115
				c-1.7,0-3.5,0.3-5.8,0.9l-8.5,2.3l-0.5,0.1l0.1,0.5l8.2,30.8l0.1,0.5l0.5-0.1l9.9-2.7c3.7-1,6.3-2.4,7.9-4.3
				c1.7-2.1,2.2-4.7,1.3-7.9c-1.1-3.9-3.8-6.1-7.6-6.1c-0.1,0-0.1,0-0.2,0c2.4-2,3.4-4.8,2.5-7.9C134.9,117,132.2,115,127.9,115
				L127.9,115z M117.6,120.6l5.4-1.4c1.9-0.5,3.4-0.7,4.6-0.7c2.6,0,4,1.1,4.7,3.8c1,3.8-0.8,5.9-6.6,7.4l-5.2,1.4L117.6,120.6
				L117.6,120.6z M121.3,134.2l5.9-1.6c1.9-0.5,3.5-0.8,4.8-0.8c3,0,4.7,1.3,5.5,4.2c1.1,4.1-0.8,6.4-6.5,8l-6.6,1.8L121.3,134.2
				L121.3,134.2z"/>
		</g>
			<g>
			<path d="M142.2,110.8l9.6-2.6c1.9-0.5,3.6-0.8,5.2-0.8c4.7,0,7.8,2.2,9,6.5c1.2,4.4-0.6,8.1-5.1,10.4l11.8,11.7l-3.6,1
				l-11.4-11.4c-0.4,0.1-0.8,0.2-1.2,0.3l-6.5,1.7l3.6,13.5l-3.1,0.8L142.2,110.8z M149.4,125l6.7-1.8c5.5-1.5,7.7-4.3,6.6-8.4
				c-0.8-3-2.8-4.5-6-4.5c-1.2,0-2.5,0.2-4,0.6l-6.7,1.8L149.4,125z"/>
				<path d="M157.1,107.7c4.5,0,7.6,2.1,8.7,6.3c1.2,4.6-0.8,8-5.3,10.3l11.8,11.7l-3,0.8l-11.4-11.4c-0.4,0.2-0.8,0.3-1.3,0.4
				l-6.7,1.8l3.6,13.5l-2.6,0.7l-8.2-30.8l9.4-2.5C153.8,107.9,155.5,107.7,157.1,107.7 M149.2,125.3l7-1.9c5-1.4,8.1-4,6.8-8.7
				c-0.9-3.4-3.2-4.7-6.2-4.7c-1.2,0-2.6,0.2-4,0.6l-7,1.9L149.2,125.3 M157.1,107.2L157.1,107.2c-1.6,0-3.4,0.3-5.3,0.8l-9.4,2.5
				l-0.5,0.1l0.1,0.5l8.2,30.8l0.1,0.5l0.5-0.1l2.6-0.7l0.5-0.1l-0.1-0.5l-3.5-13l6.3-1.7c0.3-0.1,0.7-0.2,1-0.3l11.2,11.2l0.2,0.2
				l0.3-0.1l3-0.8l0.8-0.2l-0.6-0.6l-11.3-11.2c4.4-2.4,6.1-6.1,4.9-10.6C165.1,109.5,161.9,107.2,157.1,107.2L157.1,107.2z
				 M146.4,112.9l6.5-1.7c1.5-0.4,2.8-0.6,3.9-0.6c3.1,0,4.9,1.4,5.7,4.3c1.1,4-1,6.6-6.4,8.1l-6.5,1.7L146.4,112.9L146.4,112.9z"/>
		</g>
			<g>
			<path d="M179,100.9l5.7-1.5l20,28.1l-3.3,0.9l-6.2-8.8l-15.2,4.1l-1,10.7l-3.3,0.9L179,100.9z M180.3,120.7l13.1-3.5l-11.3-15.9
				L180.3,120.7z"/>
				<path d="M184.6,99.7l19.7,27.7l-2.8,0.7l-6.2-8.8l-15.5,4.2l-1,10.7L176,135l3.2-33.9L184.6,99.7 M180,121l13.8-3.7l-11.9-16.7
				L180,121 M184.8,99.1l-0.3,0.1l-5.4,1.4l-0.3,0.1v0.3l-3.2,33.9l-0.1,0.7l0.7-0.2l2.8-0.7l0.3-0.1v-0.3l1-10.4l14.9-4l6,8.5
				l0.2,0.3l0.3-0.1l2.8-0.7l0.7-0.2l-0.4-0.6L185,99.4L184.8,99.1L184.8,99.1z M180.5,120.3l1.7-18.4L193,117L180.5,120.3
				L180.5,120.3z"/>
		</g>
			<g>
			<path d="M201.4,94.9l9.6-2.6c1.9-0.5,3.6-0.8,5.2-0.8c4.7,0,7.8,2.2,9,6.5c1.2,4.4-0.6,8.1-5.1,10.4l11.8,11.7l-3.6,1L217,109.8
				c-0.4,0.1-0.8,0.2-1.2,0.3l-6.5,1.7l3.6,13.5l-3.1,0.8L201.4,94.9z M208.6,109.1l6.7-1.8c5.5-1.5,7.7-4.3,6.6-8.4
				c-0.8-3-2.8-4.5-6-4.5c-1.2,0-2.5,0.2-4,0.6l-6.7,1.8L208.6,109.1z"/>
				<path d="M216.3,91.8c4.5,0,7.6,2.1,8.7,6.3c1.2,4.6-0.8,8-5.3,10.3l11.8,11.7l-3,0.8L217,109.5c-0.4,0.2-0.8,0.3-1.3,0.4
				l-6.7,1.8l3.6,13.5l-2.6,0.7l-8.2-30.8l9.4-2.5C213,92.1,214.7,91.8,216.3,91.8 M208.4,109.5l7-1.9c5-1.4,8.1-4,6.8-8.7
				c-0.9-3.4-3.2-4.7-6.2-4.7c-1.2,0-2.6,0.2-4,0.6l-7,1.9L208.4,109.5 M216.3,91.3L216.3,91.3c-1.6,0-3.4,0.3-5.3,0.8l-9.4,2.5
				l-0.5,0.1l0.1,0.5l8.2,30.8l0.1,0.5l0.5-0.1l2.6-0.7l0.5-0.1l-0.1-0.5l-3.5-13l6.3-1.7c0.3-0.1,0.7-0.2,1-0.3l11.2,11.2l0.2,0.2
				l0.3-0.1l3-0.8l0.8-0.2l-0.6-0.6l-11.3-11.2c4.4-2.4,6.1-6.1,4.9-10.6C224.3,93.6,221.1,91.3,216.3,91.3L216.3,91.3z M205.6,97
				l6.5-1.7c1.5-0.4,2.8-0.6,3.9-0.6c3.1,0,4.9,1.4,5.7,4.3c1.1,4-1,6.6-6.4,8.1l-6.5,1.7L205.6,97L205.6,97z"/>
		</g>
			<g>
			<polygon points="242.2,102.5 225.6,88.4 229.2,87.5 243,99.2 249.1,82.1 252.8,81.1 245.4,101.7 249.1,115.6 246,116.5 			"/>
				<path d="M252.4,81.5l-7.3,20.2l3.7,13.8l-2.6,0.7l-3.7-13.8l-16.4-13.8l3-0.8l14,11.9l6.2-17.3L252.4,81.5 M253.2,80.8l-0.9,0.2
				l-3,0.8l-0.3,0.1l-0.1,0.2L243,98.7l-13.5-11.4l-0.2-0.2l-0.3,0.1l-3,0.8l-0.9,0.2l0.7,0.6l16.3,13.7l3.7,13.6l0.1,0.5l0.5-0.1
				l2.6-0.7l0.5-0.1l-0.1-0.5l-3.7-13.6l7.2-20L253.2,80.8L253.2,80.8z M252.4,82L252.4,82L252.4,82L252.4,82z"/>
		</g>
	</g>
</g>
</svg>
