<?xml version="1.0" encoding="utf-8"?>
<!-- Generator: Adobe Illustrator 26.0.1, SVG Export Plug-In . SVG Version: 6.00 Build 0)  -->
<svg version="1.1" id="Livello_1" xmlns="http://www.w3.org/2000/svg" xmlns:xlink="http://www.w3.org/1999/xlink" x="0px" y="0px"
	 viewBox="0 0 646.8 674.5" style="enable-background:new 0 0 646.8 674.5;" xml:space="preserve">
<style type="text/css">
	.st0{fill:#1200FF;}
	.st1{fill:#FF0092;}
	.st2{fill:#FFFFFF;}
</style>
<g id="_x31_">
	<g>
		
			<rect x="2.3" y="594.8" transform="matrix(0.9975 -7.002769e-02 7.002769e-02 0.9975 -43.9627 8.5033)" class="st0" width="194" height="73"/>
		
			<rect x="196" y="584.5" transform="matrix(0.9975 -7.002769e-02 7.002769e-02 0.9975 -42.8813 18.7506)" class="st1" width="100" height="73"/>
	</g>
	<path class="st2" d="M9.2,619.9l15-1.1l2.8,40.1l5.6-0.4l-2.8-40.1l15-1.1l-0.3-4.7l-35.7,2.5L9.2,619.9z M54.5,657l26.3-1.8
		l-0.3-4.7L59.8,652l-1.1-16l19.6-1.4l-0.3-4.7l-19.6,1.4l-1-14.8l20.2-1.4l-0.3-4.7l-25.7,1.8L54.5,657z M85.1,654.9l5.9-0.4
		l3.6-13.8l20.9-1.5l5.5,13.2l5.9-0.4l-18.2-43.7l-11.6,0.8L85.1,654.9z M102.9,608.9l10.7,25.7l-17.8,1.2L102.9,608.9z
		 M128.6,629.3c1,13.6,10.2,22.4,22.2,21.6c10.2-0.7,17.3-7.7,18.4-17.8l-5.8,0.4c-1,7.6-5.7,12.3-12.5,12.7
		c-9,0.6-15.6-6.2-16.4-17.3c-0.8-10.7,4.5-18.8,13.3-19.4c7-0.5,12.2,3.6,14.3,11l5.8-0.4c-2.5-9.9-10.4-16-20.6-15.2
		C135.3,605.7,127.7,616.6,128.6,629.3z M202.7,601.7l1.4,19.6l-21.3,1.5l-1.4-19.6l-5.6,0.4l3.1,44.7l5.6-0.4l-1.4-20.5l21.3-1.5
		l1.4,20.5l5.6-0.4l-3.1-44.7L202.7,601.7z M223.4,645.2l26.3-1.8l-0.3-4.7l-20.7,1.5l-1.1-16l19.6-1.4l-0.3-4.7l-19.6,1.4l-1-14.8
		l20.2-1.4l-0.3-4.7l-25.7,1.8L223.4,645.2z M259.4,642.6l5.6-0.4l-1.3-18.9l8.3-0.6c0.3,0,0.6,0,0.9-0.1l12,18.1l6.4-0.4
		l-12.5-18.9c6.5-2.1,9.9-6.6,9.5-12.9c-0.6-8.3-7.3-12.5-18.1-11.7l-13.9,1L259.4,642.6z M271.2,601.5c6.9-0.5,10.7,2.1,11.1,7.5
		s-3,8.5-9.9,9l-8.9,0.6l-1.2-16.5L271.2,601.5z"/>
	<g>
		<path class="st2" d="M229,636c3.8-0.3,6.6-2.6,6.4-6.4c-0.2-3.2-2.7-4.4-5.6-4.7v-0.1c2.6-0.6,4.7-2.4,4.5-5
			c-0.2-3.5-3.1-5.3-7-5.1c-3.2,0.2-5.9,2.4-6.1,6.4l2.5-0.2c0.1-2.5,1.2-4.1,3.9-4.3c2.5-0.2,3.9,1.2,4,3.1c0.2,3-1.6,4-5.7,4.4
			l0.1,2c4.3-0.2,6.4,0.7,6.6,3.9c0.2,2.2-1.3,3.8-3.6,4c-3.4,0.2-4.6-1.8-5-4.2l-2.5,0.2C222.4,634.2,225.4,636.3,229,636z
			 M253.9,627.9l-0.1-2l-3,0.2l-0.9-12.6l-5.1,0.4l-7.1,13.5l0.1,1.7l10.6-0.7l0.4,6l2.5-0.2l-0.4-6L253.9,627.9z M240.5,626.9
			l6.9-13.1l0.9,12.5L240.5,626.9z M260.4,624.2c3-0.2,4.6-3,4.3-6.2c-0.2-3.2-2.1-5.7-5.2-5.5c-3,0.2-4.5,2.9-4.3,6.2
			C255.5,621.9,257.3,624.4,260.4,624.2z M264.2,633.3l9.1-21.4l-2.2,0.2l-9.1,21.4L264.2,633.3z M260.3,622.7
			c-1.7,0.1-2.7-1.6-2.9-4.2c-0.2-2.6,0.6-4.4,2.3-4.6c1.7-0.1,2.8,1.6,2.9,4.2C262.8,620.8,262,622.6,260.3,622.7z M275.7,632.7
			c3-0.2,4.6-3,4.3-6.2c-0.2-3.2-2.1-5.7-5.2-5.5s-4.5,2.9-4.3,6.2C270.8,630.4,272.6,633,275.7,632.7z M275.6,631.3
			c-1.7,0.1-2.7-1.6-2.9-4.2c-0.2-2.6,0.6-4.4,2.3-4.6c1.7-0.1,2.8,1.6,2.9,4.2C278.1,629.3,277.3,631.2,275.6,631.3z"/>
		<path class="st2" d="M85.3,639c-0.3-4.5-3.8-6.7-7.5-6.5c-2.6,0.2-4.4,1.8-5.1,4h-0.1c-0.4-5.8,1.1-9,4.4-9.2
			c2.6-0.2,4.1,1.2,4.6,3.7l2.5-0.2c-0.7-3.4-3.1-5.8-7.2-5.5c-5.1,0.4-7.5,5.1-7,11.7c0.4,5.7,3.2,10,8.5,9.6
			C82,646.4,85.6,643.6,85.3,639z M73,639.8c-0.2-2.8,1.5-5,4.4-5.2s5,1.8,5.2,4.6c0.2,2.9-1.6,5.2-4.5,5.4
			C75.4,644.8,73.2,642.7,73,639.8z M103.7,637.7c-0.3-4.5-3.8-6.7-7.5-6.5c-2.6,0.2-4.4,1.8-5.1,4H91c-0.4-5.8,1.1-9,4.4-9.2
			c2.6-0.2,4.1,1.2,4.6,3.7l2.5-0.2c-0.7-3.4-3.1-5.8-7.2-5.5c-5.1,0.4-7.5,5.1-7,11.7c0.4,5.7,3.2,10,8.5,9.6
			C100.4,645.1,104,642.3,103.7,637.7z M91.4,638.5c-0.2-2.8,1.5-5,4.4-5.2s5,1.8,5.2,4.6c0.2,2.9-1.6,5.2-4.5,5.4
			C93.8,643.5,91.6,641.4,91.4,638.5z M110.8,634.7c3.1-0.2,4.6-3,4.3-6.2c-0.2-3.2-2.1-5.7-5.2-5.5s-4.5,2.9-4.3,6.2
			C105.9,632.4,107.7,634.9,110.8,634.7z M114.6,643.8l9.1-21.4l-2.2,0.2l-9.1,21.4L114.6,643.8z M110.7,633.2
			c-1.7,0.1-2.7-1.6-2.9-4.2c-0.2-2.6,0.6-4.4,2.3-4.6c1.7-0.1,2.8,1.6,2.9,4.2C113.2,631.3,112.4,633.1,110.7,633.2z M126.1,643.3
			c3.1-0.2,4.6-3,4.3-6.2c-0.2-3.2-2.1-5.7-5.2-5.5c-3.1,0.2-4.5,2.9-4.3,6.2C121.2,641,123,643.5,126.1,643.3z M126,641.8
			c-1.7,0.1-2.7-1.6-2.9-4.2c-0.2-2.6,0.6-4.4,2.3-4.6c1.7-0.1,2.8,1.6,2.9,4.2C128.5,639.8,127.7,641.7,126,641.8z"/>
	</g>
</g>
<g id="_x32_">
	<g>
		
			<rect x="341.8" y="565.7" transform="matrix(7.513180e-02 -0.9972 0.9972 7.513180e-02 -263.6972 948.2613)" class="st0" width="75" height="101.1"/>
		
			<rect x="499.3" y="520.8" transform="matrix(7.513180e-02 -0.9972 0.9972 7.513180e-02 -129.9752 1116.3176)" class="st1" width="75" height="214.9"/>
	</g>
	<path class="st2" d="M336.2,613.1c-1,13.5,6.8,23.7,18.9,24.6c10.2,0.8,18.2-5.1,20.8-15l-5.8-0.4c-2.1,7.4-7.4,11.3-14.2,10.8
		c-9-0.7-14.6-8.4-13.7-19.5c0.8-10.7,7.2-17.9,16-17.2c7,0.5,11.6,5.3,12.5,12.9l5.8,0.4c-1.1-10.1-8-17.3-18.2-18.1
		C346.2,590.7,337.2,600.3,336.2,613.1z M413.5,596.5l-1.5,19.6l-21.3-1.6l1.5-19.6l-5.6-0.4l-3.4,44.7l5.6,0.4l1.5-20.5l21.3,1.6
		l-1.5,20.5l5.6,0.4l3.4-44.7L413.5,596.5z M433.3,642.9l3.4-44.7l-5.6-0.4l-3.4,44.7L433.3,642.9z M471.8,641.1l-20.4-1.5l3-40.1
		l-5.6-0.4l-3.4,44.7l26,2L471.8,641.1z M478.3,646.3l12.9,1c14.3,1.1,23.5-7.5,24.5-20.6c1-13.2-6.9-23-21.1-24.1l-12.9-1
		L478.3,646.3z M493.5,607.2c11,0.8,17,7.5,16.1,19s-7.8,17.2-18.8,16.4l-6.7-0.5l2.7-35.4L493.5,607.2z M523.3,649.7l5.6,0.4
		l1.4-18.9l8.3,0.6c0.3,0,0.6,0,0.9,0.1l9.3,19.7l6.4,0.5l-9.7-20.5c6.7-1.1,10.8-5.1,11.2-11.4c0.6-8.3-5.4-13.4-16.2-14.2l-13.9-1
		L523.3,649.7z M540.9,610.7c6.9,0.5,10.3,3.6,9.9,9s-4.2,8-11.1,7.5l-8.9-0.7L532,610L540.9,610.7z M564.2,652.8l26.2,2l0.4-4.7
		l-20.7-1.6l1.2-15.9l19.6,1.5l0.3-4.7l-19.6-1.5l1.1-14.8l20.2,1.5l0.4-4.7l-25.7-1.9L564.2,652.8z M638.5,613.4l-5.6-0.4
		l-3.3,44.5L615,611.7l-11.5-0.9l-3.4,44.7l5.6,0.4l3.3-44.5l14.6,45.8l11.5,0.9L638.5,613.4z"/>
	<g>
		<path class="st2" d="M521.9,631.8c0.3-4.5-2.8-7.2-6.5-7.5c-2.6-0.2-4.6,1.1-5.7,3.2h-0.1c0.4-5.8,2.4-8.7,5.7-8.5
			c2.6,0.2,3.9,1.8,4,4.3l2.5,0.2c-0.2-3.5-2.2-6.2-6.3-6.5c-5.1-0.4-8.2,4-8.7,10.5c-0.4,5.7,1.7,10.3,7,10.7
			C517.6,638.5,521.6,636.3,521.9,631.8z M509.6,630.7c0.2-2.8,2.2-4.7,5.1-4.5c2.9,0.2,4.7,2.5,4.5,5.3c-0.2,2.9-2.4,4.9-5.3,4.7
			C511.3,636.1,509.4,633.7,509.6,630.7z M532.1,639.6c3.9,0.3,7.8-1.6,8.1-5.4c0.2-3.1-2.4-5.1-4.2-5.6v-0.1c1.8-0.5,4-1.6,4.2-4.3
			c0.2-3.1-2.5-5.5-6.5-5.8c-3.9-0.3-7,1.8-7.3,4.8c-0.2,2.7,1.9,4.1,3.5,4.9v0.1c-1.9,0.3-4.8,1.8-5,4.9
			C524.6,636.9,528.2,639.3,532.1,639.6z M533,627.3c-2.4-0.2-4.1-2-3.9-3.8c0.1-1.9,1.8-3.3,4.4-3.1c2.7,0.2,4.1,1.9,3.9,3.7
			C537.4,626,535.5,627.5,533,627.3z M532.3,637.7c-2.8-0.2-4.8-2.2-4.7-4.6c0.2-2.4,2.4-3.9,5.3-3.7c2.8,0.2,4.8,2,4.7,4.4
			C537.4,636.2,535.1,637.9,532.3,637.7z M547.7,631.2c3.1,0.2,5-2.3,5.2-5.5s-1.3-6-4.3-6.2c-3.1-0.2-4.9,2.2-5.2,5.5
			C543.2,628.2,544.7,631,547.7,631.2z M550.2,640.7l12.1-19.8l-2.2-0.2l-12,19.9L550.2,640.7z M547.8,629.7c-1.7-0.1-2.5-2-2.3-4.6
			s1.2-4.3,2.9-4.2s2.5,2,2.3,4.6C550.6,628.2,549.6,629.9,547.8,629.7z M561.6,641.9c3,0.2,4.9-2.3,5.2-5.5c0.2-3.2-1.3-6-4.3-6.2
			c-3.1-0.2-4.9,2.2-5.2,5.5C557.1,638.9,558.6,641.6,561.6,641.9z M561.7,640.4c-1.7-0.1-2.5-2-2.3-4.6s1.2-4.3,2.9-4.2
			s2.5,2,2.3,4.6C564.5,638.8,563.5,640.5,561.7,640.4z"/>
		<path class="st2" d="M359,626.6c3.8,0.3,6.9-1.6,7.2-5.4c0.2-3.2-2.1-4.8-4.8-5.4v-0.1c2.7-0.2,5-1.7,5.2-4.3
			c0.3-3.5-2.3-5.7-6.2-6c-3.2-0.2-6.2,1.5-6.9,5.5l2.5,0.2c0.4-2.5,1.8-3.9,4.5-3.7c2.5,0.2,3.7,1.7,3.5,3.6
			c-0.2,3-2.1,3.7-6.2,3.5l-0.2,2c4.2,0.4,6.3,1.6,6,4.8c-0.2,2.2-1.9,3.6-4.1,3.4c-3.4-0.3-4.3-2.5-4.4-4.9l-2.5-0.2
			C352.6,623.8,355.4,626.3,359,626.6z M382.7,628.1l0.2-2l-10.4-0.8l6-5.3c3.3-2.9,5-4.4,5.2-7c0.2-3-2.1-6.1-6.4-6.4
			c-3.5-0.3-6.8,1.9-7.2,6.4l2.5,0.2c0.2-3.1,1.9-4.8,4.6-4.6c3,0.2,4.1,2.5,3.9,4.5c-0.1,1.8-1,2.5-3.3,4.6l-8.8,7.7l-0.1,1.7
			L382.7,628.1z M390.6,619.3c3.1,0.2,5-2.3,5.2-5.5s-1.3-6-4.3-6.2s-4.9,2.2-5.2,5.5S387.5,619.1,390.6,619.3z M393,628.9l12-19.9
			l-2.2-0.2l-12.1,19.8L393,628.9z M390.7,617.9c-1.7-0.1-2.5-2-2.3-4.6s1.2-4.3,2.9-4.2c1.7,0.1,2.5,2,2.3,4.6
			S392.4,618,390.7,617.9z M404.5,630c3.1,0.2,5-2.3,5.2-5.5s-1.3-6-4.3-6.2s-4.9,2.2-5.2,5.5C399.9,627,401.4,629.8,404.5,630z
			 M404.6,628.6c-1.7-0.1-2.5-2-2.3-4.6s1.2-4.3,2.9-4.2c1.7,0.1,2.5,2,2.3,4.6C407.4,627,406.3,628.7,404.6,628.6z"/>
	</g>
</g>
<g id="_x33_">
	<g>
		
			<rect x="237.3" y="483.9" transform="matrix(4.722469e-02 -0.9989 0.9989 4.722469e-02 -273.4841 783.1443)" class="st0" width="73" height="102"/>
		
			<rect x="391.6" y="438.8" transform="matrix(4.722469e-02 -0.9989 0.9989 4.722469e-02 -133.7793 944.3372)" class="st1" width="73" height="207"/>
	</g>
	<path class="st2" d="M251.7,556.2l-9.5-45.1l-11.2-0.5l-2.1,44.8l5.6,0.3l2.1-44.5l9.4,45.1l11.6,0.5l13.6-44l-2.1,44.5l5.6,0.3
		l2.1-44.8l-11.2-0.5L251.7,556.2z M281.2,557.8l5.9,0.3l5.2-13.3l20.9,1l3.9,13.7l5.9,0.3l-13-45.5l-11.6-0.5L281.2,557.8z
		 M304.2,514.3l7.7,26.8l-17.8-0.8L304.2,514.3z M366.9,517l-5.6-0.3l-2.1,44.5l-15.9-45.4l-11.5-0.5l-2.1,44.8l5.6,0.3l2.1-44.5
		l15.9,45.4l11.5,0.5L366.9,517z M376.8,562.4l12.9,0.6c14.3,0.7,23.3-8.1,23.9-21.3s-7.5-22.8-21.8-23.5l-12.9-0.6L376.8,562.4z
		 M391,522.8c11,0.5,17.2,7.1,16.6,18.6s-7.3,17.4-18.3,16.9l-6.7-0.3l1.7-35.5L391,522.8z M415.9,564.2l5.9,0.3l5.2-13.3l20.9,1
		l3.9,13.7l5.9,0.3l-13-45.5l-11.6-0.6L415.9,564.2z M438.9,520.7l7.7,26.8l-17.8-0.8L438.9,520.7z M457.2,525.9l15.1,0.7l-1.9,40.1
		l5.6,0.3l1.9-40.1l15.1,0.7l0.2-4.7l-35.7-1.7L457.2,525.9z M497.8,568.1l26.3,1.2l0.2-4.7l-20.7-1l0.8-16l19.6,0.9l0.2-4.7
		l-19.6-0.9l0.7-14.8l20.2,1l0.2-4.7l-25.8-1.2L497.8,568.1z"/>
	<g>
		<path class="st2" d="M251.8,546.3c3.8,0.2,6.9-1.8,7.1-5.6c0.1-3.2-2.2-4.7-5-5.3v-0.1c2.7-0.3,4.9-1.9,5-4.5
			c0.2-3.5-2.5-5.7-6.4-5.8c-3.2-0.1-6.2,1.7-6.8,5.7l2.5,0.1c0.4-2.5,1.7-3.9,4.4-3.8c2.5,0.1,3.7,1.6,3.6,3.5
			c-0.1,3-2,3.8-6.1,3.7l-0.1,2c4.3,0.3,6.3,1.4,6.2,4.6c-0.1,2.2-1.8,3.6-4,3.5c-3.4-0.2-4.3-2.3-4.5-4.8l-2.5-0.1
			C245.3,543.7,248.1,546.1,251.8,546.3z M268.7,547c3.8,0.2,6.9-1.8,7.1-5.6c0.1-3.2-2.2-4.7-5-5.3V536c2.7-0.3,4.9-1.9,5-4.5
			c0.2-3.5-2.5-5.7-6.4-5.8c-3.2-0.1-6.2,1.7-6.8,5.7l2.5,0.1c0.4-2.5,1.7-3.9,4.4-3.8c2.5,0.1,3.7,1.6,3.6,3.5
			c-0.1,3-2,3.8-6.1,3.7l-0.1,2c4.3,0.3,6.3,1.4,6.2,4.6c-0.1,2.2-1.8,3.6-4,3.5c-3.4-0.2-4.3-2.3-4.5-4.8l-2.5-0.1
			C262.2,544.5,265,546.9,268.7,547z M283.3,538.1c3.1,0.1,4.9-2.4,5-5.6c0.1-3.2-1.4-5.9-4.5-6.1c-3.1-0.1-4.9,2.4-5,5.6
			C278.6,535.2,280.2,537.9,283.3,538.1z M286,547.5l11.5-20.2l-2.2-0.1l-11.5,20.2L286,547.5z M283.3,536.6
			c-1.7-0.1-2.5-1.9-2.4-4.5s1.1-4.3,2.8-4.3c1.7,0.1,2.6,1.9,2.4,4.5C286,535,285.1,536.7,283.3,536.6z M297.5,548.3
			c3.1,0.1,4.9-2.4,5-5.6c0.1-3.2-1.4-5.9-4.5-6.1s-4.9,2.4-5,5.6C292.9,545.5,294.4,548.2,297.5,548.3z M297.5,546.9
			c-1.7-0.1-2.5-1.9-2.4-4.5s1.1-4.3,2.8-4.3c1.7,0.1,2.6,1.9,2.4,4.5C300.3,545.2,299.3,547,297.5,546.9z"/>
		<path class="st2" d="M415.4,546.6c0.2-4.6-3-7.1-6.7-7.3c-2.6-0.1-4.6,1.3-5.6,3.4H403c0.3-5.8,2.1-8.8,5.5-8.6
			c2.6,0.1,4,1.7,4.1,4.2l2.5,0.1c-0.3-3.5-2.4-6.1-6.5-6.3c-5.1-0.2-8,4.2-8.3,10.8c-0.3,5.8,2,10.3,7.3,10.5
			C411.3,553.5,415.2,551.2,415.4,546.6z M403.1,545.9c0.1-2.8,2.1-4.8,5-4.6c2.9,0.1,4.8,2.3,4.6,5.2c-0.1,2.9-2.2,5-5.1,4.9
			C404.9,551.2,402.9,548.9,403.1,545.9z M421.5,553.7l9.8-18.6l0.1-1.7l-13.3-0.6l-0.1,2l10.6,0.5l-9.6,18.3L421.5,553.7z
			 M437.1,545.1c3.1,0.1,4.9-2.4,5-5.6c0.1-3.2-1.4-5.9-4.5-6.1c-3.1-0.1-4.9,2.4-5,5.6S434,544.9,437.1,545.1z M439.8,554.5
			l11.5-20.2l-2.2-0.1l-11.5,20.2L439.8,554.5z M437.2,543.6c-1.7-0.1-2.5-1.9-2.4-4.5s1.1-4.3,2.8-4.3c1.7,0.1,2.6,1.9,2.4,4.5
			S438.9,543.7,437.2,543.6z M451.3,555.3c3.1,0.1,4.9-2.4,5-5.6c0.1-3.2-1.4-5.9-4.5-6.1c-3.1-0.1-4.9,2.4-5,5.6
			C446.7,552.5,448.3,555.2,451.3,555.3z M451.4,553.9c-1.7-0.1-2.5-1.9-2.4-4.5s1.1-4.3,2.8-4.3s2.6,1.9,2.4,4.5
			S453.1,553.9,451.4,553.9z"/>
	</g>
</g>
<g id="_x34_">
	<g>
		
			<rect x="61" y="487.4" transform="matrix(0.7822 -0.623 0.623 0.7822 -297.8934 195.6033)" class="st0" width="139.7" height="73"/>
		
			<rect x="175.1" y="416.4" transform="matrix(0.7822 -0.623 0.623 0.7822 -234.2391 235.7598)" class="st1" width="90" height="73"/>
	</g>
	<path class="st2" d="M95.8,580.6l4.4-3.5l-12.6-15.9l17.4-13.8l-2.9-3.7l-17.4,13.9l-9.5-11.9l17.7-14.1l-2.9-3.7l-22.1,17.6
		L95.8,580.6z M119.4,561.9l4.6-3.7l-4.9-13.4l16.4-13l12,7.7l4.6-3.7l-39.7-25.7l-9,7.2L119.4,561.9z M108,513.9l23.4,15.1
		l-13.9,11.1L108,513.9z M175.1,517.2l-36.9-27.6l-8.8,7l27.9,35.1l4.4-3.5l-27.8-34.9l36.8,27.7l9.1-7.2l-18.8-42l27.8,34.9
		l4.4-3.5l-27.9-35.1l-8.8,7L175.1,517.2z M207,492.1L179.1,457l-4.4,3.5l27.9,35.1L207,492.1z M234,464.6l-16,12.8L193,446
		l-4.4,3.5l27.9,35.1l20.4-16.2L234,464.6z M238.3,441.8l-2.5-29.9l-4.9,3.9l1.9,23.6l-22.6-7.2l-4.9,3.9l28.6,9.1l12.4,15.6
		l4.4-3.5L238.3,441.8z"/>
	<g>
		<path class="st2" d="M120.5,537c-2.8-3.6-7-3.4-9.8-1.2c-2.1,1.6-2.6,3.9-2,6.2l0,0c-3.6-4.5-4.2-8-1.5-10.1
			c2.1-1.6,4.1-1.4,5.9,0.5l2-1.5c-2.5-2.5-5.8-3.1-9.1-0.5c-4,3.1-3.3,8.4,0.7,13.6c3.6,4.5,8.3,6.4,12.4,3.2
			C121.9,544.9,123.3,540.6,120.5,537z M110.8,544.5c-1.7-2.2-1.5-5,0.7-6.8c2.3-1.8,5.1-1.4,6.9,0.9s1.6,5.2-0.7,7
			C115.6,547.4,112.6,546.9,110.8,544.5z M135.2,531.5l-3.4,2.7l-11.6-14.7l-1.6,1.2l0.1,0.2c0.9,1.5,1.2,2.8-1.3,4.7l-1.2,0.9
			l1.2,1.6l3.9-3.1l8.4,10.6l-3.9,3.1l1.2,1.6l9.2-7.3L135.2,531.5z M135.5,522c2.4-1.9,2.1-5,0.1-7.5s-5-3.5-7.4-1.6
			c-2.4,1.9-2.1,5-0.1,7.5C130.2,522.8,133.1,523.8,135.5,522z M143.8,527.3l-4.6-22.8l-1.7,1.3l4.6,22.8L143.8,527.3z M134.6,520.8
			c-1.4,1.1-3.1,0.2-4.8-1.8s-2-4-0.7-5.1c1.4-1.1,3.2-0.2,4.8,1.8S136,519.7,134.6,520.8z M153,520.4c2.4-1.9,2.1-5,0.1-7.5
			s-5-3.5-7.4-1.6s-2.1,5-0.1,7.5C147.6,521.3,150.6,522.3,153,520.4z M152.1,519.3c-1.4,1.1-3.1,0.2-4.8-1.8s-2-4-0.7-5.1
			c1.4-1.1,3.2-0.2,4.8,1.8C153,516.2,153.4,518.2,152.1,519.3z"/>
		<path class="st2" d="M206.6,478.1c3-2.4,4-5.9,1.7-8.9c-2-2.5-4.7-2.1-7.2-0.7l0,0c1.8-2,2.5-4.6,0.9-6.7
			c-2.2-2.8-5.6-2.7-8.7-0.2c-2.5,2-3.6,5.3-1.4,8.7l2-1.5c-1.4-2.1-1.3-4.1,0.8-5.8c2-1.5,3.9-1.2,5,0.3c1.8,2.3,0.9,4.2-2.2,6.8
			l1.2,1.6c3.4-2.5,5.7-3.1,7.7-0.5c1.4,1.8,1,3.9-0.8,5.3c-2.7,2.1-4.8,1.1-6.5-0.6l-2,1.5C200,480.4,203.7,480.4,206.6,478.1z
			 M205.7,460.7c2.8,3.6,7,3.4,9.8,1.2c2.1-1.6,2.6-3.9,2-6.2l0,0c3.6,4.5,4.2,8,1.5,10.1c-2.1,1.6-4.1,1.4-5.9-0.5l-2,1.5
			c2.5,2.5,5.8,3.1,9.1,0.5c4-3.1,3.3-8.4-0.7-13.6c-3.6-4.5-8.3-6.4-12.4-3.2C204.2,452.8,202.8,457.2,205.7,460.7z M215.4,453.2
			c1.7,2.2,1.5,5-0.7,6.8c-2.3,1.8-5.1,1.4-6.9-0.9s-1.6-5.2,0.7-7C210.6,450.4,213.6,450.9,215.4,453.2z M226.2,450.4
			c2.4-1.9,2.1-5,0.1-7.5s-5-3.5-7.4-1.6s-2.1,5-0.1,7.5C220.9,451.3,223.8,452.3,226.2,450.4z M234.5,455.8l-4.6-22.8l-1.7,1.3
			l4.6,22.8L234.5,455.8z M225.3,449.2c-1.4,1.1-3.1,0.2-4.8-1.8s-2-4-0.7-5.1c1.4-1.1,3.2-0.2,4.8,1.8S226.7,448.2,225.3,449.2z
			 M243.7,448.9c2.4-1.9,2.1-5,0.1-7.5s-5-3.5-7.4-1.6s-2.1,5-0.1,7.5C238.3,449.7,241.3,450.7,243.7,448.9z M242.8,447.7
			c-1.4,1.1-3.1,0.2-4.8-1.8s-2-4-0.7-5.1c1.4-1.1,3.2-0.2,4.8,1.8S244.2,446.6,242.8,447.7z"/>
	</g>
</g>
<g id="_x35_">
	<g>
		
			<rect x="329.7" y="370.8" transform="matrix(0.1944 -0.9809 0.9809 0.1944 -137.3926 714.3898)" class="st0" width="73" height="140"/>
		
			<rect x="464.6" y="400.1" transform="matrix(0.1944 -0.9809 0.9809 0.1944 -55.0058 868.1687)" class="st1" width="73" height="135"/>
	</g>
	<path class="st2" d="M324.3,429.6l-5.7-2.6c-6.9-3.2-8.6-5.4-8-8.7c0.9-4.5,5.3-6.2,11.1-5c6.8,1.3,9.9,6,9.4,11.3l5.7,1.1
		c0.7-7.7-3.5-14.9-14.4-17.1c-8.3-1.6-16.3,1.5-17.7,8.7c-1.2,6.1,2.3,10.9,11.1,14.9l5.7,2.6c5.4,2.5,7.6,5.3,6.7,9.4
		c-0.9,4.7-6,6.6-12.5,5.3c-6.7-1.3-10.7-7.6-9.8-13.9l-5.7-1.1c-1.1,8.5,3.3,17.4,14.9,19.7c10.4,2.1,17.8-2.1,19.1-8.7
		C335.7,437.9,332.1,433.2,324.3,429.6z M342.4,436.1c-2.6,13.3,3.9,24.3,15.8,26.7c10.1,2,18.7-2.9,22.5-12.4l-5.7-1.1
		c-2.9,7.1-8.7,10.3-15.4,9c-8.9-1.8-13.4-10.1-11.3-21c2.1-10.5,9.3-16.9,17.9-15.2c6.9,1.4,10.9,6.7,10.9,14.3l5.7,1.1
		c0.2-10.2-5.8-18.1-15.9-20.1C355,415.1,344.9,423.6,342.4,436.1z M391.5,468.7l8.7-44l-5.5-1.1l-8.7,44L391.5,468.7z M403.4,471.1
		l25.8,5.1l0.9-4.6l-20.3-4l3.1-15.7l19.2,3.8l0.9-4.6l-19.2-3.8l2.9-14.5l19.8,3.9l0.9-4.6l-25.3-5L403.4,471.1z M482,440.9
		l-5.5-1.1l-8.7,43.7l-9-47.2l-11.3-2.2l-8.7,44l5.5,1.1l8.7-43.7l9,47.2l11.3,2.2L482,440.9z M486.8,464.8
		c-2.6,13.3,3.9,24.3,15.8,26.7c10.1,2,18.7-2.9,22.5-12.4l-5.7-1.1c-2.9,7.1-8.7,10.3-15.4,9c-8.9-1.8-13.4-10.1-11.3-21
		c2.1-10.5,9.3-16.9,17.9-15.2c6.9,1.4,10.9,6.7,10.9,14.3l5.7,1.1c0.2-10.2-5.8-18.1-15.9-20.1
		C499.4,443.7,489.3,452.2,486.8,464.8z M530.4,496.3l25.8,5.1l0.9-4.6l-20.3-4l3.1-15.7l19.2,3.8l0.9-4.6l-19.2-3.8l2.9-14.5
		l19.8,3.9l0.9-4.6l-25.3-5L530.4,496.3z"/>
	<g>
		<path class="st2" d="M350.5,441.4c-0.7,3.4-3,4.7-5.5,4.2c-3.1-0.6-3.9-3.2-3.8-5.5l-2.4-0.5c-0.4,4.1,1.8,7.1,5.7,7.9
			c4.3,0.9,7.8-1.1,8.7-5.6c0.9-4.6-1.8-7.8-5.2-8.4c-2.3-0.5-4.1,0.3-5.3,1.9h-0.1l1.5-7.3l10.2,2.1l0.4-1.9l-12.6-2.5l-2.2,10.9
			l2.4,0.5c1.1-1.7,2.7-2.1,4.5-1.7C349,435.7,351.2,437.7,350.5,441.4z M366.5,449.7l-4.2-0.9l3.7-18.4l-1.9-0.4l-0.1,0.2
			c-0.5,1.7-1.4,2.7-4.4,2.1l-1.5-0.3l-0.4,1.9l4.9,1l-2.7,13.3l-4.9-1l-0.4,1.9l11.5,2.3L366.5,449.7z M374,443.7
			c3,0.6,5.2-1.6,5.8-4.8c0.6-3.2-0.5-6.1-3.5-6.7s-5.2,1.6-5.8,4.8C369.9,440.2,371,443.1,374,443.7z M375.3,453.5l14.4-18.2
			l-2.1-0.4l-14.4,18.2L375.3,453.5z M374.3,442.3c-1.7-0.3-2.2-2.3-1.7-4.8c0.5-2.6,1.7-4.1,3.4-3.8c1.7,0.3,2.2,2.3,1.7,4.8
			C377.3,441.1,376,442.6,374.3,442.3z M386.5,456c3,0.6,5.2-1.6,5.8-4.8c0.6-3.2-0.5-6.1-3.5-6.7s-5.2,1.6-5.8,4.8
			C382.4,452.5,383.5,455.4,386.5,456z M386.8,454.6c-1.7-0.3-2.2-2.3-1.7-4.8c0.5-2.6,1.7-4.1,3.4-3.8c1.7,0.3,2.2,2.3,1.7,4.8
			S388.5,454.9,386.8,454.6z"/>
		<path class="st2" d="M486.4,469.7l0.4-1.9l-2.9-0.6l2.5-12.4l-5-1L471,464.9l-0.3,1.6l10.4,2.1l-1.2,5.9l2.4,0.5l1.2-5.9
			L486.4,469.7z M473.8,465.1l10.1-10.8l-2.5,12.3L473.8,465.1z M490.5,462.5c-0.9,4.5,1.9,7.5,5.5,8.2c2.6,0.5,4.7-0.6,6-2.5h0.1
			c-1.1,5.7-3.4,8.4-6.7,7.7c-2.6-0.5-3.7-2.2-3.4-4.8l-2.4-0.5c-0.3,3.5,1.4,6.4,5.5,7.2c5,1,8.6-2.9,9.9-9.4
			c1.1-5.6-0.4-10.5-5.6-11.5C495.6,456.3,491.4,458,490.5,462.5z M502.6,465c-0.5,2.7-2.8,4.4-5.6,3.8s-4.3-3-3.8-5.8s3-4.6,5.8-4
			C501.6,459.5,503.2,462.1,502.6,465z M511.7,471.5c3,0.6,5.2-1.6,5.8-4.8c0.6-3.2-0.5-6.1-3.5-6.7s-5.2,1.6-5.8,4.8
			C507.6,467.9,508.7,470.9,511.7,471.5z M513,481.2l14.4-18.2l-2.1-0.4l-14.4,18.2L513,481.2z M512,470c-1.7-0.3-2.2-2.3-1.7-4.8
			c0.5-2.6,1.7-4.1,3.4-3.8c1.7,0.3,2.2,2.3,1.7,4.8S513.7,470.4,512,470z M524.2,483.8c3,0.6,5.2-1.6,5.8-4.8
			c0.6-3.2-0.5-6.1-3.5-6.7s-5.2,1.6-5.8,4.8C520.1,480.2,521.2,483.2,524.2,483.8z M524.5,482.3c-1.7-0.3-2.2-2.3-1.7-4.8
			s1.7-4.1,3.4-3.8c1.7,0.3,2.2,2.3,1.7,4.8C527.5,481.1,526.2,482.7,524.5,482.3z"/>
	</g>
</g>
<g id="_x36_">
	<g>
		
			<rect x="274.5" y="281.2" transform="matrix(2.138762e-02 -0.9998 0.9998 2.138762e-02 -51.8638 659.6743)" class="st0" width="73" height="150.2"/>
		
			<rect x="410.9" y="297.9" transform="matrix(2.138762e-02 -0.9998 0.9998 2.138762e-02 78.5585 798.9055)" class="st1" width="73" height="122.8"/>
	</g>
	<path class="st2" d="M266.5,352.6l-6-1.6c-7.4-1.9-9.4-3.8-9.3-7.2c0.1-4.5,4.2-7,10-6.9c6.9,0.1,10.8,4.2,11.2,9.5l5.8,0.1
		c-0.6-7.7-6.1-14.1-17.2-14.3c-8.5-0.2-15.8,4.3-15.9,11.7c-0.1,6.2,4.2,10.3,13.5,12.7l6,1.6c5.8,1.5,8.4,4,8.3,8.1
		c-0.1,4.7-4.8,7.6-11.4,7.4c-6.8-0.1-11.8-5.6-12.1-12l-5.8-0.1c0.4,8.5,6.3,16.6,18,16.8c10.7,0.2,17.2-5.2,17.4-11.9
		C279.2,358.7,274.8,354.7,266.5,352.6z M285.4,355.9c-0.3,13.6,8.1,23.3,20.2,23.5c10.3,0.2,17.9-6.1,20-16.1l-5.8-0.1
		c-1.7,7.5-6.8,11.7-13.6,11.5c-9-0.2-15-7.6-14.7-18.7c0.2-10.7,6.2-18.3,15-18.1c7,0.1,11.9,4.7,13.2,12.2l5.8,0.1
		c-1.6-10-8.9-16.8-19.1-17.1C294.3,333,285.7,343.1,285.4,355.9z M361.8,335.1l-0.4,19.6l-21.3-0.5l0.4-19.6l-5.6-0.1l-1,44.8
		l5.6,0.1l0.4-20.5l21.3,0.5l-0.4,20.5l5.6,0.1l0.9-44.8L361.8,335.1z M396.6,381.3c12.4,0.3,21.1-9.8,21.4-22.6s-8-23.3-20.4-23.5
		c-12.4-0.3-21.1,9.8-21.4,22.6C375.9,370.6,384.2,381.1,396.6,381.3z M396.7,376.6c-8.9-0.2-14.7-8-14.5-18.7s6.4-18.3,15.3-18.1
		s14.7,8,14.5,18.7C411.7,369.3,405.6,376.8,396.7,376.6z M444.9,382.4c12.4,0.3,21.1-9.8,21.4-22.6s-8-23.3-20.4-23.5
		c-12.4-0.3-21.2,9.8-21.4,22.6C424.2,371.6,432.5,382.1,444.9,382.4z M445,377.7c-8.9-0.2-14.7-8-14.5-18.7s6.4-18.3,15.3-18.1
		s14.7,8,14.5,18.7C460.1,370.3,453.9,377.9,445,377.7z M501.3,378.2l-20.5-0.4l0.9-40.2l-5.6-0.1l-1,44.8l26.1,0.6L501.3,378.2z"/>
	<g>
		<path class="st2" d="M438.7,362.3l0.1-2l-3-0.1l0.4-12.7l-5.1-0.1l-8.4,12.7v1.7l10.6,0.3l-0.2,6.1l2.5,0.1l0.2-6.1L438.7,362.3z
			 M425.5,360l8.1-12.3l-0.4,12.5L425.5,360z M453.3,361.9c-0.1,3.4-2.2,5.2-4.7,5.1c-3.2-0.1-4.4-2.5-4.6-4.8l-2.5-0.1
			c0.3,4.1,3,6.7,7,6.8c4.4,0.1,7.5-2.4,7.6-7c0.1-4.7-3.1-7.3-6.5-7.4c-2.3-0.1-4,1-4.9,2.8h-0.1l0.2-7.5l10.4,0.3l0.1-2l-12.9-0.4
			l-0.3,11.1l2.5,0.1c0.8-1.8,2.3-2.5,4.1-2.4C450.9,356.5,453.4,358.1,453.3,361.9z M463.1,359.8c3.1,0.1,4.8-2.5,4.9-5.7
			s-1.5-5.9-4.6-6s-4.8,2.5-4.9,5.7C458.5,357,460.1,359.7,463.1,359.8z M466,369.1l11.1-20.4l-2.2-0.1L463.8,369L466,369.1z
			 M463.2,358.3c-1.7,0-2.6-1.8-2.5-4.5c0.1-2.6,1-4.4,2.7-4.3c1.7,0,2.6,1.8,2.5,4.5C465.8,356.6,464.9,358.3,463.2,358.3z
			 M477.5,369.8c3.1,0.1,4.8-2.5,4.9-5.7s-1.5-5.9-4.6-6s-4.8,2.5-4.9,5.7S474.5,369.7,477.5,369.8z M477.6,368.3
			c-1.7,0-2.6-1.8-2.5-4.5c0.1-2.6,1-4.4,2.7-4.3c1.7,0,2.6,1.8,2.5,4.5C480.2,366.6,479.3,368.3,477.6,368.3z"/>
		<path class="st2" d="M299.6,357.5c-0.1,3.4-2.2,5.2-4.7,5.1c-3.2-0.1-4.4-2.5-4.6-4.8l-2.5-0.1c0.3,4.1,3,6.7,7,6.8
			c4.4,0.1,7.5-2.4,7.6-7c0.1-4.7-3.1-7.3-6.5-7.4c-2.3-0.1-4,1-4.9,2.8h-0.1l0.2-7.5l10.4,0.3l0.1-2l-12.9-0.4l-0.3,11.1l2.5,0.1
			c0.8-1.8,2.3-2.5,4.1-2.4C297.3,352.2,299.7,353.8,299.6,357.5z M317.2,358c-0.1,3.4-2.2,5.2-4.7,5.1c-3.2-0.1-4.4-2.5-4.6-4.8
			l-2.5-0.1c0.3,4.1,3,6.7,7,6.8c4.4,0.1,7.5-2.4,7.6-7c0.1-4.7-3.1-7.3-6.5-7.4c-2.3-0.1-4,1-4.9,2.8h-0.1l0.2-7.5l10.4,0.3l0.1-2
			l-12.9-0.4l-0.3,11.1l2.5,0.1c0.8-1.8,2.3-2.5,4.1-2.4C314.8,352.7,317.3,354.3,317.2,358z M327,355.9c3.1,0.1,4.8-2.5,4.9-5.7
			s-1.5-5.9-4.6-6s-4.8,2.5-4.9,5.7C322.3,353.2,324,355.9,327,355.9z M329.9,365.3l11.1-20.4l-2.2-0.1l-11.1,20.4L329.9,365.3z
			 M327.1,354.5c-1.7,0-2.6-1.8-2.5-4.5c0.1-2.6,1-4.4,2.7-4.3c1.7,0,2.6,1.8,2.5,4.5C329.7,352.8,328.8,354.5,327.1,354.5z
			 M341.4,366c3.1,0.1,4.8-2.5,4.9-5.7s-1.5-5.9-4.6-6s-4.8,2.5-4.9,5.7S338.3,365.9,341.4,366z M341.4,364.5
			c-1.7,0-2.6-1.8-2.5-4.5c0.1-2.6,1-4.4,2.7-4.3c1.7,0,2.6,1.8,2.5,4.5C344.1,362.8,343.2,364.5,341.4,364.5z"/>
	</g>
</g>
<g id="_x37_">
	<g>
		
			<rect x="362.9" y="174.4" transform="matrix(0.2074 -0.9783 0.9783 0.2074 58.234 600.0986)" class="st0" width="73" height="179.4"/>
		
			<rect x="509.2" y="235.1" transform="matrix(0.2074 -0.9783 0.9783 0.2074 143.991 767.6039)" class="st1" width="73" height="119.6"/>
	</g>
	<path class="st2" d="M342.3,248.1l-5.6-2.7c-6.9-3.3-8.5-5.5-7.8-8.8c0.9-4.5,5.4-6.1,11.1-4.9c6.7,1.4,9.9,6.1,9.3,11.5l5.7,1.2
		c0.8-7.7-3.3-15-14.2-17.3c-8.3-1.8-16.3,1.3-17.8,8.5c-1.3,6.1,2.2,10.9,10.9,15l5.6,2.7c5.4,2.5,7.5,5.4,6.6,9.5
		c-1,4.6-6.1,6.5-12.6,5.2c-6.7-1.4-10.6-7.7-9.6-14.1l-5.7-1.2c-1.2,8.5,3.1,17.5,14.6,19.9c10.4,2.2,17.9-1.9,19.3-8.5
		C353.7,256.4,350.1,251.7,342.3,248.1z M360.6,236.7l14.8,3.1l-8.3,39.3l5.5,1.2l8.3-39.3l14.8,3.1l1-4.6l-35-7.4L360.6,236.7z
		 M424,273.9c-1.6,7.6-5.8,11.9-13.4,10.3s-9.7-7.2-8.1-14.9l5.8-27.3l-5.5-1.2l-5.6,26.4c-2.7,12.5,2.2,19.4,12.4,21.6
		c10.2,2.2,17.4-2.2,20.1-14.7l5.6-26.4l-5.5-1.2L424,273.9z M437.3,294l12.7,2.7c14,3,24.3-4.3,27-17.2
		c2.7-12.9-3.8-23.7-17.7-26.7l-12.7-2.7L437.3,294z M457.7,257.3c10.8,2.3,15.8,9.7,13.4,21s-10,16-20.8,13.7l-6.5-1.4l7.4-34.7
		L457.7,257.3z M481.5,303.4l25.8,5.5l1-4.6L488,300l3.3-15.6l19.2,4.1l1-4.6l-19.2-4.1l3.1-14.5l19.8,4.2l1-4.6l-25.2-5.4
		L481.5,303.4z M560.5,274.3l-5.5-1.2l-9.2,43.6l-8.4-47.4l-11.3-2.4l-9.3,43.9l5.5,1.2l9.2-43.6l8.4,47.4l11.2,2.4L560.5,274.3z
		 M566.2,280.3l14.8,3.1l-8.3,39.3l5.5,1.2l8.3-39.3l14.8,3.1l1-4.6l-35-7.4L566.2,280.3z"/>
	<g>
		<path class="st2" d="M536,298.7l0.4-1.9l-2.9-0.7l2.8-12.4l-5-1.1l-10.6,10.9l-0.4,1.6l10.4,2.3l-1.3,5.9l2.4,0.5l1.3-5.9
			L536,298.7z M523.4,293.9l10.3-10.5l-2.7,12.2L523.4,293.9z M550.4,301.1c-0.8,3.4-3.1,4.7-5.6,4.1c-3.1-0.7-3.9-3.3-3.6-5.6
			l-2.4-0.5c-0.5,4.1,1.6,7.2,5.5,8c4.3,1,7.8-1,8.8-5.4c1-4.6-1.6-7.8-5-8.6c-2.3-0.5-4.1,0.2-5.4,1.8h-0.1l1.6-7.3l10.2,2.3
			l0.4-1.9l-12.6-2.8l-2.4,10.8l2.4,0.5c1.1-1.7,2.7-2,4.5-1.6C549,295.4,551.2,297.4,550.4,301.1z M560.4,300.9
			c3,0.7,5.2-1.5,5.9-4.7s-0.4-6.1-3.4-6.8c-3-0.7-5.2,1.5-5.9,4.7C556.3,297.3,557.4,300.2,560.4,300.9z M561.4,310.6l14.8-17.9
			l-2.1-0.5l-14.8,17.9L561.4,310.6z M560.7,299.4c-1.7-0.4-2.2-2.3-1.6-4.8s1.8-4.1,3.5-3.7s2.2,2.3,1.6,4.9
			C563.7,298.3,562.4,299.8,560.7,299.4z M572.6,313.4c3,0.7,5.2-1.5,5.9-4.7s-0.4-6.1-3.4-6.8c-3-0.7-5.2,1.5-5.9,4.7
			C568.6,309.8,569.6,312.8,572.6,313.4z M572.9,312c-1.7-0.4-2.2-2.3-1.6-4.8s1.8-4.1,3.5-3.7s2.2,2.3,1.6,4.9
			C575.9,310.9,574.6,312.4,572.9,312z"/>
		<path class="st2" d="M383.2,263.7c-0.8,3.4-3.1,4.7-5.6,4.1c-3.1-0.7-3.9-3.3-3.6-5.6l-2.4-0.5c-0.5,4.1,1.6,7.2,5.5,8
			c4.3,1,7.8-1,8.8-5.4c1-4.6-1.6-7.8-5-8.6c-2.3-0.5-4.1,0.2-5.4,1.8h-0.1l1.6-7.3l10.2,2.3l0.4-1.9l-12.6-2.8l-2.4,10.8l2.4,0.5
			c1.1-1.7,2.7-2,4.5-1.6C381.9,258,384,260,383.2,263.7z M400.3,267.5c-0.8,3.4-3.1,4.7-5.6,4.1c-3.1-0.7-3.9-3.3-3.6-5.6l-2.4-0.5
			c-0.5,4.1,1.6,7.2,5.5,8c4.3,1,7.8-1,8.8-5.4c1-4.6-1.6-7.8-5-8.6c-2.3-0.5-4.1,0.2-5.4,1.8h-0.1l1.6-7.3l10.2,2.3l0.4-1.9
			l-12.6-2.8l-2.4,10.8l2.4,0.5c1.1-1.7,2.7-2,4.5-1.6C399,261.8,401.2,263.8,400.3,267.5z M410.4,267.3c3,0.7,5.2-1.5,5.9-4.7
			c0.7-3.2-0.4-6.1-3.4-6.8c-3-0.7-5.2,1.5-5.9,4.7C406.3,263.7,407.4,266.6,410.4,267.3z M411.4,277.1l14.8-17.9l-2.1-0.5
			l-14.8,17.9L411.4,277.1z M410.7,265.9c-1.7-0.4-2.2-2.3-1.6-4.8s1.8-4.1,3.5-3.7s2.2,2.3,1.6,4.9
			C413.6,264.7,412.4,266.3,410.7,265.9z M422.6,279.9c3,0.7,5.2-1.5,5.9-4.7c0.7-3.2-0.4-6.1-3.4-6.8c-3-0.7-5.2,1.5-5.9,4.7
			C418.5,276.3,419.6,279.2,422.6,279.9z M422.9,278.5c-1.7-0.4-2.2-2.3-1.6-4.8s1.8-4.1,3.5-3.7s2.2,2.3,1.6,4.9
			C425.9,277.3,424.6,278.8,422.9,278.5z"/>
	</g>
</g>
<g id="_x38_">
	<g>
		
			<rect x="360.9" y="117.6" transform="matrix(0.9873 -0.1589 0.1589 0.9873 -18.8988 71.8419)" class="st1" width="157.8" height="73"/>
		
			<rect x="233.5" y="140.4" transform="matrix(0.9873 -0.1589 0.1589 0.9873 -24.322 49.6155)" class="st0" width="129.2" height="73"/>
	</g>
	<path class="st2" d="M238.4,163.8l22.1,41.9l11.4-1.8l7.8-46.7l-5.8,0.9l-7.7,46.4l-21.9-41.6L238.4,163.8z M286.2,201.5l5.8-0.9
		l2.3-14.1l20.7-3.3l6.6,12.6l5.8-0.9L305.3,153l-11.4,1.8L286.2,201.5z M299.8,154.2l13,24.6l-17.6,2.8L299.8,154.2z M327.2,172.2
		c2.2,13.4,12.1,21.4,24.1,19.5c10.1-1.6,16.5-9.2,16.8-19.4l-5.7,0.9c-0.3,7.7-4.6,12.7-11.3,13.8c-8.9,1.4-16.1-4.8-17.9-15.8
		c-1.7-10.6,2.9-19.1,11.5-20.5c6.9-1.1,12.5,2.5,15.2,9.7l5.7-0.9c-3.4-9.6-11.8-15-21.9-13.3C331.7,148.1,325.1,159.6,327.2,172.2
		z M372.8,164.9c2.2,13.4,12.1,21.4,24.1,19.5c10.1-1.6,16.5-9.2,16.8-19.4l-5.7,0.9c-0.3,7.7-4.6,12.7-11.3,13.8
		c-8.9,1.4-16.1-4.8-17.9-15.8c-1.7-10.6,2.9-19.1,11.5-20.5c6.9-1.1,12.5,2.5,15.2,9.7l5.7-0.9c-3.4-9.6-11.8-15-21.9-13.3
		C377.3,140.8,370.8,152.2,372.8,164.9z M430.2,178.4l-7.1-44.3l-5.5,0.9l7.1,44.3L430.2,178.4z M469.7,126.6l-5.5,0.9l7.1,44
		l-24.9-41.2l-11.4,1.8l7.1,44.3l5.5-0.9l-7.1-44l24.9,41.2l11.4-1.8L469.7,126.6z M488.7,168.9l26-4.2l-0.7-4.6l-20.5,3.3
		l-2.5-15.8l19.4-3.1l-0.7-4.6l-19.4,3.1l-2.4-14.6l20-3.2l-0.7-4.6l-25.5,4.1L488.7,168.9z"/>
	<g>
		<path class="st2" d="M421.7,160.8c0.5,3.4-1.2,5.5-3.7,5.9c-3.1,0.5-4.8-1.7-5.4-3.9l-2.5,0.4c1,4,4.1,6.1,8.1,5.5
			c4.3-0.7,6.9-3.7,6.2-8.3c-0.7-4.7-4.4-6.7-7.8-6.1c-2.3,0.4-3.7,1.7-4.3,3.6h-0.1l-1.2-7.4l10.3-1.6l-0.3-2l-12.7,2l1.7,10.9
			l2.5-0.4c0.5-2,1.8-2.9,3.6-3.1C418.4,155.9,421.1,157.1,421.7,160.8z M439,158.1c0.5,3.4-1.2,5.5-3.7,5.9
			c-3.1,0.5-4.8-1.7-5.4-3.9l-2.5,0.4c1,4,4.1,6.1,8.1,5.5c4.3-0.7,6.9-3.7,6.2-8.3c-0.7-4.7-4.4-6.7-7.8-6.1
			c-2.3,0.4-3.7,1.7-4.3,3.6h-0.1l-1.2-7.4l10.3-1.6l-0.3-2l-12.7,2l1.7,10.9l2.5-0.4c0.5-2,1.8-2.9,3.6-3.1
			C435.7,153.2,438.5,154.3,439,158.1z M448.3,154.2c3-0.5,4.3-3.3,3.8-6.5s-2.6-5.5-5.6-5s-4.3,3.3-3.8,6.5
			C443.2,152.3,445.3,154.6,448.3,154.2z M452.9,162.9l7.2-22.1l-2.1,0.3l-7.2,22.1L452.9,162.9z M448.1,152.8
			c-1.7,0.3-2.9-1.3-3.3-3.9s0.2-4.5,1.9-4.7c1.7-0.3,2.9,1.3,3.3,3.9S449.8,152.6,448.1,152.8z M464.3,161.4c3-0.5,4.3-3.3,3.8-6.5
			s-2.6-5.5-5.6-5s-4.3,3.3-3.8,6.5C459.2,159.6,461.3,161.9,464.3,161.4z M464.1,159.9c-1.7,0.3-2.9-1.3-3.3-3.9s0.2-4.5,1.9-4.7
			c1.7-0.3,2.9,1.3,3.3,3.9S465.8,159.8,464.1,159.9z"/>
		<path class="st2" d="M283.5,182.1l-0.3-2l-3,0.5l-2-12.5l-5.1,0.8l-5.9,14l0.3,1.7L278,183l0.9,6l2.5-0.4l-0.9-6L283.5,182.1z
			 M270.1,182.1l5.7-13.6l1.9,12.4L270.1,182.1z M297.8,178.9c0.5,3.4-1.2,5.5-3.7,5.9c-3.1,0.5-4.8-1.7-5.4-3.9l-2.5,0.4
			c1,4,4.1,6.1,8.1,5.5c4.3-0.7,6.9-3.7,6.2-8.3c-0.7-4.7-4.4-6.7-7.8-6.1c-2.3,0.4-3.7,1.7-4.3,3.6h-0.1l-1.2-7.4l10.3-1.6l-0.3-2
			l-12.7,2l1.7,10.9l2.5-0.4c0.5-2,1.8-2.9,3.6-3.1C294.5,174.1,297.2,175.2,297.8,178.9z M307,175.1c3-0.5,4.3-3.3,3.8-6.5
			s-2.6-5.5-5.6-5s-4.3,3.3-3.8,6.5S304,175.6,307,175.1z M311.6,183.8l7.2-22.1l-2.1,0.3l-7.2,22.1L311.6,183.8z M306.8,173.6
			c-1.7,0.3-2.9-1.3-3.3-3.9s0.2-4.5,1.9-4.7c1.7-0.3,2.9,1.3,3.3,3.9C309.1,171.4,308.5,173.3,306.8,173.6z M323,182.3
			c3-0.5,4.3-3.3,3.8-6.5s-2.6-5.5-5.6-5s-4.3,3.3-3.8,6.5C317.9,180.4,320,182.8,323,182.3z M322.8,180.8c-1.7,0.3-2.9-1.3-3.3-3.9
			s0.2-4.5,1.9-4.7c1.7-0.3,2.9,1.3,3.3,3.9C325.1,178.8,324.5,180.6,322.8,180.8z"/>
	</g>
</g>
<g id="_x39_">
	<g>
		
			<rect x="418.1" y="-12.3" transform="matrix(0.1615 -0.9869 0.9869 0.1615 323.2434 497.8942)" class="st0" width="73" height="142"/>
		
			<rect x="533.6" y="31.7" transform="matrix(0.1615 -0.9869 0.9869 0.1615 401.2937 627.7991)" class="st1" width="73" height="92"/>
	</g>
	<path class="st2" d="M421.6,30.8l-3.2,19.4l-21-3.4l3.2-19.4l-5.5-0.9l-7.2,44.3l5.5,0.9l3.3-20.3l21,3.4l-3.3,20.3l5.5,0.9
		l7.2-44.3L421.6,30.8z M431.8,77.9l26,4.3l0.8-4.6l-20.5-3.3l2.6-15.8l19.4,3.2l0.8-4.6l-19.4-3.2l2.4-14.6l20,3.3l0.8-4.6
		l-25.5-4.2L431.8,77.9z M462.1,82.8l5.8,1l6.7-12.6l20.7,3.4l2.3,14.1l5.8,1L495.7,43l-11.4-1.9L462.1,82.8z M490,42.2l4.5,27.5
		l-17.6-2.9L490,42.2z M536.5,90.3L516.3,87l6.5-39.6l-5.5-0.9l-7.2,44.3l25.7,4.2L536.5,90.3z M537.5,54.5l14.9,2.4l-6.5,39.6
		l5.5,0.9l6.5-39.6l14.9,2.4l0.8-4.6l-35.3-5.8L537.5,54.5z M606.9,61.1l-3.2,19.4l-21-3.4l3.2-19.4l-5.5-0.9l-7.2,44.3l5.5,0.9
		l3.3-20.3l21,3.4l-3.3,20.3l5.5,0.9l7.2-44.3L606.9,61.1z"/>
	<g>
		<path class="st2" d="M442.6,59.9c0.8-4.5-2.1-7.5-5.7-8.1c-2.6-0.5-4.7,0.7-5.9,2.6h-0.1c1-5.7,3.2-8.5,6.5-7.9
			c2.6,0.5,3.7,2.1,3.6,4.7l2.5,0.4c0.2-3.5-1.6-6.4-5.7-7.1c-5-0.9-8.5,3.1-9.6,9.6c-1,5.7,0.7,10.4,5.9,11.4
			C437.7,66.2,441.8,64.4,442.6,59.9z M430.5,57.6c0.5-2.7,2.7-4.5,5.5-4s4.4,2.9,3.9,5.7s-2.9,4.7-5.7,4.2
			C431.6,63.1,430,60.6,430.5,57.6z M456.4,67.2l-4.3-0.7l3.2-18.4l-2-0.3l-0.1,0.2c-0.5,1.7-1.3,2.8-4.4,2.2l-1.5-0.3l-0.3,2
			l4.9,0.9l-2.3,13.4l-4.9-0.9l-0.3,2l11.6,2L456.4,67.2z M463.8,61c3,0.5,5.2-1.8,5.7-4.9c0.6-3.2-0.7-6.1-3.7-6.6
			s-5.1,1.8-5.7,4.9C459.6,57.6,460.8,60.5,463.8,61z M465.3,70.7l13.9-18.6l-2.1-0.4l-13.9,18.6L465.3,70.7z M464.1,59.6
			c-1.7-0.3-2.3-2.2-1.8-4.8c0.4-2.6,1.6-4.2,3.3-3.9s2.3,2.2,1.8,4.8C467,58.3,465.8,59.9,464.1,59.6z M476.6,73
			c3,0.5,5.2-1.8,5.7-4.9c0.6-3.2-0.7-6.1-3.7-6.6s-5.1,1.8-5.7,4.9C472.4,69.6,473.6,72.5,476.6,73z M476.9,71.6
			c-1.7-0.3-2.3-2.2-1.8-4.8c0.4-2.6,1.6-4.2,3.3-3.9c1.7,0.3,2.3,2.2,1.8,4.8C479.8,70.3,478.6,71.9,476.9,71.6z"/>
		<path class="st2" d="M546.8,84.8c3.8,0.7,7.1-1,7.7-4.6c0.5-3.1-1.6-4.9-4.3-5.9v-0.1c2.7,0,5.1-1.2,5.6-3.8
			c0.6-3.5-1.7-5.9-5.6-6.6c-3.2-0.6-6.3,0.9-7.4,4.8l2.5,0.4c0.7-2.4,2.2-3.7,4.8-3.2c2.5,0.4,3.5,2.1,3.1,4
			c-0.5,2.9-2.5,3.5-6.6,2.9l-0.3,2c4.2,0.9,6.1,2.2,5.5,5.4c-0.4,2.2-2.2,3.4-4.4,3c-3.3-0.6-4-2.9-3.9-5.3l-2.5-0.4
			C540.8,81.4,543.3,84.1,546.8,84.8z M559.2,72.5c-0.8,4.5,2.1,7.5,5.7,8.1c2.6,0.5,4.7-0.7,5.9-2.6h0.1c-1,5.7-3.2,8.5-6.5,7.9
			c-2.6-0.5-3.7-2.1-3.6-4.7l-2.5-0.4c-0.2,3.5,1.6,6.4,5.7,7.1c5,0.9,8.5-3.1,9.6-9.6c1-5.7-0.7-10.4-5.9-11.4
			C564.1,66.2,560,68,559.2,72.5z M571.3,74.7c-0.5,2.7-2.7,4.5-5.5,4c-2.9-0.5-4.4-2.9-3.9-5.7c0.5-2.8,2.9-4.7,5.7-4.2
			C570.2,69.2,571.8,71.8,571.3,74.7z M580.6,80.9c3,0.5,5.2-1.8,5.7-4.9c0.6-3.2-0.7-6.1-3.7-6.6s-5.1,1.8-5.7,4.9
			C576.4,77.5,577.6,80.4,580.6,80.9z M582.1,90.6L596,72l-2.1-0.4L580,90.2L582.1,90.6z M580.9,79.5c-1.7-0.3-2.3-2.2-1.8-4.8
			c0.4-2.6,1.6-4.2,3.3-3.9c1.7,0.3,2.3,2.2,1.8,4.8C583.8,78.2,582.6,79.8,580.9,79.5z M593.4,92.9c3,0.5,5.2-1.8,5.7-4.9
			c0.6-3.2-0.7-6.1-3.7-6.6s-5.1,1.8-5.7,4.9C589.2,89.5,590.4,92.4,593.4,92.9z M593.7,91.5c-1.7-0.3-2.3-2.2-1.8-4.8
			c0.4-2.6,1.6-4.2,3.3-3.9c1.7,0.3,2.3,2.2,1.8,4.8C596.6,90.2,595.4,91.8,593.7,91.5z"/>
	</g>
</g>
<g id="_x31_0">
	<g>
		
			<rect x="236.1" y="57.5" transform="matrix(0.7876 -0.6161 0.6161 0.7876 0.7392 190.1582)" class="st0" width="80.3" height="73"/>
		
			<rect x="300.9" y="12.5" transform="matrix(0.7876 -0.6161 0.6161 0.7876 40.6765 216.0286)" class="st1" width="65.7" height="73"/>
	</g>
	<path class="st2" d="M264.1,132l4.4-3.4l-11.7-14.9l6.6-5.1c0.3-0.2,0.5-0.4,0.7-0.6l20.1,8.3l5.1-4l-20.9-8.6
		c4.2-5.4,4.5-11,0.6-16c-5.1-6.6-13-6.3-21.5,0.4l-11,8.6L264.1,132z M250.8,91.4c5.5-4.3,10.1-4.2,13.4,0c3.3,4.2,2.3,8.8-3.2,13
		l-7.1,5.5l-10.2-13.1L250.8,91.4z M300.8,103.3L273.2,68l-4.4,3.4l27.6,35.3L300.8,103.3z M310.1,63.9l-5.6,2.6
		c-6.9,3.2-9.7,3-11.8,0.3c-2.8-3.6-1.2-8.1,3.4-11.7c5.4-4.2,11-3.6,14.7,0.3l4.6-3.6c-5.4-5.6-13.6-7.1-22.4-0.2
		c-6.7,5.2-9.5,13.3-4.9,19.1c3.8,4.9,9.8,5.3,18.5,1.3l5.6-2.6c5.4-2.5,9-2.2,11.5,1c2.9,3.7,1.1,8.9-4.1,13
		c-5.4,4.2-12.7,3.2-17-1.7l-4.6,3.6c5.7,6.3,15.4,8.9,24.6,1.6c8.4-6.6,10.1-14.9,5.9-20.2C323.8,60.7,317.9,60.4,310.1,63.9z
		 M364.4,53.5l5.8-4.6l-31.9-4.7l2.5-29.2l-5.8,4.6l-2.5,28.7l-13-16.6l-4.4,3.4l27.6,35.3l4.4-3.4l-14.2-18.1L364.4,53.5z"/>
	<g>
		<path class="st2" d="M267.7,105.4c2.1,2.7,1.6,5.4-0.3,7c-2.5,1.9-5,0.9-6.6-0.7l-1.9,1.6c2.9,2.9,6.6,3.2,9.7,0.8
			c3.4-2.7,4.1-6.7,1.2-10.2c-2.9-3.7-7.1-3.6-9.8-1.5c-1.8,1.4-2.4,3.3-1.9,5.3H258l-4.7-5.8l8.1-6.5l-1.3-1.5L250,102l6.9,8.6
			l1.9-1.6c-0.5-1.9,0.1-3.4,1.6-4.5C262.4,102.8,265.3,102.4,267.7,105.4z M281.4,94.4c2.1,2.7,1.6,5.4-0.3,7
			c-2.5,1.9-5,0.9-6.6-0.7l-1.9,1.6c2.9,2.9,6.6,3.2,9.7,0.8c3.4-2.7,4.1-6.7,1.2-10.2c-2.9-3.7-7.1-3.6-9.8-1.5
			c-1.8,1.4-2.4,3.3-1.9,5.3h-0.1l-4.7-5.8l8.1-6.5l-1.3-1.5L263.7,91l6.9,8.6l1.9-1.6c-0.5-1.9,0.1-3.4,1.6-4.5
			C276.2,91.8,279.1,91.4,281.4,94.4z M287.6,86.5c2.4-1.9,2.1-5.1,0.1-7.5c-2-2.6-4.9-3.5-7.4-1.6c-2.4,1.9-2.1,5-0.1,7.5
			C282.2,87.3,285.2,88.3,287.6,86.5z M295.8,91.8L291.2,69l-1.7,1.3l4.6,22.8L295.8,91.8z M286.6,85.3c-1.3,1.1-3.1,0.3-4.8-1.8
			c-1.6-2-2.1-4-0.7-5c1.3-1.1,3.1-0.3,4.8,1.8C287.6,82.3,287.9,84.2,286.6,85.3z M305,84.9c2.4-1.9,2.1-5.1,0.1-7.5
			c-2-2.6-4.9-3.5-7.4-1.6c-2.4,1.9-2.1,5-0.1,7.5S302.6,86.8,305,84.9z M304.1,83.7c-1.3,1.1-3.1,0.3-4.8-1.8c-1.6-2-2.1-4-0.7-5
			c1.3-1.1,3.1-0.3,4.8,1.8S305.5,82.7,304.1,83.7z"/>
		<path class="st2" d="M327.4,59l-1.3-1.5l-2.4,1.9l-7.9-9.9l-4,3.2l1.8,15.1l1,1.4l8.3-6.6l3.7,4.8l1.9-1.6l-3.7-4.8L327.4,59z
			 M315.8,65.6l-1.7-14.7l7.8,9.8L315.8,65.6z M338.3,49.2c2.1,2.7,1.6,5.4-0.3,7c-2.5,1.9-5,0.9-6.6-0.7l-1.9,1.6
			c2.9,2.9,6.6,3.2,9.7,0.8c3.4-2.7,4.1-6.7,1.2-10.2c-2.9-3.7-7.1-3.6-9.8-1.5c-1.8,1.4-2.4,3.3-1.9,5.3h-0.1l-4.7-5.8l8.1-6.5
			l-1.3-1.5l-10.1,8.1l6.9,8.6l1.9-1.6c-0.5-1.9,0.1-3.4,1.6-4.5C333,46.7,335.9,46.3,338.3,49.2z M344.4,41.2
			c2.4-1.9,2.1-5.1,0.1-7.5c-2-2.6-4.9-3.5-7.4-1.6c-2.4,1.9-2.1,5-0.1,7.5C339.1,42.1,342.1,43.2,344.4,41.2z M352.7,46.6
			l-4.6-22.8l-1.7,1.3l4.6,22.8L352.7,46.6z M343.5,40.2c-1.3,1.1-3.1,0.3-4.8-1.8s-2.1-4-0.7-5c1.3-1.1,3.1-0.3,4.8,1.8
			C344.5,37.1,344.9,39,343.5,40.2z M361.9,39.7c2.4-1.9,2.1-5.1,0.1-7.5c-2-2.6-4.9-3.5-7.4-1.6c-2.4,1.9-2.1,5-0.1,7.5
			C356.5,40.5,359.5,41.5,361.9,39.7z M360.9,38.5c-1.3,1.1-3.1,0.3-4.8-1.8c-1.6-2-2.1-4-0.7-5c1.3-1.1,3.1-0.3,4.8,1.8
			C361.9,35.4,362.4,37.4,360.9,38.5z"/>
	</g>
</g>
</svg>
