<svg id="Layer_1" data-name="Layer 1" xmlns="http://www.w3.org/2000/svg" viewBox="0 0 147.50011 54.12494">
  <g>
    <g>
      <path d="M18.3589,23.0309a.10422.10422,0,0,1,.0146-.14684l.19529-.16374a.0991.0991,0,0,1,.14435.0133.1023.1023,0,0,1-.01211.14075l-.19535.16864a.14291.14291,0,0,1-.07155.0182.09552.09552,0,0,1-.07523-.03031" transform="translate(0.02913)" fill="#231f20"/>
      <g>
        <path d="M30.02964,28.87443c-.62-.18442-.85166-.4525-.85166-.734a.9018.9018,0,0,1,.35058-.61233.09625.09625,0,0,1,.13224.01093.09923.09923,0,0,1-.017.13467c.0036,0-.28752.23988-.28026.46673,0,.159.11889.37368.71941.56052a.08866.08866,0,0,1,.06187.11162.092.092,0,0,1-.08858.06546.06257.06257,0,0,1-.02664-.0036" transform="translate(0.02913)" fill="#231f20"/>
        <path d="M37.41174,28.26907a.10294.10294,0,0,1-.08851-.11529,2.594,2.594,0,0,0,.017-.3333c0-1.02756-.256-3.4927-.256-5.1378a7.05031,7.05031,0,0,1,.068-1.13917,8.3606,8.3606,0,0,0,0-2.72353.10925.10925,0,0,1,.08248-.12256.101.101,0,0,1,.1189.08373,8.3781,8.3781,0,0,1,.114,1.4218,7.88425,7.88425,0,0,1-.114,1.37453,7.44211,7.44211,0,0,0-.0643,1.1052c0,1.62933.25355,4.08477.25355,5.1378a3.54761,3.54761,0,0,1-.01577.36.105.105,0,0,1-.10193.08858h-.01336" transform="translate(0.02913)" fill="#231f20"/>
        <path d="M34.12527,15.11007a.1025.1025,0,0,1,0-.14678l.81649-.81891a.0983.0983,0,0,1,.14318,0,.10554.10554,0,0,1,0,.14559l-.8165.8201a.098.098,0,0,1-.07037.02429.10031.10031,0,0,1-.0728-.02429" transform="translate(0.02913)" fill="#231f20"/>
        <g>
          <path d="M35.33967,29.37184s-1.21316-1.25446-2.31836-2.5037v.00242a.1027.1027,0,0,1,.154-.13584c1.09918,1.242,2.31109,2.49153,2.31233,2.4988a.09475.09475,0,0,1-.00367.13832.08944.08944,0,0,1-.06913.0315.10354.10354,0,0,1-.07522-.0315M16.26254,28.6233a.10136.10136,0,0,1,.00969-.14559c0-.00367,1.08582-.95569,1.1926-1.36571.17951-.37126.33722-.797.33846-.797a9.46916,9.46916,0,0,0,.41-1.64753h0a.10153.10153,0,0,1,.125-.07155.0982.0982,0,0,1,.07038.12373,9.32129,9.32129,0,0,1-.41492,1.66932c-.00243.00367-.16014.427-.33965.79463A5.47437,5.47437,0,0,1,16.40571,28.633a.10322.10322,0,0,1-.06794.02671.10153.10153,0,0,1-.07523-.0364m2.0612-5.55725c-.21355-.73276-1.918-1.4303-1.92529-1.4303a.10709.10709,0,0,1-.06068-.12982.109.109,0,0,1,.1359-.06187c.00484.01211,1.73479.65388,2.04418,1.56255a.10515.10515,0,0,1-.06671.125c-.00975,0-.02062.006-.03155.006a.10429.10429,0,0,1-.09585-.07156m-4.587.0182a.10069.10069,0,0,1-.01335-.14317,1.90937,1.90937,0,0,1,1.474-.55077s.41729-.01938.75457-.01938a.10023.10023,0,0,1,.10311.10069.103.103,0,0,1-.10311.10311c-.32753,0-.74612.017-.74972.017a1.70115,1.70115,0,0,0-1.31993.47679.099.099,0,0,1-.08006.03764.104.104,0,0,1-.06554-.02187m16.95288-.87836a11.34548,11.34548,0,0,1-.07764-1.275c0-.18926.00726-.30088.00726-.3033h0a.10212.10212,0,0,1,.10554-.09585.1035.1035,0,0,1,.09826.10678s-.00727.1092-.00727.29237a10.34033,10.34033,0,0,0,.07765,1.24838.10592.10592,0,0,1-.091.11522h-.01211a.1001.1001,0,0,1-.10069-.08858m-18.72413-.82252s-.3166-.99724-.5435-2.08176a7.17484,7.17484,0,0,1-.15771-1.45584,4.10465,4.10465,0,0,1,.0182-.42461h.00242a.099.099,0,0,1,.11162-.091.10461.10461,0,0,1,.091.11286,3.38641,3.38641,0,0,0-.01938.40275A7.14728,7.14728,0,0,0,11.621,19.2603c.22075,1.07129.53741,2.05879.53741,2.05879a.10673.10673,0,0,1-.06552.131.28909.28909,0,0,1-.03274.00124.09651.09651,0,0,1-.09466-.068m10.71231-.5471a.10712.10712,0,0,1-.06187-.13348c.01944-.01211.68792-2.24314,1.25323-2.51489a.10926.10926,0,0,1,.1359.05578.10412.10412,0,0,1-.06187.13224,3.1902,3.1902,0,0,0-.711,1.24471c-.2402.58232-.42461,1.14527-.42461,1.14527h0a.09979.09979,0,0,1-.09827.074c-.00845,0-.02062-.0036-.03155-.0036m6.1569-1.85859a.10339.10339,0,0,1-.05827-.13348,7.18283,7.18283,0,0,0,.26082-1.07725h.00243a.099.099,0,0,1,.114-.08615.10221.10221,0,0,1,.08615.11764,7.36491,7.36491,0,0,1-.273,1.11614.11212.11212,0,0,1-.097.07037.15.15,0,0,1-.03515-.00727m.48039-.41368a.09872.09872,0,0,1,.09584-.10435l1.84884-.09224a2.03174,2.03174,0,0,0,.62363-.19895.10237.10237,0,1,1,.10671.17473,2.07054,2.07054,0,0,1-.71214.22566l-1.8561.09342H29.417a.10173.10173,0,0,1-.10193-.09827m-8.52495-1.178a3.29763,3.29763,0,0,1-.60419-.05584.10408.10408,0,0,1-.07764-.12131.10011.10011,0,0,1,.125-.07522,3.068,3.068,0,0,0,.55686.04851,1.27478,1.27478,0,0,0,1.35993-.797.10153.10153,0,0,1,.1274-.07031.10261.10261,0,0,1,.06795.12491,1.47017,1.47017,0,0,1-1.53832.94631Zm9.65928-1.14526c-.04975-.98874-.6794-1.08092-1.05184-1.09427a1.0698,1.0698,0,0,0-.22324.02062h0a.10283.10283,0,0,1-.11889-.07882.10174.10174,0,0,1,.07765-.12137,1.17471,1.17471,0,0,1,.26448-.02305,1.19311,1.19311,0,0,1,1.25682,1.29086.09925.09925,0,0,1-.09826.10429h-.00485a.10615.10615,0,0,1-.10187-.09826M21.80917,14.273a.10558.10558,0,0,1,.04733-.14075.65512.65512,0,0,0,.26933-.216,4.629,4.629,0,0,0-.6163-.36759.25543.25543,0,0,1-.182-.222.3998.3998,0,0,1,.159-.26932.10813.10813,0,0,1,.14554.0182.10388.10388,0,0,1-.02062.14435s-.08976.08857-.07765.10677c0,0-.00484.00609.0546.03156a5.25176,5.25176,0,0,1,.72183.43672l.04131.1092a.72183.72183,0,0,1-.40157.41368h0a.16594.16594,0,0,1-.04857.01212.10156.10156,0,0,1-.09218-.057" transform="translate(0.02913)" fill="#231f20"/>
          <g>
            <path d="M21.67332,41.4162l.35785-.00125.02062,1.91561-.35784.00851Zm-.99364,1.89616.07646-1.918.35909.0146-.08007,1.91921Zm1.91076-1.918.35791-.01938.114,1.91437-.3579.023Zm-2.91161,1.855.15168-1.91561.35785.02665-.15287,1.91442Zm3.83606-1.9217.3579-.03031.18684,1.90468-.35548.034Zm-4.84418,1.80275.24747-1.90344.35666.04609-.24871,1.90592Zm5.75528-1.9107.35423-.051.28387,1.89623-.35182.05578Zm-6.75737,1.75181.34331-1.89014.35182.06186-.33965,1.89014Zm7.666-1.89617.35057-.07037.37853,1.88039-.353.07037Zm-8.64751,1.69237.41611-1.878.35063.07522L17.039,42.84408Zm9.54525-1.88529.347-.08858.4707,1.85983-.34939.08733ZM15.71053,42.51413l.50468-1.85374.34939.09826-.50952,1.84766ZM27.129,40.64337l.34449-.10187.53866,1.84157-.34455.09951Zm-12.39014,1.565.60052-1.81976.34213.11038-.60052,1.82585ZM28.00607,40.368l.33846-.11889.62841,1.81368-.33846.1177ZM13.78523,41.8687l.69276-1.7943.3348.12982-.69028,1.79188Zm15.08094-1.81492.33244-.13342.71941,1.77485-.33244.13343ZM12.86445,41.48291l.7522-1.76275.33238.14193-.75581,1.764Zm16.84735-1.787.33-.15044L30.84246,41.29l-.32517.14678ZM11.94851,41.05221l.8383-1.72386.32634.154-.84438,1.72634ZM30.544,39.30039l.32027-.16739.8832,1.70205-.31542.16989ZM11.052,40.57908l.92445-1.68268.31542.17473L11.36743,40.749Zm20.3-1.71175.313-.18075.96569,1.65957-.30814.17591ZM10.18334,40.05862l1.00209-1.63292.30691.18684-1.00451,1.63659Zm21.96085-1.65957.30089-.19777,1.04569,1.6123-.30206.19293Zm-22.80765,1.11,1.0834-1.58684.296.2038-1.08215,1.582ZM32.91938,37.881l.29362-.205,1.10278,1.56982-.29362.20628ZM8.51886,38.90976,9.675,37.38361l.28877.216L8.80521,39.12573Zm25.1454-1.57224.28268-.22082L35.12252,38.632l-.28269.22318ZM7.73641,38.291,8.94956,36.8l.27778.22809L8.01543,38.5167Zm26.64124-1.52982.27416-.23535L35.899,37.98531l-.273.23417ZM6.97694,37.619l1.28111-1.42789.2669.2402L7.24384,37.858Zm28.0898-1.46671.26082-.24628,1.31751,1.39875-.26089.24268Zm-28.8189.76668,1.34782-1.3672.256.25113L6.50382,37.17372Zm29.48-1.40727.24871-.25715,1.38062,1.3308-.25.25722Zm-30.1728.67214,1.41217-1.2993.24137.26442L5.79651,36.4458Zm30.8-1.34421.23777-.26567,1.44248,1.26291-.23783.27051Zm-31.45877.57623,1.47037-1.23011.23051.279-1.474,1.22769ZM36.95564,34.142l.22317-.279L38.682,35.05432l-.22566.28268Zm-32.68528.48164,1.52982-1.161.21715.2851L4.4887,34.9063Zm33.247-1.20347.21473-.29237L39.28853,34.25l-.21107.28995Zm-33.833.3761,1.58317-1.08216.20386.296L3.88575,34.09105ZM38.05717,32.6595l.19778-.2984,1.5977,1.06029-.20013.30206ZM3.13846,32.947,4.769,31.93767l.188.30814L3.32529,33.25157Zm35.41128-1.06756.1856-.307,1.64746.98632-.18436.307ZM2.635,32.08084l1.6705-.94631.17591.313-1.66933.94625Zm36.37207-.996.16982-.31665,1.69.90624-.16616.31418ZM2.16792,31.1867l1.713-.86861.1638.32027-1.713.86624Zm37.25894-.92078.15528-.32269,1.73486.81768-.15529.32753Zm-37.68114,0,1.75306-.78128.1456.32511-1.7543.78494Zm38.06209-.83345.13826-.33238,1.77244.73519-.13827.33Zm-38.443-.10553L3.153,28.63181l.12982.3348-1.78821.6927Zm38.78875-.7473.11889-.336,1.80523.64537-.12013.33728Zm-39.126-.20989,1.81976-.60754.11647.34182-1.821.609Zm39.42561-.667.1056-.33964,1.83306.57592-.10678.34337ZM.73879,27.40071l1.84647-.51437.09827.3433L.83345,27.7501Zm39.974-.57748.091-.34815,1.85617.48524-.09225.347ZM.49375,26.41806l1.86952-.4222.08124.347-1.87312.42579ZM40.93,25.92915l.07522-.34939,1.87679.39064-.06913.353ZM.29722,25.43659,2.18,25.08235l.07037.35306-1.88889.353Zm40.8099-.40157.0582-.35909,1.895.29964-.05826.35064ZM.14435,24.4345l1.89983-.25958.05218.35908L.19529,24.79Zm41.09743-.319.04242-.36157,1.90592.22448-.04124.35908ZM.04124,23.42756,1.95076,23.265l.03032.35423-1.9107.16622ZM41.334,23.202l.02428-.3579,1.91437.12249-.023.364ZM-.01819,22.428l1.918-.09224.017.35791L0,22.787Zm41.39705.03882.00969-.35914,1.91921.06677-.01453.35908Zm-41.408-.69636v-.35672l1.91921.00608v.35791Zm41.41526-.57872,1.92163-.03031.00609.35908-1.91921.02789ZM-.00969,20.76105.006,20.3983l1.91685.10069-.017.36033Zm41.35458-.4853,1.91561-.125.02546.35548-1.918.12615ZM.05336,19.75654l.03882-.35306,1.90592.17106-.03156.36033Zm41.20905-.40884,1.90709-.19411.03882.35542L41.3,19.708ZM.16982,18.7496l.04733-.35548,1.901.273-.05093.35424Zm40.96152-.30939,1.89865-.29.05578.35181-1.89741.29238ZM.32393,17.74627l.06671-.34815,1.88647.36883L2.208,18.1151Zm40.64-.20983,1.87679-.38094.07522.35057L41.0355,17.887ZM.52531,16.77088l.08614-.35057,1.867.43188-.08125.35666ZM40.748,16.64231l1.86343-.47313.085.34815-1.8574.47561ZM.77885,15.78823l.10069-.34815,1.844.53133-.10186.34579Zm39.71557-.0267L42.33,15.1938l.10435.347-1.8343.5653ZM1.07607,14.8177l.11646-.33971,1.81368.62239-.1128.33846Zm39.12237.06186,1.81-.63207.12013.33852-1.81126.632ZM1.4182,13.86536l.13224-.336,1.78336.71332-.13348.33362Zm38.443.16013,1.7797-.72183.13106.33244-1.77734.723ZM1.804,12.92756l.148-.32511,1.747.79705-.14926.32877Zm37.68349.26088,1.73852-.80681.15286.32393-1.74454.80674ZM2.231,12.01889l.16132-.31542,1.71423.86258-.16137.32026ZM39.069,12.3671l1.70455-.88439.165.31418-1.70212.88687ZM2.70173,11.12481l.17591-.30939,1.6705.94631-.17467.30933Zm35.91472.43915,1.65964-.96445.17833.31057-1.6584.96327ZM3.2161,10.2562l.1905-.30454,1.62076,1.02271-.188.3033Zm34.91264.53015,1.60869-1.04458.19411.30213-1.6087,1.04451ZM3.76929,9.407l.20628-.296,1.56864,1.10278-.205.29721Zm33.83414.62232,1.55894-1.11613.20747.29-1.56013,1.11737ZM4.36136,8.59048l.21715-.28628L6.09615,9.47977l-.21833.28262ZM37.043,9.299,38.5449,8.10767l.22317.28386L37.26863,9.58288ZM4.98977,7.79467l.23411-.27175,1.4546,1.24831L6.448,9.043Zm31.45753.80066,1.44975-1.25925.2341.26809L36.68507,8.8695ZM5.657,7.03644l.245-.26088L7.30086,8.087l-.24628.262Zm30.16914.88681,1.383-1.32962.24747.25715-1.383,1.32968ZM6.351,6.31213l.25473-.24989,1.34789,1.366-.256.25479Zm28.81648.96451,1.32111-1.39273.26206.24989L35.42942,7.52292ZM7.08247,5.617l.2669-.239L8.63173,6.80712l-.26691.23659ZM34.4856,6.66276l1.25322-1.45335.2705.23293L34.75617,6.89569ZM7.84679,4.95462l.28026-.22324L9.33654,6.21753l-.27778.22926Zm25.9194,1.11731L34.966,4.57367l.27908.22566-1.19986,1.4946ZM8.64017,4.32981l.2912-.21231,1.13917,1.54075L9.783,5.8754Zm24.386,1.195L34.1544,3.972l.29119.20988L33.31853,5.73471ZM9.46518,3.74388l.2984-.20261,1.06519,1.59652-.2997.19895ZM32.26066,5.01039,33.31853,3.409l.29722.19411-1.053,1.60628ZM10.31316,3.19311l.30815-.18566.98632,1.64628-.30815.18318ZM31.477,4.53242,32.4511,2.8813l.31182.18442L31.78511,4.718ZM11.18543,2.686l.31909-.1723.90743,1.68994-.31908.16989ZM30.669,4.09328l.89289-1.69361.31784.16379-.89289,1.70088ZM12.0856,2.21407l.32392-.15287.82134,1.73486-.32275.15044ZM29.84037,3.69289l.81159-1.736.32759.15044-.81525,1.736ZM12.993,1.798l.32877-.14441.76071,1.76156-.32877.14193ZM28.99723,3.3302l.72426-1.77492.33362.13709-.72668,1.7761ZM13.92841,1.40851l.33846-.12256.66971,1.79672-.33485.125ZM28.13465,3.0123,28.77641,1.201l.33971.11889L28.47435,3.13ZM14.88317,1.07489l.34088-.1092.586,1.827-.34331.1092Zm12.378,1.65355L27.81072.89289l.34455.09951-.54959,1.838ZM15.8537.78252l.347-.0946.49375,1.85492-.347.09218ZM26.36582,2.48824,26.84628.6309,27.192.71823l-.48039,1.85734ZM16.83635.53139l.3494-.0728.40157,1.878-.35424.07155ZM25.4669,2.28805,25.85872.40766l.34939.0764-.3894,1.8756ZM17.81664.33362l.35542-.05945.32877,1.89139-.353.05944Zm6.74767,1.79914L24.85669.23535l.35541.057-.29479,1.89741ZM18.81625.18081l.35914-.04615.23411,1.90468-.35666.04615ZM23.64347,2.02,23.86428.11044l.35549.04367-.22206,1.901ZM19.82319.07162l.35914-.02429.14311,1.91437-.36026.02553ZM22.72511,1.9484,22.8525.03522l.35909.01938-.12616,1.91318ZM20.83987.01093,21.19653,0l.04485,1.92045L20.8823,1.929Zm.9693,1.90592L21.83706,0l.364.00609-.03156,1.9156Z" transform="translate(0.02913)" fill="#231f20"/>
            <path d="M22.41578,35.42067,19.25788,34.358a.10794.10794,0,0,1-.06671-.10311v-.81165a.19519.19519,0,0,1,.00485-.03031c.0036-.01211.00844-.0182.01093-.02671l.00485-.006h0l.0036-.00609h.00124a.03946.03946,0,0,0,.01453-.01335l.00485-.00485h.00242a.0598.0598,0,0,1,.0364-.01211h-.006l3.21852-.75214.182-1.29813c-.20138-.07156-.205-.31542-.205-.37368v-.017l-.074-1.303a.70792.70792,0,0,1-.159-.18678.41042.41042,0,0,0-.02186-.04125.71259.71259,0,0,0-.33362-.09224c-.347-.00484-.69637.3094-1.201.47922a5.65019,5.65019,0,0,1-1.35633.24144.127.127,0,0,1-.0497-.01336c-.67816-.15162-2.28928-1.89983-2.30506-1.90952h0a.09893.09893,0,0,1,.00242-.14193.10137.10137,0,0,1,.14442.0036c.00242,0,.37.38219.81034.7983-.0303-.46226-.10311-1.58411-.10311-2.16885a1.91964,1.91964,0,0,1,.02187-.336A.10079.10079,0,0,1,17.961,26.156a.10181.10181,0,0,1,.07764.12373,1.52412,1.52412,0,0,0-.01454.28877c0,.73276.114,2.35687.114,2.36053h0v.01211a4.5743,4.5743,0,0,0,1.11738.83463,13.54542,13.54542,0,0,0,.75824-2.81545c0-.00361.0667-.65388.12739-1.55771v.00367a.10522.10522,0,0,1,.11155-.09585.09952.09952,0,0,1,.09342.10554c-.06186.90742-.13224,1.56254-.13224,1.56379a13.20509,13.20509,0,0,1-.74487,2.80452,5.19126,5.19126,0,0,0,1.13918-.21715c.46225-.1492.80674-.48039,1.26775-.49132a.91486.91486,0,0,1,.2584.04124,1.35752,1.35752,0,0,1-.01572-.21106c0-.1274.01087-.24629.01572-.34455a3.64452,3.64452,0,0,1,.48772-1.1498c.05217-.1128.13224-.347.22566-.63208l-.04367.057a.27408.27408,0,0,1-.21839.13833.33033.33033,0,0,1-.26082-.24752.17245.17245,0,0,1-.02671-.10429,1.47066,1.47066,0,0,1,.17349-.563.87344.87344,0,0,0,.03031-.09826.69712.69712,0,0,1-.3494.08733.73714.73714,0,0,1-.17106-.017,1.5577,1.5577,0,0,1-.49859-.29846l-.30933-.2669c-.08373-.08125-.13951-.13342-.14442-.22809a.21141.21141,0,0,1,.17958-.18559.21649.21649,0,0,1-.00727-.057c.0036-.13827.14193-.16013.19653-.16013a.491.491,0,0,1,.12858.017.83747.83747,0,0,1,.35064.36027h.00117c.02305-.01336.05342-.03274.0874-.05218a1.2981,1.2981,0,0,0,.13218-.08491l-.006-.0036a.2338.2338,0,0,0,.017-.06069.92011.92011,0,0,0,.01335-.14069h0l.00125-.02795a6.38005,6.38005,0,0,1,.1759-.78487,1.05731,1.05731,0,0,1,.19653-.31424.08462.08462,0,0,1-.02428-.034,1.90017,1.90017,0,0,1-.17958-.774,1.59519,1.59519,0,0,1,.37735-1.00209c-.00609-.07031-.06311-.81767-.06311-1.28471,0-.0728,0-.13951.00485-.19653.017-.24995.25839-1.37937.47921-2.37295a.10014.10014,0,0,1,.12131-.07765.10325.10325,0,0,1,.07764.11889c-.21833.98507-.46586,2.13636-.47679,2.34749-.00118.04609-.00118.108-.00118.18075,0,.33.03031.82128.04852,1.087a2.33614,2.33614,0,0,1,.68058-.44039.10067.10067,0,0,1,.13106.05336.10225.10225,0,0,1-.05826.13348c0,.00727-1.12825.46946-1.11732,1.45335a1.634,1.634,0,0,0,.13585.62724l.00484-.01094c.00733-.00118.01093-.00726.0146-.01211l.006-.00242c.02671-.02305.114-.10311.35548-.32393a.7846.7846,0,0,1,.53984-.24144.59618.59618,0,0,1,.25722.05827,2.19628,2.19628,0,0,1,.7-1.08582,2.06674,2.06674,0,0,0,.21833-.47437l-.08734.01217a.10121.10121,0,0,1-.10795-.0728c0-.00124-.2269-.76189-.32759-1.21439a.75014.75014,0,0,1-.01578-.14318,1.96989,1.96989,0,0,1,.58717-1.16222c.05826-.02789.17715-.33119.17473-.33237a.24969.24969,0,0,0,.00969-.02429,1.65561,1.65561,0,0,1-.26206-.6709,3.50839,3.50839,0,0,1-.04609-.54834v-.05212a.2265.2265,0,0,1-.04125-.01578.44846.44846,0,0,1-.17223-.32392.25611.25611,0,0,1,.0121-.08733.12492.12492,0,0,0,.00485-.04616,1.04047,1.04047,0,0,0-.03031-.188l-1.15738-.55319a.42185.42185,0,0,1-.17225.2802,1.74635,1.74635,0,0,1-.38821.27175.9265.9265,0,0,1-.307.051h-.09342l-.0764-.05584s-.05584-.10914-.09708-.17951a.84553.84553,0,0,1-.29238-.68426,6.22223,6.22223,0,0,1-1.48733-.17833,2.193,2.193,0,0,1,.08616.26082,1.60719,1.60719,0,0,1,.05578.41126c0,.08249-.00727.16013-.01454.24268-.0182.01087-.10311.81768-.45008,1.01421a1.06625,1.06625,0,0,1-.3579.04366c-.46219-.02428-1.09552-.06311-1.26533-.32759-.04734-.14193-.12858-.17951-.49618-.43915a3.34474,3.34474,0,0,0-1.30539,2.87888,4.67286,4.67286,0,0,0,.04491.68419c.07764.03882.154.07522.22566.11044a1.4674,1.4674,0,0,1-.017-.23417c0-.18442.02063-.4076.19653-.49008a.3645.3645,0,0,1,.03764-.034c.04969-.04733.14435-.13224.19895-.19535.09827-.0946.26933-.34815.48164-.38213a.61431.61431,0,0,0,.28386-.19411,1.01785,1.01785,0,0,1,.74612-.438.38148.38148,0,0,1,.11764.01211,8.19065,8.19065,0,0,1,1.49584.20988c.08733.06311.42946.29846.62115.41008.05459.04.08733.0582.091.05218a.85375.85375,0,0,1,.10069.006l-.04124-1.83914a.10519.10519,0,0,1,.10068-.10435.10036.10036,0,0,1,.10311.09826l.04125,1.87921a.59731.59731,0,0,1,.42219.35306.43637.43637,0,0,1,.13348.30572.413.413,0,0,1-.051.20138,1.22418,1.22418,0,0,1,.47679.47188,1.1268,1.1268,0,0,1,.05584.33368.54237.54237,0,0,1-.39673.55922s-.30815.03764-.47194.04615a.94964.94964,0,0,1-.32877.51921c-.00361.13951-.01336.50468-.02423.67941a.27821.27821,0,0,1-.313.23895.68164.68164,0,0,1-.09466-.006.44391.44391,0,0,1-.26567.24622c-.05217,0-.159.1092-.29721.15044-.00733-.023-.0728.10435-.25964.16746a.84439.84439,0,0,1-.22082.03031,1.3929,1.3929,0,0,1-.92562-.36883,2.99487,2.99487,0,0,1-.31182-.501h0a.10261.10261,0,0,1,.04857-.13708.10123.10123,0,0,1,.13585.05093,2.65949,2.65949,0,0,0,.28386.45617,1.27216,1.27216,0,0,0,.76916.29479.70088.70088,0,0,0,.1638-.02186c.10677-.01814.1128-.12131.279-.171.00969,0,.01578-.00491.0328-.01578l-.12379-.09951a.10981.10981,0,0,1-.01578-.14559.101.101,0,0,1,.14442-.01087l.13826.10913a.12455.12455,0,0,1,.03523.04125.294.294,0,0,1,.09583-.02789.72859.72859,0,0,0,.08007-.10554.29423.29423,0,0,1-.20261-.20864h-.00367v-.00733h.00367c-.00852-.00484-.01336-.01695.03273-.08124a.11242.11242,0,0,1,.12373-.00609l.01577.01093a.11307.11307,0,0,1,.02429.05094l.00609.00851a.44864.44864,0,0,0,.06913.03882.53027.53027,0,0,0,.10069.03515l.00969.00491a.622.622,0,0,0,.12864.01454c.09093-.00609.11038-.01945.11038-.04734.01211-.19895.02547-.7194.02547-.723l.0485-.08373a.77772.77772,0,0,0,.29362-.4707.70385.70385,0,0,0-.05336-.125.36507.36507,0,0,0-.10075-.01454.17961.17961,0,0,0-.131.04609,4.86249,4.86249,0,0,1-.61145.35424,2.04048,2.04048,0,0,0-.26082.0764h0c-.0364.085-.148.24628-.55319.45859l-1.32359.30212c.09223.35424.18075.75215.17833.7473a2.92743,2.92743,0,0,1,.09584.438s.00484.0036,0,.01211c-.03031.41853-.22318,1.79548-1.377,1.95928v.00484h-.00485a2.56945,2.56945,0,0,1-1.54559.92321,6.12271,6.12271,0,0,1,.45741,1.17558c.02547.16379.26933.9678.46946,1.58776.13106.40275.239.73637.2584.79221a1.55843,1.55843,0,0,1,.24268.76065,1.20433,1.20433,0,0,1-.02547.24622l-.00124.01578a.07854.07854,0,0,1,.02913.02553,5.56643,5.56643,0,0,1,.438.64661,1.36789,1.36789,0,0,1,.13951.69028,7.47977,7.47977,0,0,1-.06311.76916c-.03516.32877-.23417.36635-.58232.77277a1.10928,1.10928,0,0,1-.86619.31057,3.306,3.306,0,0,1-.85047-.12249,14.87317,14.87317,0,0,0-1.81486-.35915,8.04036,8.04036,0,0,1-1.86591-.81158,16.66925,16.66925,0,0,1-1.63411-1.28478,1.55513,1.55513,0,0,0-.56052-.21106v.00484a7.04575,7.04575,0,0,0-1.02756.63208.51315.51315,0,0,0-.1941.205.04937.04937,0,0,0-.00361.02546.39613.39613,0,0,0,.0546.13951c.0036.03274.04851.03274.16013.06914.074.02789.222.07646.29722.10193a.12515.12515,0,0,1,.09218.12733.64613.64613,0,0,1-.25716.38461l.00243.00243c-.00125.01938,0,.05459-.00243.09217-.0546.19293-.20988.17349-.26081.2002a.2765.2765,0,0,1-.06678.00609c-.057,0-.12733-.01094-.16012-.01336v.00242L8.09791,33.533v.00727c-.08248-.00727-.22081-.02671-.273-.03764a.4838.4838,0,0,1-.21957-.24747l-.00118.00125a.19821.19821,0,0,0-.01093-.02914c-.01336-.02428-.03156-.05459-.05218-.09826-.04491-.08131-.10553-.1856-.16255-.29964a2.99876,2.99876,0,0,1-.25964-.58357.19031.19031,0,0,1-.00727-.05335,5.91013,5.91013,0,0,1,.49257-1.40609,2.59187,2.59187,0,0,0,.17348-.939.65655.65655,0,0,1,.1856-.39188,1.95989,1.95989,0,0,1-.49375-1.36844,2.4559,2.4559,0,0,1,.04367-.48617.45094.45094,0,0,1-.03155-.0364,2.06433,2.06433,0,0,1-.31058-.88929,4.3092,4.3092,0,0,1-.59443.38946l-.06553.01211H6.499a.81016.81016,0,0,1-.85774-.9147,5.87946,5.87946,0,0,1,.08733-.78251,1.21849,1.21849,0,0,1,.6127-.75823,2.56439,2.56439,0,0,1-.31057-.04852,1.17193,1.17193,0,0,1-.29238-.25112c-.148-.17473-.33119-.1492-.73885-.17473a.26785.26785,0,0,1-.16982-.06063,3.85533,3.85533,0,0,1-.55325-.13106c-.262-.10068-.49008-.11155-.58108-.28144a.444.444,0,0,1-.01578-.07522.07175.07175,0,0,1-.06311-.017L2.931,23.10612a.51125.51125,0,0,1-.18927-.37977.53206.53206,0,0,1,.1274-.33,8.18373,8.18373,0,0,0,1.3357-1.81977A14.16215,14.16215,0,0,0,4.513,18.16119c.16864-1.39633.65028-1.88523.86743-2.03692a1.60565,1.60565,0,0,1-.279-.82376.71243.71243,0,0,1,.12491-.42095c-.13342-.13826-.2341-.26206-.27293-.29721a1.06666,1.06666,0,0,1-.21957-.68426.46306.46306,0,0,1,.11162-.35181c.15038-.131.61624-.68177.62233-.68786.6976-1.26775,1.43763-1.52254,1.54925-1.548a2.41076,2.41076,0,0,1,.05211-.239,1.46439,1.46439,0,0,1,.87961-.89171c.24746-.131.57139-.77276.93413-1.00694a8.35858,8.35858,0,0,1,1.87673-.52648,4.10146,4.10146,0,0,1,.8614-.07522,10.54642,10.54642,0,0,1,1.09669.06063h.057c.01212,0,.03758-.00118.05945,0a2.77391,2.77391,0,0,1,.92687.19895.66863.66863,0,0,1,.33237-.49251.7799.7799,0,0,1,.1274-.03882c.09584-.39306.79345-.50468,1.02756-.5399.091-.40759.60294-.46461,1.00817-.467a3.56243,3.56243,0,0,1,.68177.05944,1.54023,1.54023,0,0,1,.23417-.0182,2.54036,2.54036,0,0,1,1.315.45977.91859.91859,0,0,1,.10317-.00851,1.05589,1.05589,0,0,1,.85041.62605.66761.66761,0,0,1,.39548.683,1.95127,1.95127,0,0,1-.06671.47188.37936.37936,0,0,1-.39188.336.41982.41982,0,0,1-.06187.00733.63051.63051,0,0,1-.22808-.04857,1.0863,1.0863,0,0,0-.08007.15528,10.96789,10.96789,0,0,0-.42821,1.19863c-.02062.14559-.11286.25839-.23175.25479a.38772.38772,0,0,1-.16013-.05826.67644.67644,0,0,1-.11889.10919.58575.58575,0,0,1-.2584.05584.46169.46169,0,0,1-.17715.15163c0,.00851-.0764.07882-.07273.08373a.26641.26641,0,0,1-.26448.25957H17.284a1.83331,1.83331,0,0,1-.56412-.19895l-.44884-.245a1.41247,1.41247,0,0,1-.21231.77519.08481.08481,0,0,1,.00851.03639v.06311a2.4225,2.4225,0,0,1-.03764.49617.34463.34463,0,0,1-.165.15169c.14075.10068.586.42337.67089.67692v.00609l.22442.05944.21107-.023s.51319.07523.5617.08125c.08373.00485.53263.08733.53623.08733l.07889.06553a.22789.22789,0,0,1,.00726.06187c-.04006.24628-.29721.27175-.31541.29361l-.34455.057.0764.12006a.38044.38044,0,0,1,.05342.18566.48726.48726,0,0,1-.21355.36151.86033.86033,0,0,1,.00975.12857.56438.56438,0,0,1-.26933.52413.892.892,0,0,1-.50592.15888,1.65687,1.65687,0,0,1-.7655-.25715.1825.1825,0,0,1-.0364,0c-.00366,0-.87835-.0328-.97662-.03882a1.61716,1.61716,0,0,1-1.35875-1.0106.61525.61525,0,0,1-.07156-.3166,1.22272,1.22272,0,0,1,.01336-.19168l-.62966.31417c.00727.01944.01578.0364.02305.06069a5.40066,5.40066,0,0,1,.586,1.87188V16.447c0,.02062-.00124.04242-.00124.057a5.93311,5.93311,0,0,0,.26448,1.70939,3.34911,3.34911,0,0,0,.50711,1.05669l-.00485.00726a.91071.91071,0,0,1,.5253.21591,2.029,2.029,0,0,0,.47679.256.5817.5817,0,0,1,.23778.15162,10.30221,10.30221,0,0,1,1.00085.32753,4.9971,4.9971,0,0,1-.03156-.59077,3.60358,3.60358,0,0,1,1.35273-3.02323.3292.3292,0,0,1-.06069-.19895c.01454-.41126.57264-.90507.58959-1.00818.03764-.10187.00485.01335.06187-.42219a13.62174,13.62174,0,0,1,.44766-1.55529,1.02515,1.02515,0,0,1,.37368-.404.76921.76921,0,0,1,.72549-.46461.85848.85848,0,0,1,.108.00484.84969.84969,0,0,1,.3033-.05578.77777.77777,0,0,1,.14069.01087,2.63908,2.63908,0,0,1,.6127-.17709c.0218,0,.04242.00118.04242.00118.00851.01094.37.04249.49866.25722.00726.01335.30206.12255.38455.34939-.06429.017.3069.04609.3251.39791v.00851a.47211.47211,0,0,1,.17473.24746.51627.51627,0,0,1,.21349.22691c.1092-.25964.27908-.63935.31057-.6891a2.237,2.237,0,0,0,.26691-1.13676,3.61161,3.61161,0,0,0-.279-1.35024v-.00969c-.0218-.0146-.11162.05336-.1856.13224-.0728.06187-.13709.12858-.13348.12373v.00485a.24773.24773,0,0,1-.023.03516.66639.66639,0,0,1-.20864.165,2.34283,2.34283,0,0,1-.49617.15044c-.11286.25722-.40766.21113-.64176.38822a.76821.76821,0,0,1-.427.125,1.098,1.098,0,0,1-.53021-.15528c-.00485-.00851-.57624-.54351-.67208-.66606l-.01093.0146c-.03274.0546-.12976.12615-.34449.10677h-.01335a.50187.50187,0,0,1-.46828-.26814.09642.09642,0,0,1-.0146-.05094c.07162-.24144.36759-.26448.364-.29237a2.17994,2.17994,0,0,1,.79948-.26324c.02664-.00248.05577-.00609.08248-.00851a1.26429,1.26429,0,0,1,.20014-.76916,1.57379,1.57379,0,0,1,.535-.32753,1.0609,1.0609,0,0,1-.09708-.45014,1.28123,1.28123,0,0,1,.33-.8383c.52648-.6199.72792-.73761.98631-.774.18318-.0218.49618-.063.58351-.0764a1.61,1.61,0,0,1,.8468-.25964,1.22762,1.22762,0,0,1,.59928.15771,4.53152,4.53152,0,0,1,.41977-.42219,4.1146,4.1146,0,0,1,.85774-.27293c.00608,0,.07155-.00727.17106-.00727a1.72291,1.72291,0,0,1,1.17191.387.85643.85643,0,0,1,.70363.3979,4.31527,4.31527,0,0,1,.40766,1.02029.17155.17155,0,0,1-.00366.04609c-.03156.165-.1128.32275-.10678.36157h-.0218l.0218.006a.353.353,0,0,1,.00485.06435,3.387,3.387,0,0,1-.07765.64661,4.89369,4.89369,0,0,1,2.29047,1.97506,2.69728,2.69728,0,0,1,.3361.89649c.00361.05218.00361.08615.00361.1092v.02913a2.57919,2.57919,0,0,1,.64176.66115,6.77629,6.77629,0,0,1,.8832-.06305,4.82,4.82,0,0,1,.90744.08007l.00975.00242a1.39093,1.39093,0,0,1,.22926-.01944,1.55575,1.55575,0,0,1,.52164.09584.5596.5596,0,0,0,.21355.02062c.06187,0,.13466-.00118.222-.00118a2.26032,2.26032,0,0,1,1.43764.44884l.65872-.20138a1.49778,1.49778,0,0,1,.30089-.02546,1.63159,1.63159,0,0,1,1.5977,1.60137,1.77063,1.77063,0,0,1-.38939.94022l.00366.00851a17.93713,17.93713,0,0,1,.888,4.34192,17.22284,17.22284,0,0,1,.10677,1.92412,25.12551,25.12551,0,0,1-.94264,6.31542,3.27107,3.27107,0,0,0-.09218.797c-.01454,1.03365.4307,2.11941.751,2.17158a.09852.09852,0,0,1,.074.1056.09577.09577,0,0,1-.091.08975s-1.81125.20138-2.79875.20138c-.0728,0-.14317-.00243-.20988-.00243-.37729-.01335-.4222-.01093-.84314-.02913-1.3054-.06671-2.56831-.1128-2.98566-.1941.00609.03764.00976.05944.00243.03764a3.33135,3.33135,0,0,1,.4853.90258h0v.00485c-.01578.28026-.31182.49741-.41493.586-.12373.08976-.34573.16374-.44766.23293a.51715.51715,0,0,1-.27175.05945c-.08614,0-.16864-.00851-.24262-.01218a2.4095,2.4095,0,0,1-.46585-.11764,2.5204,2.5204,0,0,1-.427.04733c-.04124,0-.08615-.00243-.12615-.00609-.32151-.05944-.32033-.39064-.35063-.66723-.00243-.0328-.00243-.05827-.00243-.08373a1.03532,1.03532,0,0,1,.04006-.2766,3.037,3.037,0,0,1,.188-.4671,2.9755,2.9755,0,0,0,.11647-.35424.043.043,0,0,1-.03031,0c-.455-.06186-.64668-.24746-.99725-1.39273l-.21473-.78127a3.37668,3.37668,0,0,1,.09827-2.74633c.11764-.30566.76791-1.56255.76791-1.56255l.38462-.82376.023-.09217c-.15044.00366-.45617.00969-.88078.04608v.00976a5.01088,5.01088,0,0,1-.52288,2.23705s-.78612,1.19986-.89774,1.35633a1.00608,1.00608,0,0,0-.06553.44492c0,.08249.00242.15286.00366.19051l-.00124.006h.00124v.00485a2.02507,2.02507,0,0,1-.07646.38945.17778.17778,0,0,0-.00484.04733.98035.98035,0,0,0,.20988.49735c.10194.14076.28877.24753.38219.45133a.22513.22513,0,0,1,.02422.10553.74552.74552,0,0,1-.444.5581,1.96261,1.96261,0,0,1-.73885.10671,5.73421,5.73421,0,0,1-.65872-.04242.53385.53385,0,0,1-.47561-.57382c0-.06068.00733-.09584.00733-.11646,0,0,.19771-.60052.23293-.69879a1.27276,1.27276,0,0,0,.0218-.27423,2.51824,2.51824,0,0,0-.01454-.29113.1467.1467,0,0,1-.00608-.04851,2.23385,2.23385,0,0,1,.38337-.93874A1.42675,1.42675,0,0,0,26.048,26.634c0-.13951-.00845-.25716-.00969-.31058-.00367-.03391-.00367-.09093-.00367-.17951,0-.33846.00733-1.08582.0146-1.548H26.048a32.57762,32.57762,0,0,1-1.82219,2.71626.93576.93576,0,0,0-.05336.32275,4.29827,4.29827,0,0,0,.148.90109,1.52024,1.52024,0,0,1,.03882.33846,1.44375,1.44375,0,0,1-.29361.86619h0l-.01577.0182.35914,2.39357.51555-.12373,3.31442.68425a.093.093,0,0,1,.08125.09342v.00485h0v.81643a.1.1,0,0,1-.07156.09584L22.474,35.42067Zm.08851-.222,5.61458-1.64988V32.947L22.5092,34.54113Zm-3.10814-1.013,2.90677.9778V34.54l-2.90677-.956Zm3.01354.17224L27.795,32.82571l-2.86552-.592-.49008.11038.131.87109a.10223.10223,0,0,1-.19653.05212l-.30815-.8383-1.201.28392L22.474,33.74774a.09914.09914,0,0,1-.12249.06429.09753.09753,0,0,1-.0692-.11771l.16864-.88314-2.783.64537ZM9.527,31.35777a1.55582,1.55582,0,0,1,.67084.25963,16.14261,16.14261,0,0,0,1.57839,1.24347,8.16537,8.16537,0,0,0,1.79908.7983,15.32119,15.32119,0,0,1,1.85014.36635,3.18325,3.18325,0,0,0,.79947.11646.9237.9237,0,0,0,.71332-.24138c.39188-.438.52655-.45859.535-.66.01094-.15411.05945-.4525.05945-.74854a1.24678,1.24678,0,0,0-.11156-.58959c-.14684-.24386-.28268-.438-.3579-.53748-.017.04373-.04249.09342-.06553.14075-.31784.67693-.49015,1.55044-2.17519,1.53348H14.7303a3.88948,3.88948,0,0,1,.78612.41126.102.102,0,0,1,.00124.14554.09744.09744,0,0,1-.14075,0,8.3994,8.3994,0,0,0-1.26651-.5981c-.11044-.04485-.19653-.08007-.24268-.09218-.23044-.08249-2.32562-.91352-3.28765-1.37086a11.91924,11.91924,0,0,1-2.47-1.94108.50678.50678,0,0,0-.12982.26809,2.71691,2.71691,0,0,1-.19044,1.00575,6.20373,6.20373,0,0,0-.47313,1.32478s-.00124,0,0,.00727c.01938.15286.43548.86742.48524,1.00327H7.8043a.14067.14067,0,0,0,.02062.03155.5265.5265,0,0,0,.06677.06913l-.00366.00367a1.79444,1.79444,0,0,0,.20988.02547l.00118.00366c.00733-.00609.0146-.00609.028-.00609.05335,0,.12249.01336.16615.01336h.02553a.49206.49206,0,0,0,.10187-.04007.21885.21885,0,0,1,.09951-.2341c-.00243-.00609,0,0,.0182-.0182.01938-.0182.04242-.05218.06428-.07647.02063-.02664.04-.05211.05094-.06913-.08006-.02547-.17709-.06429-.23535-.08249-.03883-.023-.20138-.01211-.27784-.17833a.54334.54334,0,0,1-.07156-.222.30105.30105,0,0,1,.01944-.10677.71319.71319,0,0,1,.26809-.29237,5.23188,5.23188,0,0,1,1.14278-.66605h.01218l.006-.00361.00975.00361m20.49408,1.48981a2.38922,2.38922,0,0,0,.43431.11764c.07522.00367.15653.00969.22808.00969a.395.395,0,0,0,.16622-.02664c.13224-.08249.35548-.1638.42946-.22082.091-.05578.34939-.32268.33486-.42461a.07721.07721,0,0,1,0-.02063,5.161,5.161,0,0,0-.46344-.797s-.02428-.08131-.05217-.20746a3.39157,3.39157,0,0,1-.09585-.73034,1.2264,1.2264,0,0,1,.09585-.49008c.222-.42586,2.396-3.47785,2.39233-5.71981v-.06311a1.04723,1.04723,0,0,0-.16858.188,22.56415,22.56415,0,0,1-2.77092,2.48707.1005.1005,0,0,1,.00485.04,15.36436,15.36436,0,0,1-.43915,2.50613,4.60247,4.60247,0,0,0-.39548,1.18284h-.07765l.07883.00845-.00118.0049a3.78325,3.78325,0,0,1-.239.99477,2.4665,2.4665,0,0,0-.17591.4307.83387.83387,0,0,0-.0364.22442.19124.19124,0,0,0,.00485.05584c.02671.32268.06186.49493.17348.49132a.842.842,0,0,0,.09951.00361,2.55162,2.55162,0,0,0,.4161-.04609Zm-15.85736-.05826.44405.04248c.07516,0,.14311.0036.21473.0036,1.6038-.01938,1.62442-.69027,1.99319-1.41695a1.36627,1.36627,0,0,0,.09342-.25113c.00975-.03279.01578-.06429.02429-.08857a1.21162,1.21162,0,0,0,.01695-.21107,1.48216,1.48216,0,0,0-.2305-.69394c-.02062-.05944-.131-.38946-.25716-.79463-.20261-.62723-.4489-1.4085-.478-1.62417a7.39482,7.39482,0,0,0-.46952-1.178,1.28558,1.28558,0,0,1-.94383-.38089c-.057.10553-.09224.17709-.09224.17709l-.30088.60661c0,.00484-.40033.95929-.44157,1.17887h0v.00242h0c0,.01944.03273.057.11528.08982a2.00815,2.00815,0,0,0,.26325.06428,2.6547,2.6547,0,0,1,.60536.33971,2.16369,2.16369,0,0,1,.33486.36268.89687.89687,0,0,0,.06547.07522,2.06374,2.06374,0,0,1,.33.21964c0,.00242.44642.55437.48524.59686a.302.302,0,0,1,.08982.20379.16143.16143,0,0,1-.0328.10311.33836.33836,0,0,1-.1977.09585l-.06436-.02062-.57866-.3676-.06913-.02664c.0946.148.16131.28144.16982.28752,0,0,.14193.33846.21231.5071a.37856.37856,0,0,1,.02671.13467.273.273,0,0,1-.20622.24622.11931.11931,0,0,1-.05342.00609.37564.37564,0,0,1-.26206-.159l-.24747-.41244-.074-.10069.10186.34939s.08734.29722.108.35542a.19449.19449,0,0,1,.01572.07522.28241.28241,0,0,1-.12976.20144.16417.16417,0,0,1-.091.023.50821.50821,0,0,1-.1905-.05341l-.04851-.04367-.33729-.71941a.71327.71327,0,0,1-.39666.2584.262.262,0,0,0-.14684.08006.1963.1963,0,0,1-.15038.07889c-.05459-.00367-.08739-.02063-.08739-.02671a.23391.23391,0,0,1-.12131-.21715.37837.37837,0,0,1,.04491-.17833.82614.82614,0,0,1,.22442-.16983.82737.82737,0,0,0-.07038-.23535c-.00484.006-.0036-.00608-.03155-.02553-.02907-.0218-.06547-.05211-.10553-.07882-.07883-.06069-.1492-.10677-.18684-.13709-.03274-.02789-.35542-.29721-.35542-.29721a2.17634,2.17634,0,0,1-.45493-1.36726,2.38921,2.38921,0,0,1-1.3721.31908c-.40282,0-.82985-.0364-1.23987-.06187A3.44259,3.44259,0,0,1,7.6915,27.7683a2.97652,2.97652,0,0,0-.01944.31877,1.73346,1.73346,0,0,0,.49865,1.292c.0182.01336.02907.02423.04609.03882a11.92114,11.92114,0,0,0,2.44942,1.9289c.945.455,3.05354,1.292,3.26827,1.36124.04609.01938.11889.04609.21107.08125h.0182m8.7203-1.56622-.18318,1.31875.01329-.00366.73519-1.86219a.09765.09765,0,0,1,.09342-.06553.1046.1046,0,0,1,.09584.06795l.55928,1.51646H24.21l-.37486-2.49917-.02546-.26566a.62038.62038,0,0,0-.36517.24994,4.57914,4.57914,0,0,0-.39791,1.12334,1.80205,1.80205,0,0,1-.16137.41493l-.00118.00484M22.95561,32.48l1.0421-.239-.45735-1.241Zm11.36986-1.13316c.4161.02063.45977.01336.842.03038.06186,0,.12975.0036.20137.0036.09827,0,.20013-.0036.313-.006-.57139-.30814-1.52131-1.13191-1.57106-3.23435a.10831.10831,0,0,1,.09826-.10429.10316.10316,0,0,1,.10678.09944c.07764,2.89708,1.8343,3.198,1.8343,3.20523a.1565.1565,0,0,1,.02546.01093c.63208-.03764,1.32118-.10317,1.69237-.13957a3.52459,3.52459,0,0,1-.63692-2.19705,3.56543,3.56543,0,0,1,.09466-.84674,24.77811,24.77811,0,0,0,.94017-6.26573,16.40918,16.40918,0,0,0-.10672-1.89741,18.4087,18.4087,0,0,0-.83587-4.1903,4.32985,4.32985,0,0,1-.36759.39667l-.86625.6976A5.04553,5.04553,0,0,1,34.613,18.046a1.69739,1.69739,0,0,1-.61754.26933l-.00242.00242L33.23,21.32151a.1033.1033,0,0,1-.12249.074.09562.09562,0,0,1-.07279-.12007l.74245-2.92739c-.05093,0-.09709.00609-.14678.00609a2.09,2.09,0,0,1-.33243-.028,18.58326,18.58326,0,0,0-3.86762,9.31958,1.43347,1.43347,0,0,1,.17231-.20014c.15646-.1213.427-.33728.75214-.60052a22.99993,22.99993,0,0,0,2.79881-2.50035,1.26575,1.26575,0,0,1,.34089-.33119l.01453-.01336a2.16294,2.16294,0,0,1,1.212-.32877,1.91051,1.91051,0,0,1,.24144.01335.10016.10016,0,0,1,.08975.114.10161.10161,0,0,1-.11522.08733,1.62143,1.62143,0,0,0-.216-.01211,2.03073,2.03073,0,0,0-1.03359.2487c.006.06914.00727.14193.00727.21473-.00124,2.34507-2.22133,5.41526-2.4142,5.81683a.84339.84339,0,0,0-.06795.39306,2.99781,2.99781,0,0,0,.06547.58717.06184.06184,0,0,1,.04373.02068v-.00733a.1183.1183,0,0,0,.05577.01218,1.79843,1.79843,0,0,0,.20865.03031c.1723.01577.41374.03273.69878.05335.25237.01578.54475.03156.8529.04858a5.49985,5.49985,0,0,1-1.14042-.97421.10236.10236,0,0,1,.00975-.14435.10694.10694,0,0,1,.14436.01093,4.31573,4.31573,0,0,0,1.53341,1.12943.09608.09608,0,0,1,.02795.00484c.20138.01094.40275.02063.61264.02789m-19.72859-.154a.13426.13426,0,0,0,.04727.01335.23973.23973,0,0,0,.02429-.01944h.00124c-.03038-.08609-.11286-.376-.11286-.376l-.12007-.41126-.10559-.2669-.097-.28511a.09611.09611,0,0,1,.01336-.08857.09338.09338,0,0,1,.08367-.04851.10085.10085,0,0,1,.08739.04851l.47555.63568.24019.40523s.02187.02062.04249.03758a.14511.14511,0,0,0,.05093.03764c.05827-.02429.06311-.02429.06311-.04851a.32616.32616,0,0,0-.01459-.05826c-.0679-.1638-.20989-.495-.20989-.49617a2.19164,2.19164,0,0,0-.376-.53139.10236.10236,0,0,1,.09827-.17709l.4561.17709.55928.3615a.02264.02264,0,0,0,.01217-.00484.10465.10465,0,0,0-.03155-.05218c-.05093-.0582-.478-.58474-.478-.58474a1.881,1.881,0,0,0-.29237-.19169.57766.57766,0,0,1-.15044-.18193c-.00485.0036-.00485-.01093-.02914-.03037-.02546-.02789-.05826-.06429-.08975-.097-.07038-.07037-.142-.131-.1638-.15286a2.59294,2.59294,0,0,0-.51437-.29113c-.10317-.04249-.49256-.034-.53381-.35672a.17643.17643,0,0,1,.00118-.03516,11.30092,11.30092,0,0,1,.461-1.225l.30212-.61872s.05211-.097.12131-.2402a3.99,3.99,0,0,0,.36393-.92929.101.101,0,0,1,.08733-.09342s.7-.14069.67214-.35666c.00485-.08734.01939-.16864.01939-.256,0-.2705-.1371-.683-1.74455-1.27986a2.90215,2.90215,0,0,0-.86377.99842,6.21662,6.21662,0,0,0-.42585,1.13918,5.07926,5.07926,0,0,0-.1674,1.30173c0,.057,0,.11156.00366.17107.01212.42821.02665.8868.06063,1.30744a.1242.1242,0,0,1,.00485.057,2.308,2.308,0,0,0,.39914,1.38789s.31666.27057.36032.30572c.02187.03032.29964.17591.37368.31424a.97149.97149,0,0,1,.08852.31784.1853.1853,0,0,1-.03882.11522,2.02827,2.02827,0,0,1-.20865.148l-.00851.00366c.00367.00727-.02062.04609-.01453.07641a.06842.06842,0,0,0,.00366.03155.44.44,0,0,1,.25356-.14678.66006.66006,0,0,0,.165-.07646.22728.22728,0,0,0,.10919-.08857c.006-.12249.01211-.21473.01329-.22685a.06726.06726,0,0,1,.00367-.02546h.00124l.00243-.00485.00241-.00727h0a.10113.10113,0,0,1,.091-.05826.10215.10215,0,0,1,.097.06671l.45859.95476c.00609,0,.00969.00367.01578.00609m8.07245-.273a.257.257,0,0,0,.05217.16864,1.68368,1.68368,0,0,0,.12616-.33,4.59247,4.59247,0,0,1,.4258-1.18894.85226.85226,0,0,1,.61871-.3615.10818.10818,0,0,1,.11287.08857l.01087.14193a1.19521,1.19521,0,0,0,.14075-.56412,1.44316,1.44316,0,0,0-.03274-.29479,4.16277,4.16277,0,0,1-.15653-.94476,1.12873,1.12873,0,0,1,.06672-.387c.0813-.21591,1.11128-1.43031,1.83436-2.75024a4.47221,4.47221,0,0,0,.2123-.41492,3.70856,3.70856,0,0,0,.43673-1.50186,1.24315,1.24315,0,0,0-.00609-.13349l.00851-.05093.58841-1.25446a1.65505,1.65505,0,0,1-.25964.074L24.95,21.44406v.006a2.47,2.47,0,0,1-.30447.64785,2.04678,2.04678,0,0,0-.68178,1.11613,8.99159,8.99159,0,0,0-.36157,1.7397s-.17348.61872-.36517,1.2544c-.16013.53257-.33119,1.0688-.42579,1.286a3.86468,3.86468,0,0,0-.47555,1.06849c0,.11162-.01217.2269-.01217.34337a.8866.8866,0,0,0,.05217.33237.13813.13813,0,0,1,.01945.04609.03855.03855,0,0,0,.01453.02547.461.461,0,0,0,.13591.15652l.04484.0764.07522,1.377Zm7.28508-12.45406a.105.105,0,0,1,.08373.11764c-.02795.20138-.313,1.24714-.33485,1.45093a2.32523,2.32523,0,0,0-.02547.28635.99823.99823,0,0,0,.06913.36877,4.39319,4.39319,0,0,1,.24747,1.23745v.05826a13.61314,13.61314,0,0,1-.26933,1.55044c-.017.08366-.03273.15038-.04727.20622l-.0631.26324-.39673.848c0,.00485-.65388,1.26776-.75823,1.54678a3.38708,3.38708,0,0,0-.33,1.40117,3.2536,3.2536,0,0,0,.23654,1.20322l.21473.78854c.387,1.16223.45616,1.178.83593,1.2508a.15227.15227,0,0,1,.04124.0182,1.66029,1.66029,0,0,0,.05945-.37h.00242a.03761.03761,0,0,1-.00242-.01335,4.4629,4.4629,0,0,1,.41-1.26533,13.10679,13.10679,0,0,0,.40642-2.2914c-.2584.20746-.478.38095-.609.48281-.04485.03038-.34691.47164-.34691.47288a.09573.09573,0,0,1-.11647.04124.09786.09786,0,0,1-.07037-.10193,18.89773,18.89773,0,0,1,3.88575-9.74264,5.61927,5.61927,0,0,1-2.419-1.76516.42453.42453,0,0,1-.00367.0764,1.98876,1.98876,0,0,1-1.01054,1.27017c-.034.01336-.19293.10678-.28026.15411-.22684.43673-.43188.96811-.43915.98023a3.20787,3.20787,0,0,1-.18808.30448.04155.04155,0,0,1-.00969.01944,16.90515,16.90515,0,0,1-.95234,1.43882,1.2474,1.2474,0,0,1-.4161.28753.11359.11359,0,0,1-.00485.063l-.00969.01336-.62722,1.34179c.00117.04.00484.08249.00484.12256a3.70552,3.70552,0,0,1-.38213,1.43881,18.33492,18.33492,0,0,1,2.11574-.32274h-.00727c.53624-.04851.90868-.05336,1.04334-.057.01211-.04243.02547-.0946.03758-.154a12.704,12.704,0,0,0,.26088-1.50677c0-.02062.00118-.03516.00118-.05217a4.41087,4.41087,0,0,0-.23169-1.16341,1.20255,1.20255,0,0,1-.08739-.44281,2.32018,2.32018,0,0,1,.02913-.31542c.03155-.23417.313-1.28235.336-1.45217h0a.106.106,0,0,1,.10193-.08857l.01577.00124M25.50448,29.68c.00608.12976.02428.336.29721.3712a5.25287,5.25287,0,0,0,.63208.04006,1.85062,1.85062,0,0,0,.64785-.08255c.19411-.09336.33847-.29113.33-.37728a.09791.09791,0,0,0-.006-.02665c-.04733-.12013-.22082-.23293-.3579-.40765a1.13759,1.13759,0,0,1-.24989-.61991.33751.33751,0,0,1,.01329-.10919,1.89171,1.89171,0,0,0,.068-.32759v-.00118c-.00243-.03522-.00609-.11044-.00609-.2002a1.07935,1.07935,0,0,1,.10677-.56381c.10069-.1456.888-1.343.8893-1.35267a4.79107,4.79107,0,0,0,.49008-2.111,17.76945,17.76945,0,0,0-2.10363.33361c-.00242.24753-.01578,1.44249-.01578,1.89865,0,.08616,0,.1456.00243.16622.00242.05336.01093.17709.01093.32387a1.56916,1.56916,0,0,1-.16138.79829,2.04336,2.04336,0,0,0-.3433.81861v.0182a2.65957,2.65957,0,0,1,.01335.32144,1.15292,1.15292,0,0,1-.03155.34094c-.03156.08976-.222.67575-.22442.68177,0,0-.00124.02671-.00124.06677M7.36273,26.57334a2.12639,2.12639,0,0,0,.279.86134.84848.84848,0,0,0,.07037.08007,3.22582,3.22582,0,0,0,1.92772.81978c.41493.02187.83712.06187,1.22776.06187a2.07059,2.07059,0,0,0,1.35266-.35424c-.03273-.42548-.04491-.87681-.05944-1.30142-.00609-.06429-.00609-.12007-.00609-.17709a5.26192,5.26192,0,0,1,.15044-1.25564h-.0036a14.291,14.291,0,0,1-1.92778-1.78579c-.10914.057-.41244.21107-.68419.38579a2.08965,2.08965,0,0,0-.91352,1.201,1.04069,1.04069,0,0,0-.017.10671v.017A.83916.83916,0,0,0,9.1,25.79567l.00484.00609a.71034.71034,0,0,1,.46219.165A5.00639,5.00639,0,0,1,9.857,26.782c.07765.06672.71215.58357.71581.58717a.09516.09516,0,0,1,.01211.13951.10273.10273,0,0,1-.13951.01944c0-.00484-.63816-.52045-.71941-.59083-.14075-.15529-.20137-.70972-.31908-.8468a.88726.88726,0,0,0-.38337-.09336c-.26932-.02311-.57623-.017-.74-.03038V25.974h-.0036l-.00733-.0036a4.01855,4.01855,0,0,0-.9414.53623.09651.09651,0,0,1,.03155.06671m-1.434-1.17073a6.60417,6.60417,0,0,0-.08616.75947c.01578.40157.09709.69879.65637.71214h.0036a4.06083,4.06083,0,0,0,.56294-.37976.54467.54467,0,0,0,.05578-.05945,3.00448,3.00448,0,0,1,1.15862-.66723h.0036l.01944.00242L8.292,25.76778c.057.00242.26567.00242.495.01336a.87992.87992,0,0,1-.23293-.54835c0-.01093.00361-.023.00361-.0328a.1498.1498,0,0,1,.00484-.04124c-.03758-.02305-.19168-.12007-.35181-.21958a2.92527,2.92527,0,0,0-.37971-.22075c-.06429-.00609-.23659-.03882-.43673-.06311a3.58893,3.58893,0,0,0-.4671-.04609H6.89079a.31441.31441,0,0,1-.0679.006c-.21963.051-.8832.46468-.89413.78736m16.57553,1.23744a.48567.48567,0,0,0,.04006.08249c.023.04491.03758.051.04125.051,0-.00609.01211,0,.057-.05827l.19045-.26206.205-.33237a.12379.12379,0,0,1,.02062-.02429c.17833-.60661.33971-1.178.34456-1.18284a9.16219,9.16219,0,0,1,.34212-1.6851.40015.40015,0,0,0-.19293-.05218.58864.58864,0,0,0-.39908.18442c-.25.23659-.33244.3033-.36517.336-.29362.39914-.26207.34337-.296.4343a6.53376,6.53376,0,0,0-.165.72674h0v.00242l-.00366.01578a.544.544,0,0,1-.10187.36268,1.138,1.138,0,0,1-.36641.18927.12449.12449,0,0,1-.0946-.05094c-.01218-.02062-.074-.10311-.14075-.18441-.057-.07883-.12374-.14554-.13467-.13951a.25006.25006,0,0,0-.06671-.01212.10426.10426,0,0,1,.00609.03883.20487.20487,0,0,1-.17473.17466c.01211.0146.03273.0328.05827.05945l.30814.2633a1.42311,1.42311,0,0,0,.41126.256.58767.58767,0,0,0,.12491.01336.43558.43558,0,0,0,.37244-.17715.09265.09265,0,0,1,.03882-.03883c.0182-.12739.034-.24019.03883-.28026a.40272.40272,0,0,1-.11889-.32877,1.96323,1.96323,0,0,1,.03037-.29237h0a.10237.10237,0,0,1,.2038.01944,1.84718,1.84718,0,0,0-.03031.27293c.00484.12137.0218.17473.07155.19169.017-.00845.14678-.0036.15044-.13709a1.21692,1.21692,0,0,1,.16014-.47312.09986.09986,0,0,1,.1274-.06914.10361.10361,0,0,1,.0667.12616,1.28447,1.28447,0,0,0-.15162.427.34193.34193,0,0,1-.31057.32635c-.00975.06553-.02553.19411-.04975.32753a1.47073,1.47073,0,0,1-.1092.42946,1.36019,1.36019,0,0,0-.14075.45257h-.01938Zm-6.98663-.2669h.06553a2.33476,2.33476,0,0,0,1.56131-.91594,2.095,2.095,0,0,0,.27908-.99483,2.52548,2.52548,0,0,0-.65878-1.571.104.104,0,0,1,.0182-.1456.09848.09848,0,0,1,.14193.01578,2.74066,2.74066,0,0,1,.70245,1.70081,2.12926,2.12926,0,0,1-.22442.933c.83587-.21473,1.02756-1.35508,1.0506-1.7397V23.652a3.96475,3.96475,0,0,0-.09224-.387c0-.00485-.08733-.39791-.17709-.7473-.02913-.14678-1.02755-1.5723-1.11128-1.68144l-.00367-.00733a.63972.63972,0,0,0-.11889-.10671l-.01937-.01578a6.11187,6.11187,0,0,0-1.48491-.58959.32964.32964,0,0,1-.17591.11038,1.36286,1.36286,0,0,1-.38094.057,1.138,1.138,0,0,1-.29965-.0364.72416.72416,0,0,0-.08006-.04248c-.03038-.017-.06678-.03516-.07889-.04H14.4234c-.01218.00969-.07405.057-.13106.09218a1.683,1.683,0,0,0-.26443.12982c-.01943.06187-.08981.24262-.10317.29237-.017.068-.06305.33971-.06913.42946-.0182.10069.02789.26933-.12249.37368a1.0293,1.0293,0,0,1-.36033.17225c-.04366.00242-.10193.00484-.16255.00484a.50052.50052,0,0,1-.31306-.08249c-.114-.10069-.23293-.245-.32753-.3215a.086.086,0,0,1-.02428-.02305l-.94992.40282c-.00242,0-1.01178.25112-1.28229.28628-.23777.00727-1.14526.25722-1.1052.67817v.01695c.00367.08858.00367.17349.00367.24629,0,.12864-.00367.23293-.00367.32032.00367.16858.01093.21473.09342.285a2.29521,2.29521,0,0,0,.34213.22809c.22684-.13951.45611-.26324.58232-.3312-.08249-.08733-.13348-.14677-.14075-.15162a.10329.10329,0,0,1,.00609-.14559.10225.10225,0,0,1,.14553.00608s.08739.097.22808.24747a16.62466,16.62466,0,0,0,1.895,1.7797,6.83891,6.83891,0,0,1,.40766-1.06756,3.12236,3.12236,0,0,1,.9778-1.11247l.091-.01217c1.65957.60176,1.92648,1.09066,1.93014,1.49465-.00366.10678-.0182.199-.01944.26691-.06187.39548-.57381.49741-.77034.53139a4.11963,4.11963,0,0,1-.31784.8055.121.121,0,0,1,.04976.0364,1.06552,1.06552,0,0,0,.80915.32877M7.84554,24.51338a3.80978,3.80978,0,0,1,.7619.43306,2.60956,2.60956,0,0,1,.518-.83947,1.69769,1.69769,0,0,1,.32878-.28269,2.97381,2.97381,0,0,1-.28027-.19653.50957.50957,0,0,1-.16982-.444c0-.09342.006-.19777.006-.32032,0-.07156-.00242-.1492-.0036-.22442a.17709.17709,0,0,1-.00243-.03882c.03882-.67817,1.03-.842,1.28714-.882.2305-.02546,1.23744-.27417,1.23744-.27417l.89414-.37977a.86511.86511,0,0,1-.09342-.39908.9018.9018,0,0,1,.01093-.15895,2.34422,2.34422,0,0,1,.262-.6745h0c.01093-.017-.353-1.00091-.35909-1.00576-.0036-.01087-.575-.78-.68176-.99718a4.03155,4.03155,0,0,1-.60661-1.27385,17.04568,17.04568,0,0,1-2.33414.16256c-.24019,0-.49132-.00969-.74127-.02305a2.57917,2.57917,0,0,0-.60537,1.63659c0,1.02508.29,2.544.29,2.94919H7.50224l.06311.01212A9.0396,9.0396,0,0,1,7.353,22.61231a3.87933,3.87933,0,0,0-.11162.86258,2.52391,2.52391,0,0,0,.17833.94507.1678.1678,0,0,1,.00484.03516c.19535.02546.38455.05584.42095.05826m14.47315.38822v0Zm-.19044-.01945-.00242-.006ZM6.58872,16.561a2.52951,2.52951,0,0,0-.8868,2.09276v.03882c.00726.61506.04851,1.34173.04851,2.05512a5.55113,5.55113,0,0,1-.43313,2.54277c-.04727.08249-.09826.165-.15771.25,0,0-.222.28386-.20746.37486.00975.0218,0,.00969.05826.02671.37.02665.65028-.0146.88321.2438a.935.935,0,0,0,.20622.19411,2.42621,2.42621,0,0,0,.48164.04615c.0764,0,.15528-.00491.24143-.01093a.26425.26425,0,0,1,.07274-.00727h.03155a2.63159,2.63159,0,0,1,.27542.0182,2.78092,2.78092,0,0,1-.165-.95116,3.87325,3.87325,0,0,1,.11889-.905,10.26763,10.26763,0,0,0,.2074-1.25079.07708.07708,0,0,1-.00118-.03883c0-.35548-.29237-1.89858-.29237-2.94919a2.74136,2.74136,0,0,1,.55927-1.6487c-.34454-.02671-.69394-.06795-1.03724-.1274l-.00367.006M3.99861,23.64471a3.44054,3.44054,0,0,0,.33362.11647c.15044.04248.31666.08255.41977.10435a1.16441,1.16441,0,0,1,.2438-.44766,2.16868,2.16868,0,0,0,.142-.22926,5.34958,5.34958,0,0,0,.41126-2.44091c0-.70606-.04609-1.42913-.04975-2.04543-.00125-.0218,0-.03758,0-.04851A2.88741,2.88741,0,0,1,6.33635,16.504c-.14435-.03031-.285-.06913-.42579-.108a3.11269,3.11269,0,0,0-.78737,2.02965l-.23777,2.931a.1449.1449,0,0,1,.00727.057,2.05006,2.05006,0,0,1-.1856.65878s-.24386.53984-.38579.84923c-.10193.22324-.11647.24989-.14075.29237a2.032,2.032,0,0,1-.29964.36151.30935.30935,0,0,1,.00727.03273l.0085-.01087a.59457.59457,0,0,0,.10193.04727m1.23621-7.07638a3.42925,3.42925,0,0,0-.51562,1.61106A14.26546,14.26546,0,0,1,4.3941,20.653a8.32649,8.32649,0,0,1-1.37453,1.88288.35627.35627,0,0,0-.07156.19044.2888.2888,0,0,0,.1092.21839l.67568.467c.00366.00609.00733.00609.01217.01218a2.171,2.171,0,0,0,.2584-.31058c.01938-.03882.02913-.05217.13224-.27417.14435-.30939.38455-.84923.381-.84562a2.02054,2.02054,0,0,0,.17106-.5799h.03516l-.0364-.03032.23535-2.96621a3.35966,3.35966,0,0,1,.77158-2.08909,1.46841,1.46841,0,0,1-.16013-.057,1.00553,1.00553,0,0,0-.29845.29728m15.235,6.13137a.07284.07284,0,0,0,.03633.017.10206.10206,0,0,1-.04851-.02429.02613.02613,0,0,0,.01218.00733m-3.23678-1.99083c.00608.01094.78251,1.08458,1.05787,1.56864l1.34179-.29846c.37368-.2038.42462-.32392.44039-.35548.10436-.17224.28269-.14069.381-.18678a5.99154,5.99154,0,0,0,.5556-.32759.39792.39792,0,0,1,.25231-.08491.63687.63687,0,0,1,.15287.02062.33614.33614,0,0,1,.18566.20989c.057-.00367.13826-.01093.21473-.01944a1.84965,1.84965,0,0,1,.21957-.01938.33866.33866,0,0,0,.23411-.36151.87584.87584,0,0,0-.04485-.26572c-.03279-.1456-.46343-.41853-.46952-.41244a.14735.14735,0,0,1-.05093-.07038.0954.0954,0,0,1,.01453-.07522.31916.31916,0,0,0,.06671-.18318.21473.21473,0,0,0-.074-.16621l-.03515-.04367a.42354.42354,0,0,0-.364-.26815,1.2681,1.2681,0,0,0-.19411-.01577,4.4923,4.4923,0,0,1-.81885-.50226c-.03038-.05212-.99725-.114-1.41218-.17591a.33.33,0,0,0-.08124-.00845.85814.85814,0,0,0-.5945.36878.76129.76129,0,0,1-.41368.26572c-.03515-.01944-.27175.21349-.353.319a2.71491,2.71491,0,0,1-.2123.205A.39211.39211,0,0,1,17.17,19.879c-.06193.01577-.11162.15168-.10677.31908a1.78347,1.78347,0,0,0,.04484.37126l.00125.01453a.818.818,0,0,1,.114.11038c.00366.00124.00726.00851.00969.01459M12.12684,9.578a.10027.10027,0,0,1,.03522.13827,18.16049,18.16049,0,0,0-.89047,1.67056,6.077,6.077,0,0,0-.26448,1.20223c-.01218.09708-.01821.17715-.02063.205a14.432,14.432,0,0,1-.06553,1.63659c-.01695.10913-.023.20864-.02913.30324v.12013a1.65049,1.65049,0,0,0,.06677.53983,5.899,5.899,0,0,0,.16616,1.02154,4.06553,4.06553,0,0,0,.61872,1.326c.08373.17106.66605.96451.68059.98632a11.59309,11.59309,0,0,1,.37976,1.104v.00969a4.58047,4.58047,0,0,0-.26088.70121.60166.60166,0,0,0-.01087.12255.63906.63906,0,0,0,.11647.3797.37621.37621,0,0,0,.05335.0582c.11889.09467.23536.24026.32394.31182a.29753.29753,0,0,0,.18441.04124c.05211,0,.10311-.00484.148-.00484a1.02632,1.02632,0,0,0,.26814-.1456.629.629,0,0,0,.02547-.20864,3.0778,3.0778,0,0,1,.07764-.4671c.01578-.06062.06187-.18684.09218-.26691a.08616.08616,0,0,1,.01578-.05335l.00969-.01211a.09576.09576,0,0,1,.0364-.04976,1.13436,1.13436,0,0,1,.30573-.16622c.03279-.00969.08981-.08975.19652-.114a.07461.07461,0,0,1,.0328-.00727h.00485a.62258.62258,0,0,1,.245.09827,1.0051,1.0051,0,0,0,.22082.023,1.13772,1.13772,0,0,0,.31417-.04491c.02062-.00844.04006-.01937.05217-.02422a.48145.48145,0,0,0-.13466-.074,2.1474,2.1474,0,0,1-.55319-.30691.75438.75438,0,0,0-.387-.15286c-.28393-.08373-.48773-.66966-.68308-1.20465a6.08988,6.08988,0,0,1-.27417-1.77007.41376.41376,0,0,1,.00242-.04243.13444.13444,0,0,1,0-.03521,5.2747,5.2747,0,0,0-.57139-1.79306,1.48671,1.48671,0,0,1-.06546-.19044.4409.4409,0,0,1-.01578-.11286c-.00609-.10554.0728-.17952.06671-.15889a3.52938,3.52938,0,0,0,.62114-1.38907.9234.9234,0,0,1,.61264-.55928,1.75267,1.75267,0,0,0,.51194-.52287,2.26075,2.26075,0,0,0,.32393-.64661,1.67509,1.67509,0,0,0,.07647-.49015,1.54232,1.54232,0,0,0-.16138-.6927,1.68083,1.68083,0,0,0-.48772-.59207,2.09211,2.09211,0,0,0-.32026-.20014,2.309,2.309,0,0,0-.939-.23659.10218.10218,0,0,1-.04124.00609c-.40765.02664-2.31476.24628-2.87764.882-.48405.52046-.791.933-.78494,1.2908a.80818.80818,0,0,0,.2038.51437c.41735.53623.86867.98029,1.24229.96693a.576.576,0,0,0,.17958-.03031h.00117c.00851,0,.01093-.00242.0182-.00242a5.74584,5.74584,0,0,1,.25964-1.15253A16.68114,16.68114,0,0,1,11.98733,9.618a.0965.0965,0,0,1,.08858-.05218.15537.15537,0,0,1,.05093.01218m12.76985,9.476a1.87269,1.87269,0,0,0-.50226.99842.2889.2889,0,0,0,.01211.09827c.07647.34821.2366.91109.296,1.1198l.12982-.01578,1.98232-.23535c0-.00243.12858-.03156.29237-.09467a1.36692,1.36692,0,0,0,.51562-.30572,7.14323,7.14323,0,0,0,.49616-.7109.93062.93062,0,0,1-.44641.12255.77354.77354,0,0,1-.29971-.06311c-.04-.023-.23411-.09944-.336-.14069l-.222.19653a.30192.30192,0,0,1-.09826.01329c-.40158-.03149-.50351-.5835-.5714-.683a.3074.3074,0,0,0-.17956-.154,1.57446,1.57446,0,0,1-.32151-.06311c-.00485-.00242-.35424-.27417-.53015-.43064a.83469.83469,0,0,1-.21715.34816m1.83188.78736.21839-.2038.10678-.017s.10671.03522.20988.08249a.0867.0867,0,0,1,.03031-.02907l.205-.125a.09793.09793,0,0,1,.13827.0364.102.102,0,0,1-.03156.13951l-.11646.07156a.53568.53568,0,0,0,.18324.03037c.19044,0,.50343-.08857.87829-.62723a2.77684,2.77684,0,0,0,.18927-.29722s.21715-.55927.45859-1.01544l.04851-.04491c.04366-.0182.24019-.14678.33-.17709.61264-.216.87588-1.11.87588-1.11l.00242-.08733c0-.05342,0-.13466-.00242-.22206a.10139.10139,0,0,1,.09466-.1128h.01087a.091.091,0,0,1,.08739.04125,5.85643,5.85643,0,0,0,2.61073,1.93865,2.30874,2.30874,0,0,0,.37368.03758,1.47389,1.47389,0,0,0,.68544-.16255c-1.89015-.54593-2.52706-1.43882-2.52464-2.3329a4.30267,4.30267,0,0,1,1.43639-2.65688,1.17987,1.17987,0,0,0-.32026-.04484.96883.96883,0,0,0-.47679.12249c-1.19253.4671-1.85858,2.50886-1.84883,2.53432h0a.10729.10729,0,0,1-.11286.0946.10368.10368,0,0,1-.09343-.11037,4.65247,4.65247,0,0,1,1.91077-2.67744c-.17473-.017-.3494-.02429-.52531-.02429a9.41783,9.41783,0,0,0-3.80574.99482,2.25719,2.25719,0,0,0-.73277.54351.68654.68654,0,0,1,.08616-.00367.32749.32749,0,0,1,.18684.0364,4.22418,4.22418,0,0,0,.40157.18317,1.32077,1.32077,0,0,0,.27293.08734c.16137.01217.65512.20988.7.20746.08373.0364.36636-.05093.44642.21839a.21608.21608,0,0,1-.006.05218c-.01945.05336-.04367.10553-.0546.13951a.36954.36954,0,0,1,.25113.25231s-.00367,0-.00367.03279c-.03155.08976-.09342.19529-.09342.22318h0c.00367.03522.19293.30939.23777.427a.58343.58343,0,0,1,.034.18926.29322.29322,0,0,1-.07882.21231.47749.47749,0,0,1-.0546.04609.22814.22814,0,0,1,.02547.11286.3353.3353,0,0,1-.09342.22808c-.03156.023-.11038.15771-.17833.2402a2.66875,2.66875,0,0,1-.30331.38821c-.11522.07765-.256.0582-.30088.08858l-.00242-.00485a.61526.61526,0,0,1-.48282.25113.01957.01957,0,0,1-.01578.00727h-.0267a1.65139,1.65139,0,0,1-.43673.14678.19485.19485,0,0,1-.188-.1128.99742.99742,0,0,1-.06187-.3676.88819.88819,0,0,1,.02547-.2305c.057-.13951.1856-.22933.1856-.25964a.29742.29742,0,0,0,.01093-.0728c.00242-.03516,0-.05093-.00608-.05578a.43376.43376,0,0,1-.15529-.29722.29639.29639,0,0,1,.09224-.21112,4.58082,4.58082,0,0,0,.51921-.88681.46474.46474,0,0,0,.02062-.125.39277.39277,0,0,0-.02913-.1456c0-.00118-.43188-.256-.4743-.26809a3.64666,3.64666,0,0,0-.63817-.12739h0V15.03l-.01093.00243H26.9882c-.04975,0-.11528-.00243-.17957-.00243a.61089.61089,0,0,0-.30815.04852c-.14435.0813-.48163.21473-.51921.239-.04976.04-.313.28026-.31424.28629l-.36026.3033A1.96061,1.96061,0,0,0,24.86271,17.17c-.0036.04851-.0036.09224-.0036.14436a2.97771,2.97771,0,0,0,.04124.51443,1.46963,1.46963,0,0,0,.28387.666c.04124.05826.54592.45008.54474.46468.023.00242.21833.03639.24864.03639a.48621.48621,0,0,1,.3543.26809c.05578.15771.23653.60294.38456.56779h.00484c.00727,0,.01453,0,.00727.00969m1.03-4.86965a4.0658,4.0658,0,0,1,.54107.32269.45818.45818,0,0,1,.07647.279.54777.54777,0,0,1-.03156.19535,4.56139,4.56139,0,0,1-.56412.9632.08631.08631,0,0,0-.03522.06435c-.00242.04609.0692.12616.108.16374a.28435.28435,0,0,1,.05578.18926.48223.48223,0,0,1-.02547.1492c-.0582.12255-.16864.19535-.17957.25355a.50235.50235,0,0,0-.017.16019.865.865,0,0,0,.04609.29v-.01459a3.27363,3.27363,0,0,0,.41126-.13827c.017-.0146.02671-.00975.0328-.00733h.00726a.84425.84425,0,0,0,.29114-.10069c.02788-.01938.02788-.01938.02547-.01938.11888-.216.37367-.13951.37851-.1856a4.36828,4.36828,0,0,0,.27418-.36156,2.9188,2.9188,0,0,1,.18442-.24629.1482.1482,0,0,0,.03031-.08124l.00366-.00609a.17267.17267,0,0,1-.04366-.1092c.01937-.131.097-.15162.13342-.1941.00484,0,.0182-.02423.0182-.06187a.39154.39154,0,0,0-.02181-.11764c-.01944-.07038-.2087-.3276-.24268-.438a.1557.1557,0,0,1-.01087-.05945.513.513,0,0,1,.09585-.24628.3119.3119,0,0,1-.04733-.03516.87666.87666,0,0,0-.13106-.06919.15993.15993,0,0,1-.07883-.13342.599.599,0,0,1,.06187-.19293.29986.29986,0,0,0-.057-.017,1.11308,1.11308,0,0,0-.19045-.02062c-.13348-.01578-.609-.20864-.70245-.20864a2.13954,2.13954,0,0,1-.33846-.10069,4.22228,4.22228,0,0,1-.43555-.20386.0632.0632,0,0,1-.023-.0036.16387.16387,0,0,0-.04975,0,1.72943,1.72943,0,0,0-.22076.01695c-.12622.01212-.24752.03156-.29.03883a4.156,4.156,0,0,1-.586.16864l-.00726.00484-.00367-.00484h-.006a4.44529,4.44529,0,0,1-.603.29237c-.18193-.00485-.05093.40517-.52406.53015a.30041.30041,0,0,0-.20019.148c-.108.16622-.07765.404-.26324.5435V16.396a.53266.53266,0,0,0,.01454.11287l.00241.01087a1.49811,1.49811,0,0,1,.04007.26932.33425.33425,0,0,1-.01577.10311c0,.00733-.00243.017-.00243.03038a.12889.12889,0,0,0,.02789.08367,2.0578,2.0578,0,0,1,.49983-1.24956l.36033-.30573c.00242-.00484.25113-.239.33237-.29721.09709-.06429.41132-.17591.529-.24989a.89893.89893,0,0,1,.4161-.07764c.0728,0,.13833.006.17957.006h.01212c.01335-.006.02062,0,.02913,0h.00484a3.8032,3.8032,0,0,1,.72426.13957m5.67278-1.889a4.2997,4.2997,0,0,0-1.43758,2.572c.00485.80793.55928,1.6438,2.55856,2.1873a4.84967,4.84967,0,0,0,1.3867-1.05787l.88072-.72425s.85165-.81644.83712-1.37211A1.43448,1.43448,0,0,0,36.2617,13.2903a1.78118,1.78118,0,0,0-.256.0182l-.69034.216-.0946-.01218a2.062,2.062,0,0,0-1.35633-.444c-.07764,0-.15162.00609-.222.00609a.903.903,0,0,1-.19411-.01336l-.017.0218M18.69134,17.17a1.57024,1.57024,0,0,0,.27777.07646,4.00168,4.00168,0,0,0,.70488.074.80805.80805,0,0,0,.273-.03031c.15647-.02789.33722-.85047.33362-.85047.00484-.07156.01335-.14069.01335-.21473a1.3741,1.3741,0,0,0-.051-.36026,1.74253,1.74253,0,0,0-.08857-.26573,2.14354,2.14354,0,0,1-.18193-.78127.28743.28743,0,0,1,.00242-.04733V14.751a.94033.94033,0,0,0-.18318-.47313.89328.89328,0,0,1-.25845-.56052c0-.03273.00242-.06671.00608-.10553a1.283,1.283,0,0,1,.47438-.82252c.02179-.00727.05943-.02547.10794-.04851a.46759.46759,0,0,0-.06428.02547l-.06671.00242c0,.00242-.03522-.00485-.09585-.00485a.61766.61766,0,0,0-.57629.39306,1.22159,1.22159,0,0,0-.33362.34815,14.33428,14.33428,0,0,0-.43306,1.508,2.02486,2.02486,0,0,1-.07162.46343c-.091.2038-.592.68177-.5799.939a.16455.16455,0,0,0,.06553.13342l.01211.00608c.3858.28027.53021.33722.62239.5714h.0036a.64142.64142,0,0,0,.0874.04366M5.88993,16.17769A6.21771,6.21771,0,0,0,6.556,16.339a9.879,9.879,0,0,0,1.26291.15044c.26932.01454.54108.01945.80189.01945a18.09079,18.09079,0,0,0,2.28078-.15044,6.0562,6.0562,0,0,1-.14441-.91961,2.002,2.002,0,0,1-.07032-.55319l-.01944.01454c-.20746.15286-.64661.46343-1.11613.774a.93951.93951,0,0,1-.52891.1674,2.03328,2.03328,0,0,1-1.12582-.57741.64257.64257,0,0,0-.35306-.08616,10.69932,10.69932,0,0,0-1.24229.19411.77738.77738,0,0,1-.11646.006,1.24329,1.24329,0,0,1-.808-.35785.53464.53464,0,0,0-.0728.2802,1.48391,1.48391,0,0,0,.28634.77643c.09827.03522.19771.07038.29964.10075m16.51125.26933a.71722.71722,0,0,0,.23051-.03764,1.36821,1.36821,0,0,0,.33361-.239.20738.20738,0,0,0,.10311-.17466c0-.06187-.03882-.15771-.03882-.27784a.34919.34919,0,0,1,.0182-.12007.17765.17765,0,0,0,.01093-.06435.40159.40159,0,0,0-.11888-.24622.11206.11206,0,0,1,0-.1456.14414.14414,0,0,1,.03764-.0267c-.0182-.0182-.03764-.0364-.06311-.06187a.813.813,0,0,0-.11771-.097.12452.12452,0,0,1-.05453-.11162c0-.034.0036-.05342.0036-.08373A.131.131,0,0,0,22.73,14.6903a1.74423,1.74423,0,0,1-.11889-.41728c0-.01336-.0546-.22933-.057-.24753a.33065.33065,0,0,0-.18926-.256l-.07031-.09218c.00845-.07162-.13957-.18684-.14442-.18684l-.04609-.09466a.20356.20356,0,0,0,.00485-.04609c.02062-.17467-.18193-.09342-.319-.34573.00484-.05826-.273-.22082-.3179-.256-.074-.13349-.39666-.2002-.41126-.2002h-.00118a1.076,1.076,0,0,0-.2815.06795,1.71665,1.71665,0,0,1,.39915.07883c.00241,0,.24143.20628.279.23777a4.2618,4.2618,0,0,1,.36157.26448.63288.63288,0,0,1,.20988.36157.101.101,0,0,1-.08739.114.09967.09967,0,0,1-.11522-.08373.46111.46111,0,0,0-.14194-.23659c-.12013-.10187-.29845-.21473-.35548-.26082a3.17826,3.17826,0,0,1-.24628-.22566,1.53391,1.53391,0,0,0-.37362-.04609,1.36466,1.36466,0,0,0-.62481.15771,1.30079,1.30079,0,0,0-.3397.67332.378.378,0,0,0-.00485.06671.67513.67513,0,0,0,.21716.43312,1.11611,1.11611,0,0,1,.22206.60053l-.00125.04v.02671a1.69116,1.69116,0,0,0,.08734.48772,5.01443,5.01443,0,0,0,1.61839.222h.00118a2.46709,2.46709,0,0,0,.44765-.25237.20286.20286,0,0,0,.00851-.06305,2.61821,2.61821,0,0,0-.09826-.455c0-.01087-.0036-.023-.0036-.03633-.00125-.01094-.00491-.05827-.01578-.12013a1.99,1.99,0,0,1-.50468.19044.104.104,0,0,1-.12255-.08125.10729.10729,0,0,1,.07888-.12255,1.71544,1.71544,0,0,0,.47189-.17957.098.098,0,0,1,.04609-.01454c-.02547-.17224-.05336-.35548-.057-.3943a.10879.10879,0,0,1,.09826-.11156.10519.10519,0,0,1,.10677.09827c.00367.0546.09827.6381.10311.73519v.00844h0v.00975a2.019,2.019,0,0,1,.10069.47313.27778.27778,0,0,1-.07882.21473,2.06469,2.06469,0,0,1-.41493.2402.31093.31093,0,0,0-.00242.0449.74373.74373,0,0,0,.26324.60537c.02553.04125.0546.09218.074.12982h.017m1.99934-.08255a.217.217,0,0,1,.1092-.17709c.023.01211.07031-.24628.18435-.461a.49093.49093,0,0,1,.33244-.24989c.30206-.02553.11764-.347.5071-.52536.27051-.0764.47312-.2802.66723-.2984h.01336c.0764,0,.42462-.13951.54716-.16864.03392-.00124.11156-.01453.20622-.02671a.13017.13017,0,0,1,.02062-.07155,2.50427,2.50427,0,0,1,.7473-.61748,2.18367,2.18367,0,0,1-1.02756-1.70455.39261.39261,0,0,1,.00367-.06553l-.00367.00367-.08366.057a1.95486,1.95486,0,0,1-.05585.2038c-.05577.10553-.02062.21473-.16013.2851l.00485.00242a.12263.12263,0,0,1-.05094.01578H26.361c-.02546,0-.03031-.00484-.03031,0v-.00484h-.01335c-.16013-.08373-.30573-.40033-.32393-.40884l-.01211-.08131.21355-.73518.0764-.7473a2.43188,2.43188,0,0,1-1.20956.34088h-.04727c-.41492-.12615-.64058-.66239-.73033-.92563a.205.205,0,0,0-.02671.05094.18381.18381,0,0,0-.01094.06435c-.00118.07155.03765.18677.06069.353a1.13855,1.13855,0,0,1,.00969.18442,2.82727,2.82727,0,0,1-.05094.52406.30193.30193,0,0,1-.32392.17349h-.01944c-.00485.01093-.00485,0-.02063.01459a.54469.54469,0,0,0-.08366.04243c-.06069.03037-.11405.06186-.11405.06186a.10374.10374,0,0,1-.11037-.0036.10113.10113,0,0,1-.04131-.10069s.04615-.28635.06311-.36275c-.00367-.05093-.17709-.4489-.2184-.58356a11.40677,11.40677,0,0,1-.18559-1.40118V9.01143l.00366-.00484A7.09221,7.09221,0,0,1,23.47,8.03487a4.18615,4.18615,0,0,1,.30815-.83227,1.626,1.626,0,0,1,.14436-.19287.98855.98855,0,0,0-.46462-.114,1.42747,1.42747,0,0,0-.74972.24144l-.04609.01938s-.38946.04975-.61027.074c-.18927.02789-.32511.0764-.85526.70605a1.04912,1.04912,0,0,0-.28026.70482A.78467.78467,0,0,0,21,9.02118h0a.2001.2001,0,0,1,.01336.0364h.006a.43738.43738,0,0,1,.20138.04,2.93264,2.93264,0,0,1,1.44857,1.07489,1.07879,1.07879,0,0,1,.097.36635.537.537,0,0,1,.20138-.09217l-.21349-.82737a.10027.10027,0,0,1,.07155-.12379.10291.10291,0,0,1,.12616.07037l.30455,1.178a.10738.10738,0,0,1,.0036.02547,3.80821,3.80821,0,0,1,.22206,1.23744,2.34832,2.34832,0,0,1-.30455,1.24838c-.01578.02062-.36026.814-.38939.87712a.91918.91918,0,0,1,.023.11161,2.11507,2.11507,0,0,0,.09945.35182.34623.34623,0,0,1,.04006.165c0,.02062-.00242.04366-.00242.057a.52774.52774,0,0,1,.24988.31666v.01211a.17981.17981,0,0,1-.03273.09342.53238.53238,0,0,1,.097.29355.38312.38312,0,0,1-.01938.1274.17005.17005,0,0,0-.00851.057.62111.62111,0,0,0,.00975.09584Zm-8.71906-2.22494a1.05392,1.05392,0,0,0-.18442.58959.25027.25027,0,0,0,.00242.03156.18393.18393,0,0,0-.00242.03515c0,.08982-.00484.182-.00484.25722.00726.182.0182.27175.18926.34455a1.98415,1.98415,0,0,1,.22926.11888,1.549,1.549,0,0,0,.73519.27418.72453.72453,0,0,0,.40641-.12982.36344.36344,0,0,0,.165-.3494.80759.80759,0,0,0-.01579-.1577l.04615-.10429c-.00124-.00491.1856-.12982.17349-.22809a.139.139,0,0,0-.02671-.07646l-.15168-.25113a.09414.09414,0,0,1-.00361-.0946.09881.09881,0,0,1,.074-.05826l.47555-.07883a.37977.37977,0,0,0,.09709-.04608h.00485c-.14318-.02553-.34332-.06554-.36878-.06554-.07765-.00608-.55568-.07646-.552-.0813l-.04733.00484a.5014.5014,0,0,1,.04366.16864.16033.16033,0,0,1-.063.12373.94851.94851,0,0,1-.421.13958.27709.27709,0,0,1-.12857-.028l-.1092-.05459a.1022.1022,0,0,1-.04485-.13951.099.099,0,0,1,.13709-.04125l.10914.0546a.194.194,0,0,0,.03639.00367.81121.81121,0,0,0,.2766-.08249.78222.78222,0,0,0-.06187-.13106l-.30082-.08249-.3033-.08125a1.44124,1.44124,0,0,0-.41126.21591m-7.666.96085c.256.18684.62114.5435,1.00693.53623a.70812.70812,0,0,0,.41611-.13466c.38337-.25355.74612-.50592.98022-.66972l-.78854-.262c-.165-.04615-1.06762-.41368-1.20831-.41492a2.62532,2.62532,0,0,1-.90625-.34939,2.26035,2.26035,0,0,1-.67816-1.02756v-.01211c.00851-.11771.06186-.71823.14193-1.22533a3.03327,3.03327,0,0,0-1.34782,1.434c-.00124.00242-.46828.56294-.649.72667-.017.00243-.04858.08491-.04491.19653a.95688.95688,0,0,0,.15286.53264c.0728.06913.17591.205.32511.34939a.11182.11182,0,0,1,.04006.03031l.01093.01211a1.09911,1.09911,0,0,0,.71817.35424c.03155,0,.06187-.00484.08975-.00484a10.10474,10.10474,0,0,1,1.269-.19411.811.811,0,0,1,.472.12255m5.62545-.7291a.40445.40445,0,0,0,.05093.22684,1.43185,1.43185,0,0,0,1.18893.899c.04851.00243.347.01454.59935.02423a.555.555,0,0,1-.19411-.46828c0-.08976.00845-.17349.00845-.25722a.25061.25061,0,0,1,.00124-.03515l-.00124-.03156a1.274,1.274,0,0,1,.222-.71332,1.56463,1.56463,0,0,1,.53506-.29361h.06062l.14441.0364a4.73906,4.73906,0,0,0-.55443-.47922V13.283a.0779.0779,0,0,1-.03279-.04491c-.00969.00124-.0133.00733-.01938.01217-.51922.22809-1.44975.55437-1.44006.54468l-.53133.27175a1.61043,1.61043,0,0,0-.03764.30455M7.62963,13.6361a2.39424,2.39424,0,0,0,.80557.31417c.23653.01944,1.1052.38579,1.2544.421l.92078.30691.01093.00727c.0364-.02671.057-.04243.057-.04243v.0036a.02673.02673,0,0,1,.017-.01335c.00366-.06789.01217-.15044.02186-.23293.0825-.62475.05579-1.44726.068-1.61715,0-.01938.00242-.05217.006-.097a.66127.66127,0,0,1-.17106.01938c-.51921-.00969-.97172-.50828-1.40242-1.04334a1.02808,1.02808,0,0,1-.24871-.64176,2.44889,2.44889,0,0,1,.8383-1.42913,3.8912,3.8912,0,0,1,2.009-.81283c-.06429-.00242-.131-.00242-.19529-.00242a3.88033,3.88033,0,0,0-.81525.06677,8.75875,8.75875,0,0,0-1.81492.50226c-.28877.16982-.60419.80432-.94023,1.0142-.3069.17467-.67574.32269-.78494.76066-.0218.08615-.04366.19044-.063.30815-.091.51561-.15287,1.23135-.16138,1.3539v.00727a2.59577,2.59577,0,0,0,.58841.84681m6.33517-1.22776c-.245.11889-.40517.1456-.51194.43673a3.77757,3.77757,0,0,1-.64059,1.428l.68183-.34455.63692-.31666c.00243-.00124.93172-.32635,1.43516-.54835a1.82443,1.82443,0,0,0,.273-.14075,2.39877,2.39877,0,0,0,.023-.30691c-.02186.017-.04609.03274-.07037.04852L15.2702,13.01a.10008.10008,0,0,1-.13951-.02546.10474.10474,0,0,1,.02789-.14678l.52288-.347a.68612.68612,0,0,0,.15889-.13951,1.19015,1.19015,0,0,0,.2269-.73394.923.923,0,0,0-.00366-.09466L14.59806,11.9l.00242.00242a.099.099,0,0,1-.09093-.0182,1.94888,1.94888,0,0,1-.54475.52412M26.913,12.06379a2.017,2.017,0,0,0,1.0288,1.60138,10.43824,10.43824,0,0,1,2.709-.88315,2.41415,2.41415,0,0,0-.60052-.57747,4.049,4.049,0,0,0-.84557-.47313.10417.10417,0,0,1-.057-.13591.10283.10283,0,0,1,.13342-.05459,3.84342,3.84342,0,0,1,.74855.40281,2.78073,2.78073,0,0,0-.30815-.78376,4.69777,4.69777,0,0,0-2.17767-1.89132.37135.37135,0,0,0-.02181.12013c0,.01335,0,.02546.00118.03882a3.60291,3.60291,0,0,1,.08249.49374.28528.28528,0,0,1-.04609.16256c-.04123.04851-.091.08857-.12373.12373a.59143.59143,0,0,0-.04608.04249c-.01094.074.02547.4125-.14927.57747a.37693.37693,0,0,0-.12373.2038c-.0036.02187.02671.19287.02671.3579a.67177.67177,0,0,1-.10311.40275.79694.79694,0,0,1-.11286.12616.57176.57176,0,0,0-.01454.14559M7.04122,12.782Zm19.30155-.47679a.99553.99553,0,0,0,.0328-.10068c.03273-.11529.0582-.22691.0582-.22691l.04124-.05944.108-.08007a.30737.30737,0,0,1,.19771-.06062.74827.74827,0,0,0,.09827-.1092.51479.51479,0,0,0,.0631-.279c0-.15286-.02913-.28752-.03037-.3579l.00124-.00727h-.00124a.53909.53909,0,0,1,.20144-.35423c.04367-.00727.08491-.35791.0764-.42828.03155-.1674.16622-.21958.21113-.28511-.00491-.00484.00242-.00484,0-.03516a4.42429,4.42429,0,0,0-.07765-.4671.26165.26165,0,0,1-.00608-.06546.84743.84743,0,0,1,.06671-.29c.00242-.01218.01211-.02914.017-.04609a3.072,3.072,0,0,0,.08006-.62115V8.40488a.17752.17752,0,0,1-.00484-.04366,2.31463,2.31463,0,0,1,.11037-.38579l.00243-.02187a5.15382,5.15382,0,0,0-.39431-.93656c-.09217-.24144-.5653-.28026-.569-.28026l-.06672-.03149a1.53144,1.53144,0,0,0-1.053-.35548c-.074,0-.12615.00726-.13348.00726a6.77546,6.77546,0,0,0-.77159.23418,4.60024,4.60024,0,0,0-.42213.43306l-.00491.00484a.16633.16633,0,0,1-.03633.04373,1.74576,1.74576,0,0,0-.18082.228,4.09179,4.09179,0,0,0-.285.76556,7.93244,7.93244,0,0,0-.25361.94992v.01087a11.72718,11.72718,0,0,0,.17348,1.33695,4.90894,4.90894,0,0,1,.22809.649l-.00118.03031c-.00851.028-.01945.08616-.03156.15044a.56529.56529,0,0,1,.13585-.04124h.01944a.22056.22056,0,0,0,.0946-.01453c.034-.00485.03037-.00851.03037-.00485a2.52165,2.52165,0,0,0,.04851-.47679,1.24821,1.24821,0,0,0-.00851-.15044c-.02062-.15286-.063-.25722-.06671-.387a.39916.39916,0,0,1,.02671-.13833,1.02335,1.02335,0,0,1,.13224-.2184.34608.34608,0,0,0,.0764-.19286,1.96947,1.96947,0,0,1,.14194-.72183c.04733-.06187.2633-.44766.31665-.55568a.60611.60611,0,0,1,.48648-.24988.08483.08483,0,0,1,.02063.00484c.09342.00367.296.04006.444.04006a.30029.30029,0,0,0,.11528-.00975c.09945-.05578.64053-.4925.64053-.49735a.13393.13393,0,0,1,.09708-.01577.109.109,0,0,1,.068.07522c0,.00242.08124.34454.10068.461a1.63152,1.63152,0,0,0,.32511.40759,1.2726,1.2726,0,0,1,.19777.64661.2087.2087,0,0,1-.0182.07765l-.7158,1.14526-.00361.04485-.09466.95234-.205.70972a2.584,2.584,0,0,0,.15044.22081m-9.33168-.5253a.79364.79364,0,0,0,.27292.08858h.00851c.09342-.03156.04249,0,.06187-.07162a.36086.36086,0,0,1,.22691-.26809l.00241-.00242a.29052.29052,0,0,0,.04125-.04367l-.14436-.1541a.10456.10456,0,0,1,.00969-.1456.10635.10635,0,0,1,.14311.00733l.16865.18436a.66827.66827,0,0,0,.15652-.02665,1.17423,1.17423,0,0,0,.14193-.14684c.00609-.00118.00609-.006.00969-.00727a.08237.08237,0,0,1,.02789-.01695h.00367v-.00243a.11192.11192,0,0,1,.03764-.00851.08248.08248,0,0,1,.04969.01454l.00367.00242h.00608c.00243.00733.01212.01218.01572.0182,0,0,.08373.07038.09342.06553,0-.00366.00976,0,.034-.08975a10.7002,10.7002,0,0,1,.4343-1.23018,1.24481,1.24481,0,0,1,.08013-.165,1.67449,1.67449,0,0,1-.51928-.23418l-.26324-.20255a.614.614,0,0,1-.13951.35057.41318.41318,0,0,1-.31665.15411h-.05579c-.03882.01087-.24752.17951-.37126.26442a1.39193,1.39193,0,0,1-.69512.32759,3.74649,3.74649,0,0,1-.59692.06913.52036.52036,0,0,1-.25957-.04733.26129.26129,0,0,0-.10069-.01695c-.09341,0-.21473.02546-.32517.02546a.23255.23255,0,0,1-.239-.12982.32715.32715,0,0,0-.05218-.09826,1.80742,1.80742,0,0,1,.02908.31908,1.93385,1.93385,0,0,1-.0861.54959,2.76432,2.76432,0,0,1-.26088.5653l1.41577-.36759.07765.00727.08739.051.59444.32144s.08975.04616.19169.08982m3.58852-.26572a.862.862,0,0,0,.28151.05217.54236.54236,0,0,0,.313-.09218c.35542-.216.59568-.19653.57506-.31423a.26146.26146,0,0,0,.00485-.0582.76691.76691,0,0,0-.01945-.15287c-.13466-.49132-.03273-.28144-.17591-.4125a2.48715,2.48715,0,0,1-.23653-.22808h-.0146a.13418.13418,0,0,0-.05217-.01211.04555.04555,0,0,0-.02062.00484.09768.09768,0,0,0-.017.04609.2027.2027,0,0,0,.017.05584s.03639.06913.07279.13342c.068.114.15529.25722.15529.25722V10.796a.10167.10167,0,1,1-.1759.10193s-.06063-.09827-.1189-.20386l-.01335-.00118-.35542-.216a.66266.66266,0,0,0-.3907-.1128,2.26533,2.26533,0,0,0-.24622.01938c-.04975,0-.108.00975-.17591.017a1.93833,1.93833,0,0,0-.72431.245,2.41431,2.41431,0,0,0-.22927.11162.3028.3028,0,0,0,.25722.11038h.00969a.77718.77718,0,0,0,.16379-.00727l.00361.00727c0-.00727.01093-.02063.02546-.034a.21542.21542,0,0,1,.16989-.09094.17575.17575,0,0,1,.154.08491c.01578.02789.63332.6163.64059.6296.00484,0,.04975.02552.12248.057m.67575-1.4218a.335.335,0,0,1,.20019.063,2.43639,2.43639,0,0,0,.23169.22206c.10193.06914.16864.09342.24629.5253a.87279.87279,0,0,1,.02061.13951,1.62391,1.62391,0,0,0,.37977-.11528.419.419,0,0,0,.148-.12373.38207.38207,0,0,0,.06186-.22082.90782.90782,0,0,0-.08006-.33237c-.1856-.43673-1.03967-.848-1.34055-.9657a.3124.3124,0,0,0-.12374-.023.29939.29939,0,0,0-.07764.00727,1.28305,1.28305,0,0,0-.53257.3033c-.08373.04609-.12373.4307-.13342.59568.04969-.00485.10069-.00851.1528-.00851a.86329.86329,0,0,1,.49741.14677l.1092.06678-.00118-.02553a.27318.27318,0,0,1,.057-.1674.21929.21929,0,0,1,.17591-.08733Zm-2.25407.69152ZM24.43083,9.8s.27057.86009.60176.92805a.13742.13742,0,0,1,.02907-.00118,2.19144,2.19144,0,0,0,1.22894-.40039c.0049-.006.01335-.006.02068-.0133h0l.27293-.44281a1.31476,1.31476,0,0,1-.23293-.051l-.00851.03521a.102.102,0,0,1-.12006.07883.10615.10615,0,0,1-.08007-.12007l.01454-.06677a1.02518,1.02518,0,0,1-.13833-.07274l.00124.00242a.10028.10028,0,0,1-.034-.14075.09724.09724,0,0,1,.13591-.034,1.41694,1.41694,0,0,0,.569.1723h.01577l.31784-.51319V9.1546a1.49606,1.49606,0,0,0-.12857-.49374,1.39621,1.39621,0,0,1-.39313-.53257c-.00726-.04975-.03515-.17957-.0582-.28635-.16863.13349-.44766.35548-.54474.41493a.45392.45392,0,0,1-.21473.03515,4.69593,4.69593,0,0,1-.46828-.04609c-.08006-.00118-.29355.08249-.29722.13349-.06795.12857-.26933.49492-.33846.58959a2.15031,2.15031,0,0,0-.10069.60294.48557.48557,0,0,1-.057.21473A.03661.03661,0,0,0,24.43083,9.8m-8.65353.48523a.38872.38872,0,0,0,.16131.023,3.63769,3.63769,0,0,0,.569-.06914,1.255,1.255,0,0,0,.6163-.29846c.12864-.06546.29237-.27175.48406-.29237h.04976c.04608-.0036.05583.00491.1723-.10069a.53669.53669,0,0,0,.08491-.3251c0-.04249-.00243-.068-.00243-.068a.0987.0987,0,0,1,.05336-.09826.09532.09532,0,0,1,.1092.00851l.41734.313a2.656,2.656,0,0,0,.59444.26449.579.579,0,0,0,.22926.0582.24093.24093,0,0,0,.03156-.00118c.25839-.05945.1905-.08131.22442-.16746a2.12134,2.12134,0,0,0,.0631-.43791c-.00366-.22933-.06068-.427-.296-.49865l-.06429-.057c-.0036,0-.26691-.56288-.68419-.54953a.68257.68257,0,0,0-.10559.01087l-.08249-.01938a3.095,3.095,0,0,0-.37847-.22082,2.03466,2.03466,0,0,0-.85165-.222,1.76216,1.76216,0,0,0-.23417.01944,4.3179,4.3179,0,0,0-.68177-.05951c-.43312-.00484-.81773.10193-.81773.34455a.09689.09689,0,0,1-.08733.09466,4.01316,4.01316,0,0,0-.49251.12007c-.256.07038-.45859.22206-.44039.27666h0c0,.00118.00485.01571.00845.03758a.10429.10429,0,0,1-.08124.11037l-.14076.03156h-.00851c-.074.03764-.24138.205-.23169.33a.39922.39922,0,0,0,.01094.07032h0a.04123.04123,0,0,1,.00844.02186,2.52061,2.52061,0,0,1,.27908.17957,1.926,1.926,0,0,1,.54593.66724c.01335.02789.02907.0582.04124.08857a.88635.88635,0,0,1,.353.39548c.00975,0,.02553.00118.04975.00118.07889.00367.20262-.023.32517-.023a.40061.40061,0,0,1,.19895.04124m-5.69222,12.9288Zm10.38478-1.00085a.1033.1033,0,0,1,.00969-.14559l.01938-.01218a.47447.47447,0,0,1-.14436-.14193.09989.09989,0,0,1,.0364-.13827.10347.10347,0,0,1,.13833.0364c.02665.07522.36393.19169.37.188v.00367a.09744.09744,0,0,1,.07156.12373.105.105,0,0,1-.12256.074,1.29256,1.29256,0,0,0-.15162-.05218l-.08615.07647a.1277.1277,0,0,1-.06429.0218.0945.0945,0,0,1-.0764-.03392m6.49163-3.147-.08006-.08852-.29237.05821a.0955.0955,0,0,1-.11647-.0764.09838.09838,0,0,1,.07522-.12013l.85165-.17709a.1.1,0,0,1,.1189.07764.103.103,0,0,1-.07765.12131l-.32877.06671v.00367a.1.1,0,0,1-.00485.14193.09884.09884,0,0,1-.07037.023.09539.09539,0,0,1-.07523-.03037m.0728-4.03377Zm-6.67972-1.12216a.09877.09877,0,0,1-.01938-.14193c.01572-.00367.245-.38462.53618-.41008a.20365.20365,0,0,1,.142.05093.10066.10066,0,0,1,.006.14436.09436.09436,0,0,1-.13826.00608h-.00975a.06291.06291,0,0,0-.0315.00485.05773.05773,0,0,1,.0182.01944l.03882.05944a.09894.09894,0,0,1-.0267.13951.102.102,0,0,1-.14318-.02428l-.03758-.057c-.00241-.00844-.00608-.00969-.00851-.01335-.09218.08857-.182.19777-.18441.199h.00242a.10055.10055,0,0,1-.08249.04125.09177.09177,0,0,1-.06187-.0182m5.01164-3.3302a.67132.67132,0,0,1-.38219-.14554.103.103,0,1,1,.13106-.159.462.462,0,0,0,.26567.10193.10352.10352,0,0,1,.0946.10914.10159.10159,0,0,1-.10069.09342ZM18.291,10.557l-.18076-.12249-.05093.0764a.10294.10294,0,0,1-.14193.02547.10147.10147,0,0,1-.02913-.14069l.04851-.07522-.16131-.10677a.099.099,0,0,1-.02913-.13951.09538.09538,0,0,1,.14193-.03031l.51679.34573a.10159.10159,0,0,1-.057.18559.12915.12915,0,0,1-.057-.0182m7.14924-.313c-.17833-.00485-.27293-.05336-.28511-.16373a.09957.09957,0,0,1,.02914-.0728.0959.0959,0,0,1,.14435,0,.17382.17382,0,0,1,.01578.0182.29134.29134,0,0,0,.10919.01938.10119.10119,0,0,1,.097.10795.09585.09585,0,0,1-.09945.091Zm-.387-.79948a.09813.09813,0,0,1-.0874-.1128l.01093-.08373a1.69526,1.69526,0,0,1-.22324-.10311V9.1461a.10028.10028,0,0,1-.03515-.14069.10276.10276,0,0,1,.14075-.0364,1.33816,1.33816,0,0,0,.56413.1759.09969.09969,0,0,1,.10186.09945.106.106,0,0,1-.10429.10075,1.08637,1.08637,0,0,1-.24628-.03155l-.00727.04726a.09915.09915,0,0,1-.10075.08373h-.01329" transform="translate(0.02913)" fill="#231f20"/>
            <path d="M110.06408,32.67652a2.68027,2.68027,0,0,0,2.17885.94625,2.13171,2.13171,0,0,0,2.40085-2.02965,2.07881,2.07881,0,0,0-1.28838-1.76393v-.03155a1.94447,1.94447,0,0,0,1.09551-1.66808,2.0161,2.0161,0,0,0-2.21891-1.94083,2.88537,2.88537,0,0,0-1.9653.933.19121.19121,0,0,0,0,.27659l.39306.35182a.18394.18394,0,0,0,.2766-.023,1.61982,1.61982,0,0,1,1.23259-.592,1.16447,1.16447,0,0,1,1.21192,1.15222c0,.62842-.501,1.13794-1.49944,1.13794h-.59692c-.148,0-.20988.06429-.20988.22324V30.107a.19645.19645,0,0,0,.20143.22318h.59319c1.138,0,1.6815.60661,1.6815,1.24228a1.22613,1.22613,0,0,1-1.32968,1.14769,2.12489,2.12489,0,0,1-1.44485-.66.1872.1872,0,0,0-.28752-.02063l-.41126.38337a.17767.17767,0,0,0-.01336.25356m-3.18578-.00976c-1.15862,0-1.55168-1.20949-1.46677-2.1012a1.707,1.707,0,0,1,1.45584-.80792,1.45534,1.45534,0,0,1,.01093,2.90912m-2.49793-2.01989c0,1.63534.80674,2.9759,2.50762,2.9759a2.42221,2.42221,0,0,0,2.37053-2.4324,2.20624,2.20624,0,0,0-2.21891-2.30625,3.05048,3.05048,0,0,0-1.41577.3943,4.33151,4.33151,0,0,1,2.52831-2.34717c.20379-.06311.24745-.18442.19286-.31058l-.182-.43194a.19159.19159,0,0,0-.26442-.12858c-.97905.37-3.51822,1.62566-3.51822,4.58672m-4.89635.95718a1.35125,1.35125,0,0,1,2.69806,0,1.22243,1.22243,0,0,1-1.35751,1.15856A1.24365,1.24365,0,0,1,99.484,31.60405m1.34906-2.29413c-.82861-.12858-1.18893-.56531-1.18893-1.13427a1.11985,1.11985,0,0,1,1.15855-1.11583,1.1355,1.1355,0,0,1,1.21925,1.11583c0,.5617-.3712,1.02029-1.18887,1.13427m-2.45427,2.27351a2.15785,2.15785,0,0,0,2.43358,2.03934c1.542,0,2.47731-.88079,2.47731-2.03934a2.1288,2.1288,0,0,0-1.28838-1.77368V29.7649a1.95291,1.95291,0,0,0,1.0967-1.63534,2.28993,2.28993,0,0,0-4.52634,0,1.96606,1.96606,0,0,0,1.09309,1.64988v.03031a2.22544,2.22544,0,0,0-1.286,1.77368m-5.09654,1.93014h3.69531a.189.189,0,0,0,.2002-.188v-.45977a.19494.19494,0,0,0-.2002-.199H95.80933v-6.1723a.19828.19828,0,0,0-.19051-.199h-.52163l-1.58324,1.43156a.20536.20536,0,0,0-.03031.212l.1274.37126c.03031.09826.13584.11764.23168.07522l.92812-.4671v4.74833H93.28227a.1945.1945,0,0,0-.20138.199v.45977a.18864.18864,0,0,0,.20138.188M83.6036,29.80975a2.75571,2.75571,0,1,1,2.75148,2.75272,2.78086,2.78086,0,0,1-2.75148-2.75272m-1.0652,0A3.81911,3.81911,0,1,0,86.35508,25.974a3.79128,3.79128,0,0,0-3.81668,3.83575m-7.69025,3.50487a.20781.20781,0,0,0,.20138.199h.67089a.20006.20006,0,0,0,.20013-.199V28.14043h.01217l4.60883,5.48234h.27778a.199.199,0,0,0,.20261-.19045V26.28457a.21151.21151,0,0,0-.20261-.20379h-.68059a.20392.20392,0,0,0-.20256.20379v5.021h-.01093L75.31643,25.974h-.2669a.20111.20111,0,0,0-.20138.18926Zm-5.87329-2.32321,1.29446-2.914h.05336l1.30782,2.914Zm-1.97748,2.52216H67.667a.26289.26289,0,0,0,.24386-.15771c.21231-.49008.43312-.96327.64785-1.45335h3.47332l.65754,1.45335a.25235.25235,0,0,0,.24628.15771h.67084a.18641.18641,0,0,0,.18075-.27293l-3.24156-7.15017a.2473.2473,0,0,0-.17833-.11647h-.108a.25612.25612,0,0,0-.18081.11647l-3.26219,7.15017a.1861.1861,0,0,0,.18075.27293m-5.01039-.199a.197.197,0,0,0,.19653.199h3.78513a.20037.20037,0,0,0,.20137-.199v-.58351a.2045.2045,0,0,0-.20137-.20386h-2.8813V26.28457a.20871.20871,0,0,0-.20138-.20379h-.70245a.20037.20037,0,0,0-.19653.20379Zm-3.17,0a.20894.20894,0,0,0,.20262.199H59.722a.205.205,0,0,0,.2002-.199v-7.03a.20852.20852,0,0,0-.2002-.20379H59.0196a.21244.21244,0,0,0-.20262.20379Zm-9.73934-.04125a.18683.18683,0,0,0,.20019.2402h.69027a.20609.20609,0,0,0,.19287-.14435l.76556-4.75076h.04125l1.92163,4.88908a.19514.19514,0,0,0,.18317.11523h.19051a.18092.18092,0,0,0,.18075-.11523l1.91076-4.88908h.03031l.78979,4.75076a.21656.21656,0,0,0,.20255.14435h.6891a.17754.17754,0,0,0,.18927-.2402L55.95146,26.133a.2183.2183,0,0,0-.19169-.159H55.59a.20237.20237,0,0,0-.182.11647l-2.2104,5.42985h-.04L50.9374,26.09047a.22207.22207,0,0,0-.18075-.11647h-.16982a.21564.21564,0,0,0-.19169.159Z" transform="translate(0.02913)" fill="#231f20"/>
            <path d="M138.53478,15.74333a3.48182,3.48182,0,1,1,3.4733,3.477,3.50932,3.50932,0,0,1-3.4733-3.477m-1.97624,0a5.45626,5.45626,0,1,0,5.44954-5.47744,5.42139,5.42139,0,0,0-5.44954,5.47744m-10.574,0a5.44283,5.44283,0,0,0,5.47749,5.44836,5.19562,5.19562,0,0,0,3.6868-1.4764.28607.28607,0,0,0,.017-.40765l-.94141-.97054a.27439.27439,0,0,0-.37852,0,3.64964,3.64964,0,0,1-2.322.86258,3.43257,3.43257,0,0,1-3.39809-3.50244,3.43819,3.43819,0,0,1,3.38113-3.53636,3.60768,3.60768,0,0,1,2.339.89407.24376.24376,0,0,0,.37852,0l.92439-.95476a.28.28,0,0,0-.01453-.42579,5.13836,5.13836,0,0,0-3.67227-1.40851,5.46289,5.46289,0,0,0-5.47749,5.47744m-3.97557,5.00437a.30142.30142,0,0,0,.28634.29237h1.41336a.3034.3034,0,0,0,.28752-.29237V10.7002a.29571.29571,0,0,0-.28752-.28387h-1.41336a.29376.29376,0,0,0-.28634.28387Zm-11.5785,0a.30091.30091,0,0,0,.28877.29237h1.37938a.29063.29063,0,0,0,.28752-.29237V14.22444h.0182l6.3412,6.96725h.36275a.28613.28613,0,0,0,.29-.27417V10.7002a.2953.2953,0,0,0-.29-.28387H117.7131a.28375.28375,0,0,0-.28871.28387v6.26964h-.01454l-6.31461-6.704h-.376a.28123.28123,0,0,0-.28877.27051ZM99.24624,15.74333a5.44252,5.44252,0,0,0,5.47625,5.44836,5.21429,5.21429,0,0,0,3.69047-1.4764.28584.28584,0,0,0,.01093-.40765l-.94023-.97054a.27435.27435,0,0,0-.37852,0,3.65285,3.65285,0,0,1-2.3232.86258,3.43332,3.43332,0,0,1-3.39809-3.50244,3.43992,3.43992,0,0,1,3.38231-3.53636,3.61007,3.61007,0,0,1,2.339.89407.24374.24374,0,0,0,.37852,0l.9293-.95476a.28451.28451,0,0,0-.01578-.42579,5.14625,5.14625,0,0,0-3.67469-1.40851,5.46259,5.46259,0,0,0-5.47625,5.47744M90.94447,20.7477a.29225.29225,0,0,0,.28752.29237h6.17629a.29166.29166,0,0,0,.2887-.29237V19.50417a.28526.28526,0,0,0-.2887-.28387H92.9171V16.561h3.7463a.28678.28678,0,0,0,.28871-.28747V15.01305a.30175.30175,0,0,0-.28871-.29237H92.9171V12.23486h4.49118a.28679.28679,0,0,0,.2887-.28753V10.7002a.28453.28453,0,0,0-.2887-.28387H91.232a.285.285,0,0,0-.28752.28387Zm-6.33151,0a.30536.30536,0,0,0,.28871.29237H86.315a.29961.29961,0,0,0,.28629-.29237V12.23486h2.32444a.285.285,0,0,0,.28753-.28753V10.7002a.28273.28273,0,0,0-.28753-.28387H82.29336a.28528.28528,0,0,0-.28871.28387v1.24713a.28755.28755,0,0,0,.28871.28753H84.613Zm-6.50623,0a.30137.30137,0,0,0,.28628.29237h1.41211a.30248.30248,0,0,0,.28753-.29237V10.7002a.29483.29483,0,0,0-.28753-.28387H78.393a.29371.29371,0,0,0-.28628.28387Zm-8.12127,0a.29084.29084,0,0,0,.28871.29237h5.55538a.29221.29221,0,0,0,.28753-.29237V19.50417a.28575.28575,0,0,0-.28753-.28387H71.958V10.7002a.29372.29372,0,0,0-.28628-.28387H70.27417a.28375.28375,0,0,0-.28871.28387Zm-10.5328-5.00437a3.48425,3.48425,0,1,1,3.47455,3.477,3.51039,3.51039,0,0,1-3.47455-3.477m-1.97139,0a5.45568,5.45568,0,1,0,5.44594-5.47744,5.4183,5.4183,0,0,0-5.44594,5.47744m-6.43585-.41244V12.281h1.7615a1.51356,1.51356,0,0,1,1.56255,1.47161,1.56422,1.56422,0,0,1-1.56255,1.57833ZM49.074,20.7477a.29167.29167,0,0,0,.28877.29237h1.39391a.30181.30181,0,0,0,.28877-.29237V17.18214H52.944a3.38292,3.38292,0,1,0-.01577-6.76581H49.36274a.28454.28454,0,0,0-.28877.28387Z" transform="translate(0.02913)" fill="#231f20"/>
          </g>
        </g>
      </g>
    </g>
    <g>
      <path d="M49.41708,53.38373l.24707-.42578a.15934.15934,0,0,1,.2334-.04785,2.27028,2.27028,0,0,0,1.03613.42578.57322.57322,0,0,0,.625-.5293c0-.3496-.29492-.58984-.87207-.82324-.64551-.26172-1.291-.67285-1.291-1.4834a1.37171,1.37171,0,0,1,1.54493-1.31836,2.41522,2.41522,0,0,1,1.374.46.17052.17052,0,0,1,.041.22656l-.26075.3916a.181.181,0,0,1-.24023.082,2.26683,2.26683,0,0,0-.95508-.37793.54705.54705,0,0,0-.60351.48145c0,.32226.2539.542.80957.76855.666.26758,1.43554.666,1.43554,1.55176a1.45038,1.45038,0,0,1-1.5791,1.35937,2.21108,2.21108,0,0,1-1.51074-.53515C49.38876,53.52826,49.35458,53.49311,49.41708,53.38373Z" transform="translate(0.02913)" fill="#231f20"/>
      <path d="M55.68563,49.18158a2.32234,2.32234,0,0,1,1.66114.63868.1281.1281,0,0,1,.00683.19238l-.41894.43262a.11049.11049,0,0,1-.17188,0A1.61908,1.61908,0,0,0,55.70614,50.04a1.59388,1.59388,0,0,0,.00684,3.18555,1.64005,1.64005,0,0,0,1.0498-.3916.12714.12714,0,0,1,.17188,0l.42578.43945a.13132.13132,0,0,1-.00684.18555,2.35661,2.35661,0,0,1-1.668.666,2.47169,2.47169,0,1,1,0-4.94336Z" transform="translate(0.02913)" fill="#231f20"/>
      <path d="M58.38974,49.3808a.13464.13464,0,0,1,.12988-.13086h.63867a.13022.13022,0,0,1,.13086.13086v1.81934h2.23828V49.3808a.13022.13022,0,0,1,.13086-.13086h.63184a.13464.13464,0,0,1,.12988.13086v4.54493a.13463.13463,0,0,1-.12988.13085h-.63184a.13021.13021,0,0,1-.13086-.13085V52.03119H59.28915v1.89454a.13021.13021,0,0,1-.13086.13085h-.63867a.13463.13463,0,0,1-.12988-.13085Z" transform="translate(0.02913)" fill="#231f20"/>
      <path d="M65.9288,49.18158A2.47169,2.47169,0,1,1,63.463,51.6601,2.46736,2.46736,0,0,1,65.9288,49.18158Zm0,4.05079a1.57912,1.57912,0,1,0-1.57324-1.57227A1.58276,1.58276,0,0,0,65.9288,53.23237Z" transform="translate(0.02913)" fill="#231f20"/>
      <path d="M71.5577,49.18158a2.47169,2.47169,0,1,1-2.46484,2.47852A2.46756,2.46756,0,0,1,71.5577,49.18158Zm0,4.05079a1.57912,1.57912,0,1,0-1.57226-1.57227A1.583,1.583,0,0,0,71.5577,53.23237Z" transform="translate(0.02913)" fill="#231f20"/>
      <path d="M75.066,49.3808a.13.13,0,0,1,.12989-.13086h.63183a.13481.13481,0,0,1,.13086.13086v3.85157h1.751a.13062.13062,0,0,1,.12988.13086v.5625a.13.13,0,0,1-.12988.13085H75.19589a.13.13,0,0,1-.12989-.13085Z" transform="translate(0.02913)" fill="#231f20"/>
      <path d="M82.44589,49.18158A2.47169,2.47169,0,1,1,79.981,51.6601,2.46756,2.46756,0,0,1,82.44589,49.18158Zm0,4.05079a1.57912,1.57912,0,1,0-1.57227-1.57227A1.583,1.583,0,0,0,82.44589,53.23237Z" transform="translate(0.02913)" fill="#231f20"/>
      <path d="M85.95468,49.3808a.13.13,0,0,1,.12988-.13086h2.79492a.13022.13022,0,0,1,.13086.13086v.5625a.13022.13022,0,0,1-.13086.13086H86.84725v1.291h1.69629a.13446.13446,0,0,1,.12989.12988v.56348a.13534.13534,0,0,1-.12989.13086H86.84725v1.73633a.1348.1348,0,0,1-.13085.13085h-.63184a.13.13,0,0,1-.12988-.13085Z" transform="translate(0.02913)" fill="#231f20"/>
      <path d="M91.61874,49.3808a.12877.12877,0,0,1,.123-.13086h1.62793a2.40333,2.40333,0,1,1,0,4.80664H91.74179a.12876.12876,0,0,1-.123-.13085Zm1.668,3.83789a1.569,1.569,0,0,0,0-3.13769h-.78223v3.13769Z" transform="translate(0.02913)" fill="#231f20"/>
      <path d="M96.82186,49.3808a.13.13,0,0,1,.12989-.13086h2.79492a.13022.13022,0,0,1,.13086.13086v.5625a.13022.13022,0,0,1-.13086.13086H97.71444v1.126h1.69629a.13463.13463,0,0,1,.12988.13086v.56933a.13.13,0,0,1-.12988.13086H97.71444v1.20118h2.03223a.13083.13083,0,0,1,.13086.13086v.5625a.13021.13021,0,0,1-.13086.13085H96.95175a.13.13,0,0,1-.12989-.13085Z" transform="translate(0.02913)" fill="#231f20"/>
      <path d="M100.71542,53.38373l.24707-.42578a.15934.15934,0,0,1,.2334-.04785,2.27028,2.27028,0,0,0,1.03613.42578.57322.57322,0,0,0,.625-.5293c0-.3496-.29492-.58984-.87207-.82324-.64551-.26172-1.291-.67285-1.291-1.4834a1.37171,1.37171,0,0,1,1.54493-1.31836,2.41522,2.41522,0,0,1,1.374.46.17052.17052,0,0,1,.041.22656l-.26075.3916a.181.181,0,0,1-.24023.082,2.26689,2.26689,0,0,0-.95508-.37793.54705.54705,0,0,0-.60351.48145c0,.32226.2539.542.80957.76855.666.26758,1.43554.666,1.43554,1.55176a1.45038,1.45038,0,0,1-1.5791,1.35937,2.21108,2.21108,0,0,1-1.51074-.53515C100.6871,53.52826,100.65292,53.49311,100.71542,53.38373Z" transform="translate(0.02913)" fill="#231f20"/>
      <path d="M104.85507,49.3808a.13464.13464,0,0,1,.12988-.13086h.63867a.13481.13481,0,0,1,.13086.13086v4.54493a.1348.1348,0,0,1-.13086.13085H104.985a.13463.13463,0,0,1-.12988-.13085Z" transform="translate(0.02913)" fill="#231f20"/>
      <path d="M109.26229,49.18158a2.59517,2.59517,0,0,1,1.67579.63868.13347.13347,0,0,1,.00683.19238l-.42578.44629a.11777.11777,0,0,1-.17871,0,1.55182,1.55182,0,0,0-1.03613-.39844,1.58307,1.58307,0,0,0,.00683,3.165,2.129,2.129,0,0,0,.81641-.17188v-.583h-.54883a.12525.12525,0,0,1-.13086-.124v-.542a.12673.12673,0,0,1,.13086-.13086h1.31836a.12877.12877,0,0,1,.12305.13086v1.75781a.13149.13149,0,0,1-.05469.10938,3.469,3.469,0,0,1-1.70313.44629,2.46827,2.46827,0,0,1,0-4.93653Z" transform="translate(0.02913)" fill="#231f20"/>
      <path d="M112.16659,49.30463a.12852.12852,0,0,1,.12988-.12305h.17188l2.85644,3.03516h.00684V49.3808a.13085.13085,0,0,1,.13086-.13086h.63184a.13465.13465,0,0,1,.12988.13086v4.6211a.12852.12852,0,0,1-.12988.123h-.165l-2.87012-3.15136h-.00684v2.95215a.13021.13021,0,0,1-.13086.13085h-.625a.13463.13463,0,0,1-.12988-.13085Z" transform="translate(0.02913)" fill="#231f20"/>
    </g>
  </g>
</svg>
