<?xml version="1.0" encoding="utf-8"?>
<!-- Generator: Adobe Illustrator 26.0.2, SVG Export Plug-In . SVG Version: 6.00 Build 0)  -->
<svg version="1.1" id="Livello_1" xmlns="http://www.w3.org/2000/svg" xmlns:xlink="http://www.w3.org/1999/xlink" x="0px" y="0px"
	 viewBox="0 0 375.5 375.8" style="enable-background:new 0 0 375.5 375.8;" xml:space="preserve">
<style type="text/css">
	.st0{stroke:#000000;stroke-width:3;stroke-miterlimit:10;}
	.st1{fill:none;stroke:#000000;stroke-width:3;stroke-linecap:round;stroke-linejoin:round;stroke-miterlimit:3.5409;}
	.st2{fill:none;stroke:#CFFF58;stroke-width:3.5;stroke-miterlimit:10;}
	.st3{fill:#CFFF58;}
	.st4{fill:none;stroke:#000000;stroke-width:25;stroke-miterlimit:10;}
	.st5{fill:none;stroke:#000000;stroke-width:3;stroke-miterlimit:10;}
	.st6{fill:none;stroke:#000000;stroke-width:3.5;stroke-miterlimit:10;}
	.st7{fill:none;stroke:#FFFFFF;stroke-width:3;stroke-miterlimit:10;}
	.st8{fill:#CFFF58;stroke:#000000;stroke-width:3;stroke-miterlimit:10;}
</style>
<g>
	<path class="st1" d="M336.4,130.5c-5.4-20.2-26.1-32.1-46.3-26.7l0,0c-2.3,0.6-4.6,1.4-6.9,2.4l24.9,92.9
		C331.4,185.6,343.7,157.8,336.4,130.5z"/>
	<path class="st1" d="M50.9,168L50.9,168c-20.1,5.4-32.1,26.1-26.7,46.3c7.3,27.2,31.9,45.2,58.8,45.3L58,166.6
		C55.6,166.9,53.2,167.4,50.9,168z"/>
	<path class="st5" d="M283.2,106.3l-0.1-0.4c-3.2-12.1-15.7-19.3-27.8-16L74,138.4c-12.1,3.2-19.3,15.7-16,27.8l0.1,0.4"/>
	<path class="st5" d="M82.9,259.5l0.5,1.9c3.2,12.1,15.7,19.3,27.8,16l181.4-48.6c12.1-3.2,19.3-15.7,16-27.8l-0.5-1.9"/>
</g>
<line class="st6" x1="88.6" y1="183.3" x2="265.1" y2="136"/>
<line class="st6" x1="94.8" y1="206.6" x2="271.4" y2="159.3"/>
<line class="st6" x1="101.1" y1="229.8" x2="277.6" y2="182.5"/>
<circle class="st4" cx="185.2" cy="192.4" r="163.5"/>
<line class="st4" x1="300.8" y1="308" x2="69.6" y2="76.8"/>
</svg>
