<?xml version="1.0" encoding="utf-8"?>
<!-- Generator: Adobe Illustrator 26.0.2, SVG Export Plug-In . SVG Version: 6.00 Build 0)  -->
<svg version="1.1" id="Livello_1" xmlns="http://www.w3.org/2000/svg" xmlns:xlink="http://www.w3.org/1999/xlink" x="0px" y="0px"
	 viewBox="0 0 375.5 375.8" style="enable-background:new 0 0 375.5 375.8;" xml:space="preserve">
<style type="text/css">
	.st0{stroke:#000000;stroke-width:3;stroke-miterlimit:10;}
	.st1{fill:none;stroke:#000000;stroke-width:3;stroke-linecap:round;stroke-linejoin:round;stroke-miterlimit:3.5409;}
	.st2{fill:none;stroke:#CFFF58;stroke-width:3.5;stroke-miterlimit:10;}
	.st3{fill:#CFFF58;}
	.st4{fill:none;stroke:#000000;stroke-width:25;stroke-miterlimit:10;}
	.st5{fill:none;stroke:#000000;stroke-width:3;stroke-miterlimit:10;}
	.st6{fill:none;stroke:#000000;stroke-width:3.5;stroke-miterlimit:10;}
	.st7{fill:none;stroke:#FFFFFF;stroke-width:3;stroke-miterlimit:10;}
	.st8{fill:#CFFF58;stroke:#000000;stroke-width:3;stroke-miterlimit:10;}
</style>
<g>
	<path class="st1" d="M342.4,214.2c5.4-20.2-6.6-40.9-26.7-46.3l0,0c-2.3-0.6-4.7-1.1-7.2-1.3l-24.9,92.9
		C310.6,259.4,335.1,241.4,342.4,214.2z"/>
	<path class="st1" d="M76.4,103.9L76.4,103.9c-20.2-5.4-40.9,6.6-46.3,26.7c-7.3,27.2,5,55.1,28.2,68.6l24.9-92.9
		C81.1,105.3,78.7,104.5,76.4,103.9z"/>
	<path class="st5" d="M308.6,166.6l0.1-0.4c3.2-12.1-3.9-24.5-16-27.8L111.2,89.8c-12.1-3.2-24.5,3.9-27.8,16l-0.1,0.4"/>
	<path class="st5" d="M58.4,199.2l-0.5,1.9c-3.2,12.1,3.9,24.5,16,27.8l181.4,48.6c12.1,3.2,24.5-3.9,27.8-16l0.5-1.9"/>
</g>
<line class="st6" x1="101.5" y1="136" x2="278" y2="183.3"/>
<line class="st6" x1="95.2" y1="159.3" x2="271.7" y2="206.6"/>
<line class="st6" x1="89" y1="182.5" x2="265.5" y2="229.8"/>
<circle class="st4" cx="185.2" cy="192.4" r="163.5"/>
<line class="st4" x1="300.8" y1="308" x2="69.6" y2="76.8"/>
</svg>
