<?xml version="1.0" encoding="utf-8"?>
<!-- Generator: Adobe Illustrator 26.0.2, SVG Export Plug-In . SVG Version: 6.00 Build 0)  -->
<svg version="1.1" id="Livello_1" xmlns="http://www.w3.org/2000/svg" xmlns:xlink="http://www.w3.org/1999/xlink" x="0px" y="0px"
	 viewBox="0 0 375.5 375.8" style="enable-background:new 0 0 375.5 375.8;" xml:space="preserve">
<style type="text/css">
	.st0{stroke:#000000;stroke-width:3;stroke-miterlimit:10;}
	.st1{fill:none;stroke:#000000;stroke-width:3;stroke-linecap:round;stroke-linejoin:round;stroke-miterlimit:3.5409;}
	.st2{fill:none;stroke:#CFFF58;stroke-width:3.5;stroke-miterlimit:10;}
	.st3{fill:#CFFF58;}
	.st4{fill:none;stroke:#000000;stroke-width:25;stroke-miterlimit:10;}
	.st5{fill:none;stroke:#000000;stroke-width:3;stroke-miterlimit:10;}
	.st6{fill:none;stroke:#000000;stroke-width:3.5;stroke-miterlimit:10;}
	.st7{fill:none;stroke:#FFFFFF;stroke-width:3;stroke-miterlimit:10;}
	.st8{fill:#CFFF58;stroke:#000000;stroke-width:3;stroke-miterlimit:10;}
</style>
<path class="st0" d="M308.5,200.5l0.5,1.9c3.2,12.1-3.9,24.5-16,27.8l-181.4,48.6c-12.1,3.2-24.5-3.9-27.8-16l-0.5-1.9l-24.9-92.9
	l-0.1-0.4c-3.2-12.1,3.9-24.5,16-27.8l181.4-48.6c12.1-3.2,24.5,3.9,27.8,16l0.1,0.4"/>
<path class="st1" d="M336.7,131.9c-5.4-20.2-26.1-32.1-46.3-26.7l0,0c-2.3,0.6-4.6,1.4-6.9,2.4l24.9,92.9
	C331.7,186.9,344,159.1,336.7,131.9z"/>
<path class="st1" d="M51.2,169.3L51.2,169.3c-20.1,5.4-32.1,26.1-26.7,46.3c7.3,27.2,31.9,45.2,58.8,45.3l-24.9-92.9
	C55.9,168.2,53.5,168.7,51.2,169.3z"/>
<line class="st2" x1="89" y1="184.6" x2="265.5" y2="137.3"/>
<line class="st2" x1="95.2" y1="207.9" x2="271.7" y2="160.6"/>
<line class="st2" x1="101.4" y1="231.1" x2="277.9" y2="183.8"/>
</svg>
